<svg width="44" height="37" viewBox="0 0 44 37" fill="none" xmlns="http://www.w3.org/2000/svg">
<mask id="mask0_1976_9703" style="mask-type:alpha" maskUnits="userSpaceOnUse" x="0" y="0" width="44" height="37">
<rect x="0.25" y="0.5" width="43.5" height="36" fill="#D9D9D9"/>
</mask>
<g mask="url(#mask0_1976_9703)">
<g filter="url(#filter0_f_1976_9703)">
<path d="M1.74999 15.4961C1.74999 17.8599 2.22527 20.2005 3.14871 22.3844C4.07214 24.5683 5.42563 26.5526 7.13191 28.224C8.83818 29.8955 10.8638 31.2213 13.0932 32.1259C15.3225 33.0305 17.712 33.4961 20.125 33.4961C22.538 33.4961 24.9274 33.0305 27.1568 32.1259C29.3862 31.2213 31.4118 29.8955 33.1181 28.224C34.8244 26.5526 36.1779 24.5683 37.1013 22.3844C38.0247 20.2005 38.5 17.8599 38.5 15.4961L20.125 15.4961L1.74999 15.4961Z" fill="#6039DB" fill-opacity="0.09"/>
</g>
<path d="M18.0667 12.3848L13.5068 17.1006L11.3785 14.9533" stroke="black" stroke-width="2"/>
<rect x="23.4985" y="26.7461" width="8.25" height="8.25" rx="2" fill="#007EBB"/>
<path fill-rule="evenodd" clip-rule="evenodd" d="M30.2493 33.123H29.2476V31.417C29.2476 30.9492 29.0699 30.6878 28.6996 30.6878C28.2969 30.6878 28.0865 30.9599 28.0865 31.417V33.123H27.1211V29.873H28.0865V30.3108C28.0865 30.3108 28.3767 29.7738 29.0664 29.7738C29.7557 29.7738 30.2493 30.1947 30.2493 31.0653V33.123ZM25.9695 29.4475C25.6407 29.4475 25.3743 29.179 25.3743 28.8478C25.3743 28.5166 25.6407 28.248 25.9695 28.248C26.2983 28.248 26.5646 28.5166 26.5646 28.8478C26.5646 29.179 26.2983 29.4475 25.9695 29.4475ZM25.4711 33.123H26.4776V29.873H25.4711V33.123Z" fill="white"/>
<path fill-rule="evenodd" clip-rule="evenodd" d="M10.375 14.3012C10.375 16.1265 8.86396 17.6063 7 17.6063C5.13604 17.6063 3.625 16.1265 3.625 14.3012C3.625 12.4758 5.13604 10.9961 7 10.9961C8.86396 10.9961 10.375 12.4758 10.375 14.3012ZM0.25 24.6283C0.25 20.5988 4.74719 18.5689 7 18.5689C9.25281 18.5689 13.75 20.5988 13.75 24.6283C13.75 26.2176 12.3279 27.4297 10.7586 27.1779L8.10911 26.7527C7.3744 26.6348 6.6256 26.6348 5.89089 26.7527L3.24138 27.1779C1.6721 27.4297 0.25 26.2176 0.25 24.6283Z" fill="#6039DB"/>
</g>
<defs>
<filter id="filter0_f_1976_9703" x="-6.25" y="7.49609" width="52.75" height="34" filterUnits="userSpaceOnUse" color-interpolation-filters="sRGB">
<feFlood flood-opacity="0" result="BackgroundImageFix"/>
<feBlend mode="normal" in="SourceGraphic" in2="BackgroundImageFix" result="shape"/>
<feGaussianBlur stdDeviation="4" result="effect1_foregroundBlur_1976_9703"/>
</filter>
</defs>
</svg>
