<svg width="44" height="37" viewBox="0 0 44 37" fill="none" xmlns="http://www.w3.org/2000/svg">
<mask id="mask0_1976_9759" style="mask-type:alpha" maskUnits="userSpaceOnUse" x="0" y="0" width="44" height="37">
<rect x="0.25" y="0.5" width="43.5" height="36" fill="#D9D9D9"/>
</mask>
<g mask="url(#mask0_1976_9759)">
<g filter="url(#filter0_f_1976_9759)">
<path d="M2.50073 15.502C2.50073 17.8657 2.97601 20.2064 3.89944 22.3903C4.82287 24.5741 6.17636 26.5584 7.88264 28.2299C9.58892 29.9013 11.6146 31.2272 13.8439 32.1318C16.0733 33.0364 18.4627 33.502 20.8757 33.502C23.2888 33.502 25.6782 33.0364 27.9075 32.1318C30.1369 31.2272 32.1625 29.9013 33.8688 28.2299C35.5751 26.5584 36.9286 24.5741 37.852 22.3903C38.7755 20.2064 39.2507 17.8658 39.2507 15.502L20.8757 15.502L2.50073 15.502Z" fill="#6039DB" fill-opacity="0.09"/>
</g>
<rect x="0.25" y="11.002" width="17.25" height="12" rx="2" fill="#52B5F9"/>
<path d="M8.45663 17.4745C8.7093 17.6439 9.03928 17.6439 9.29196 17.4745L16.8941 12.3775C17.5096 11.9648 17.2175 11.0045 16.4764 11.0045H1.27214C0.5311 11.0045 0.238977 11.9648 0.854474 12.3775L8.45663 17.4745Z" fill="#111827" fill-opacity="0.21"/>
<path d="M9.29264 5.88096C9.03996 5.71155 8.70998 5.71155 8.45731 5.88096L0.855154 10.978C0.239656 11.3907 0.53178 12.3509 1.27282 12.3509L16.4771 12.3509C17.2182 12.3509 17.5103 11.3907 16.8948 10.978L9.29264 5.88096Z" fill="#4494CD"/>
<path d="M29.3124 18.9616C29.6406 18.6334 30.0858 18.449 30.55 18.449C31.0142 18.449 31.4594 18.6334 31.7876 18.9616C32.1158 19.2898 32.3002 19.735 32.3002 20.1992C32.3002 20.6634 32.1158 21.1086 31.7876 21.4368L30.9301 22.2936C30.8345 22.3926 30.7817 22.5253 30.7829 22.6629C30.7842 22.8006 30.8395 22.9322 30.9368 23.0295C31.0342 23.1268 31.1659 23.182 31.3036 23.1831C31.4412 23.1842 31.5738 23.1313 31.6728 23.0356L32.5296 22.1788C33.0396 21.6507 33.3219 20.9434 33.3155 20.2093C33.3091 19.4751 33.0146 18.7728 32.4955 18.2537C31.9764 17.7346 31.2741 17.4401 30.5399 17.4337C29.8058 17.4273 29.0985 17.7095 28.5704 18.2196L26.4704 20.3196C26.1976 20.5924 25.9842 20.9186 25.8434 21.2777C25.7027 21.6369 25.6377 22.0213 25.6524 22.4067C25.6672 22.7922 25.7615 23.1705 25.9294 23.5178C26.0972 23.8651 26.335 24.174 26.6279 24.4251C26.7338 24.5135 26.8703 24.5567 27.0078 24.5453C27.1453 24.5339 27.2728 24.4688 27.3627 24.3641C27.4526 24.2594 27.4976 24.1235 27.4881 23.9858C27.4786 23.8482 27.4153 23.7198 27.3118 23.6285C27.1286 23.4716 26.9797 23.2786 26.8746 23.0614C26.7695 22.8443 26.7105 22.6078 26.7011 22.3668C26.6918 22.1257 26.7324 21.8854 26.8204 21.6607C26.9084 21.4361 27.0418 21.2322 27.2124 21.0616L29.3124 18.9616Z" fill="black"/>
<path d="M28.872 21.5732C28.7661 21.4847 28.6296 21.4416 28.4921 21.453C28.3546 21.4644 28.2271 21.5295 28.1372 21.6342C28.0473 21.7389 28.0022 21.8748 28.0118 22.0124C28.0213 22.1501 28.0846 22.2784 28.1881 22.3698C28.3713 22.5266 28.5202 22.7197 28.6253 22.9368C28.7304 23.1539 28.7894 23.3904 28.7988 23.6315C28.8081 23.8725 28.7675 24.1129 28.6795 24.3375C28.5915 24.5621 28.4581 24.7661 28.2875 24.9367L26.1875 27.0367C25.8593 27.3649 25.4141 27.5493 24.9499 27.5493C24.4857 27.5493 24.0405 27.3649 23.7123 27.0367C23.3841 26.7084 23.1997 26.2633 23.1997 25.7991C23.1997 25.3349 23.3841 24.8897 23.7123 24.5615L24.5698 23.7047C24.6654 23.6056 24.7182 23.473 24.717 23.3353C24.7157 23.1977 24.6604 23.066 24.563 22.9687C24.4657 22.8714 24.334 22.8163 24.1963 22.8151C24.0586 22.814 23.9261 22.867 23.8271 22.9627L22.9703 23.8195C22.7029 24.0778 22.4895 24.3867 22.3428 24.7283C22.1961 25.0699 22.1188 25.4374 22.1156 25.8091C22.1124 26.1809 22.1832 26.5496 22.324 26.8937C22.4648 27.2378 22.6727 27.5505 22.9356 27.8134C23.1985 28.0763 23.5111 28.2842 23.8552 28.425C24.1993 28.5657 24.568 28.6366 24.9398 28.6334C25.3116 28.6301 25.679 28.5529 26.0206 28.4061C26.3622 28.2594 26.6712 28.0461 26.9295 27.7787L29.0295 25.6787C29.3022 25.4059 29.5157 25.0797 29.6565 24.7205C29.7972 24.3614 29.8622 23.977 29.8474 23.5915C29.8327 23.206 29.7384 22.8278 29.5705 22.4805C29.4027 22.1331 29.1648 21.8242 28.872 21.5732Z" fill="black"/>
</g>
<defs>
<filter id="filter0_f_1976_9759" x="-5.49927" y="7.50195" width="52.75" height="34" filterUnits="userSpaceOnUse" color-interpolation-filters="sRGB">
<feFlood flood-opacity="0" result="BackgroundImageFix"/>
<feBlend mode="normal" in="SourceGraphic" in2="BackgroundImageFix" result="shape"/>
<feGaussianBlur stdDeviation="4" result="effect1_foregroundBlur_1976_9759"/>
</filter>
</defs>
</svg>
