<svg width="58" height="48" viewBox="0 0 58 48" fill="none" xmlns="http://www.w3.org/2000/svg">
<mask id="mask0_885_83936" style="mask-type:alpha" maskUnits="userSpaceOnUse" x="0" y="0" width="58" height="48">
<rect width="58" height="48" fill="#D9D9D9"/>
</mask>
<g mask="url(#mask0_885_83936)">
<g filter="url(#filter0_f_885_83936)">
<path d="M3 21C3 24.1517 3.6337 27.2726 4.86494 30.1844C6.09618 33.0962 7.90084 35.742 10.1759 37.9706C12.4509 40.1992 15.1518 41.967 18.1243 43.1731C21.0967 44.3792 24.2826 45 27.5 45C30.7174 45 33.9033 44.3792 36.8757 43.1731C39.8482 41.967 42.5491 40.1992 44.8241 37.9706C47.0992 35.742 48.9038 33.0962 50.1351 30.1844C51.3663 27.2726 52 24.1517 52 21L27.5 21L3 21Z" fill="#6039DB" fill-opacity="0.09"/>
</g>
<rect x="31" y="36" width="11" height="11" rx="2" fill="#007EBB"/>
<path fill-rule="evenodd" clip-rule="evenodd" d="M40.0002 44.5H38.6647V42.2253C38.6647 41.6016 38.4277 41.2531 37.9341 41.2531C37.3971 41.2531 37.1165 41.6158 37.1165 42.2253V44.5H35.8294V40.1667H37.1165V40.7504C37.1165 40.7504 37.5035 40.0343 38.4231 40.0343C39.3422 40.0343 40.0002 40.5956 40.0002 41.7564V44.5ZM34.2939 39.5993C33.8555 39.5993 33.5002 39.2412 33.5002 38.7996C33.5002 38.358 33.8555 38 34.2939 38C34.7323 38 35.0874 38.358 35.0874 38.7996C35.0874 39.2412 34.7323 39.5993 34.2939 39.5993ZM33.6293 44.5H34.9714V40.1667H33.6293V44.5Z" fill="white"/>
<path fill-rule="evenodd" clip-rule="evenodd" d="M3.1925 34.305C3.68587 34.3938 4.18621 34.4381 4.6875 34.4375C6.27183 34.4396 7.82448 33.9937 9.16625 33.1513C10.1337 33.3788 11.1462 33.5 12.1875 33.5C18.84 33.5 24.375 28.5375 24.375 22.25C24.375 15.9625 18.84 11 12.1875 11C5.535 11 0 15.9625 0 22.25C0 25.2612 1.28125 27.9837 3.3425 29.99C3.6325 30.2725 3.68875 30.525 3.66 30.6688C3.50552 31.4463 3.15532 32.1717 2.6425 32.7762C2.53604 32.9019 2.46457 33.0535 2.43529 33.2155C2.40601 33.3776 2.41995 33.5446 2.47571 33.6996C2.53147 33.8546 2.62708 33.9921 2.75292 34.0984C2.87875 34.2047 3.03037 34.2759 3.1925 34.305ZM7.5 20.8438C7.12704 20.8438 6.76935 20.9919 6.50563 21.2556C6.24191 21.5194 6.09375 21.877 6.09375 22.25C6.09375 22.623 6.24191 22.9806 6.50563 23.2444C6.76935 23.5081 7.12704 23.6562 7.5 23.6562C7.87296 23.6562 8.23065 23.5081 8.49437 23.2444C8.75809 22.9806 8.90625 22.623 8.90625 22.25C8.90625 21.877 8.75809 21.5194 8.49437 21.2556C8.23065 20.9919 7.87296 20.8438 7.5 20.8438ZM10.7812 22.25C10.7812 21.877 10.9294 21.5194 11.1931 21.2556C11.4569 20.9919 11.8145 20.8438 12.1875 20.8438C12.5605 20.8438 12.9181 20.9919 13.1819 21.2556C13.4456 21.5194 13.5938 21.877 13.5938 22.25C13.5938 22.623 13.4456 22.9806 13.1819 23.2444C12.9181 23.5081 12.5605 23.6562 12.1875 23.6562C11.8145 23.6562 11.4569 23.5081 11.1931 23.2444C10.9294 22.9806 10.7812 22.623 10.7812 22.25ZM16.875 20.8438C16.502 20.8438 16.1444 20.9919 15.8806 21.2556C15.6169 21.5194 15.4688 21.877 15.4688 22.25C15.4688 22.623 15.6169 22.9806 15.8806 23.2444C16.1444 23.5081 16.502 23.6562 16.875 23.6562C17.248 23.6562 17.6056 23.5081 17.8694 23.2444C18.1331 22.9806 18.2812 22.623 18.2812 22.25C18.2812 21.877 18.1331 21.5194 17.8694 21.2556C17.6056 20.9919 17.248 20.8438 16.875 20.8438Z" fill="#FF8F00"/>
<path fill-rule="evenodd" clip-rule="evenodd" d="M33.6903 18.9491C33.4878 18.9832 33.2826 19.0002 33.0769 19C32.4269 19.0008 31.79 18.8296 31.2395 18.5061C30.8426 18.5934 30.4272 18.64 30 18.64C27.2708 18.64 25 16.7344 25 14.32C25 11.9056 27.2708 10 30 10C32.7292 10 35 11.9056 35 14.32C35 15.4763 34.4744 16.5218 33.6287 17.2922C33.5097 17.4006 33.4867 17.4976 33.4985 17.5528C33.5618 17.8514 33.7055 18.1299 33.9159 18.3621C33.9596 18.4103 33.9889 18.4685 34.0009 18.5308C34.0129 18.593 34.0072 18.6571 33.9843 18.7166C33.9614 18.7761 33.9222 18.829 33.8706 18.8698C33.819 18.9106 33.7568 18.938 33.6903 18.9491ZM31.9231 13.78C32.0761 13.78 32.2228 13.8369 32.331 13.9382C32.4392 14.0394 32.5 14.1768 32.5 14.32C32.5 14.4632 32.4392 14.6006 32.331 14.7018C32.2228 14.8031 32.0761 14.86 31.9231 14.86C31.7701 14.86 31.6233 14.8031 31.5151 14.7018C31.4069 14.6006 31.3462 14.4632 31.3462 14.32C31.3462 14.1768 31.4069 14.0394 31.5151 13.9382C31.6233 13.8369 31.7701 13.78 31.9231 13.78ZM30.5769 14.32C30.5769 14.1768 30.5161 14.0394 30.4079 13.9382C30.2998 13.8369 30.153 13.78 30 13.78C29.847 13.78 29.7002 13.8369 29.5921 13.9382C29.4839 14.0394 29.4231 14.1768 29.4231 14.32C29.4231 14.4632 29.4839 14.6006 29.5921 14.7018C29.7002 14.8031 29.847 14.86 30 14.86C30.153 14.86 30.2998 14.8031 30.4079 14.7018C30.5161 14.6006 30.5769 14.4632 30.5769 14.32ZM28.0769 13.78C28.2299 13.78 28.3767 13.8369 28.4849 13.9382C28.5931 14.0394 28.6538 14.1768 28.6538 14.32C28.6538 14.4632 28.5931 14.6006 28.4849 14.7018C28.3767 14.8031 28.2299 14.86 28.0769 14.86C27.9239 14.86 27.7772 14.8031 27.669 14.7018C27.5608 14.6006 27.5 14.4632 27.5 14.32C27.5 14.1768 27.5608 14.0394 27.669 13.9382C27.7772 13.8369 27.9239 13.78 28.0769 13.78Z" fill="#111827"/>
</g>
<defs>
<filter id="filter0_f_885_83936" x="-5" y="13" width="65" height="40" filterUnits="userSpaceOnUse" color-interpolation-filters="sRGB">
<feFlood flood-opacity="0" result="BackgroundImageFix"/>
<feBlend mode="normal" in="SourceGraphic" in2="BackgroundImageFix" result="shape"/>
<feGaussianBlur stdDeviation="4" result="effect1_foregroundBlur_885_83936"/>
</filter>
</defs>
</svg>
