<svg width="45" height="37" viewBox="0 0 45 37" fill="none" xmlns="http://www.w3.org/2000/svg">
<mask id="mask0_1976_9690" style="mask-type:alpha" maskUnits="userSpaceOnUse" x="0" y="0" width="45" height="37">
<rect x="0.75" y="0.5" width="43.5" height="36" fill="#D9D9D9"/>
</mask>
<g mask="url(#mask0_1976_9690)">
<g filter="url(#filter0_f_1976_9690)">
<path d="M3.0006 16.2559C3.0006 18.6197 3.47588 20.9603 4.39932 23.1442C5.32275 25.328 6.67624 27.3123 8.38252 28.9838C10.0888 30.6552 12.1144 31.9811 14.3438 32.8857C16.5732 33.7903 18.9626 34.2559 21.3756 34.2559C23.7886 34.2559 26.1781 33.7903 28.4074 32.8857C30.6368 31.9811 32.6624 30.6552 34.3687 28.9838C36.075 27.3123 37.4285 25.328 38.3519 23.1442C39.2753 20.9603 39.7506 18.6197 39.7506 16.2559L21.3756 16.2559L3.0006 16.2559Z" fill="#6039DB" fill-opacity="0.09"/>
</g>
<rect x="21.7494" y="25.2559" width="10.5" height="10.5" rx="2" fill="#007EBB"/>
<path fill-rule="evenodd" clip-rule="evenodd" d="M30.3398 33.3706H29.065V31.1992C29.065 30.6039 28.8388 30.2712 28.3676 30.2712C27.855 30.2712 27.5871 30.6174 27.5871 31.1992V33.3706H26.3585V29.2342H27.5871V29.7914C27.5871 29.7914 27.9565 29.1078 28.8343 29.1078C29.7117 29.1078 30.3398 29.6436 30.3398 30.7517V33.3706ZM24.8928 28.6926C24.4744 28.6926 24.1353 28.3508 24.1353 27.9293C24.1353 27.5078 24.4744 27.166 24.8928 27.166C25.3113 27.166 25.6502 27.5078 25.6502 27.9293C25.6502 28.3508 25.3113 28.6926 24.8928 28.6926ZM24.2585 33.3706H25.5396V29.2342H24.2585V33.3706Z" fill="white"/>
<path d="M9.75 21.5039C11.2463 21.5038 12.7001 21.0068 13.8833 20.0909C15.0665 19.175 15.9119 17.8921 16.287 16.4437M9.75 21.5039C8.25376 21.5038 6.79991 21.0068 5.61673 20.0909C4.43356 19.175 3.58806 17.8921 3.213 16.4437M9.75 21.5039C11.6138 21.5039 13.125 18.4814 13.125 14.7539C13.125 11.0264 11.6138 8.00391 9.75 8.00391M9.75 21.5039C7.88625 21.5039 6.375 18.4814 6.375 14.7539C6.375 11.0264 7.88625 8.00391 9.75 8.00391M16.287 16.4437C16.4258 15.9037 16.5 15.3374 16.5 14.7539C16.5019 13.593 16.2029 12.4514 15.6323 11.4404M16.287 16.4437C14.2869 17.5524 12.0369 18.1325 9.75 18.1289C7.3785 18.1289 5.15025 17.5177 3.213 16.4437M3.213 16.4437C3.07106 15.8916 2.9995 15.3239 3 14.7539C3 13.5502 3.315 12.4192 3.86775 11.4404M9.75 8.00391C10.9472 8.00341 12.1229 8.32142 13.1566 8.92533C14.1904 9.52923 15.0448 10.3973 15.6323 11.4404M9.75 8.00391C8.55282 8.00341 7.37706 8.32142 6.34336 8.92533C5.30966 9.52923 4.45523 10.3973 3.86775 11.4404M15.6323 11.4404C13.9993 12.8549 11.9104 13.632 9.75 13.6289C7.5015 13.6289 5.445 12.8039 3.86775 11.4404" stroke="#111827" stroke-width="2" stroke-linecap="round" stroke-linejoin="round"/>
</g>
<defs>
<filter id="filter0_f_1976_9690" x="-4.99939" y="8.25586" width="52.75" height="34" filterUnits="userSpaceOnUse" color-interpolation-filters="sRGB">
<feFlood flood-opacity="0" result="BackgroundImageFix"/>
<feBlend mode="normal" in="SourceGraphic" in2="BackgroundImageFix" result="shape"/>
<feGaussianBlur stdDeviation="4" result="effect1_foregroundBlur_1976_9690"/>
</filter>
</defs>
</svg>
