<svg width="44" height="37" viewBox="0 0 44 37" fill="none" xmlns="http://www.w3.org/2000/svg">
<mask id="mask0_1976_9673" style="mask-type:alpha" maskUnits="userSpaceOnUse" x="0" y="0" width="44" height="37">
<rect x="0.25" y="0.5" width="43.5" height="36" fill="#D9D9D9"/>
</mask>
<g mask="url(#mask0_1976_9673)">
<g filter="url(#filter0_f_1976_9673)">
<path d="M2.50133 15.5039C2.50133 17.8677 2.97661 20.2083 3.90004 22.3922C4.82347 24.5761 6.17697 26.5604 7.88324 28.2318C9.58952 29.9033 11.6152 31.2292 13.8445 32.1337C16.0739 33.0383 18.4633 33.5039 20.8763 33.5039C23.2894 33.5039 25.6788 33.0383 27.9081 32.1337C30.1375 31.2292 32.1632 29.9033 33.8694 28.2318C35.5757 26.5604 36.9292 24.5761 37.8526 22.3922C38.7761 20.2084 39.2513 17.8677 39.2513 15.5039L20.8763 15.5039L2.50133 15.5039Z" fill="#6039DB" fill-opacity="0.09"/>
</g>
<path d="M23.5011 32.0039V30.7539C23.5011 28.8683 23.5011 27.9255 24.0869 27.3397C24.6727 26.7539 25.6155 26.7539 27.5011 26.7539H30.0011C31.8867 26.7539 32.8295 26.7539 33.4153 27.3397C34.0011 27.9255 34.0011 28.8683 34.0011 30.7539V32.0039" stroke="#111827" stroke-width="2"/>
<circle cx="34.0011" cy="31.25" r="1.5" fill="#111827"/>
<circle cx="23.5015" cy="31.25" r="1.5" fill="#111827"/>
<path d="M28.7515 23L28.7515 26.75" stroke="#111827" stroke-width="2"/>
<rect x="25.7511" y="20.75" width="6" height="2.95312" rx="1.47656" fill="#111827"/>
<rect x="5.49866" y="9.5" width="12.75" height="12.75" rx="6.375" fill="#6039DB"/>
<path d="M14.1554 17.7776C13.847 17.7776 13.5928 17.6936 13.3928 17.5256C13.1928 17.3576 13.0344 17.1141 12.9177 16.7949C12.726 17.1309 12.4635 17.3954 12.1301 17.5886C11.7967 17.7818 11.4384 17.8784 11.055 17.8784C10.8716 17.8784 10.7091 17.8448 10.5674 17.7776C10.4341 17.7104 10.2632 17.6054 10.0548 17.4626C9.92148 17.3786 9.82146 17.2484 9.75479 17.0721C9.69645 16.8873 9.66728 16.6899 9.66728 16.4799C9.66728 16.2279 9.69228 16.0054 9.74229 15.8122C9.79229 15.619 9.86314 15.409 9.95482 15.1822C10.2049 14.5859 10.5174 14.2079 10.8924 14.0483C11.0925 13.956 11.2467 13.893 11.355 13.8594C11.4634 13.8174 11.58 13.7964 11.7051 13.7964C11.9301 13.7964 12.1551 13.8384 12.3802 13.9224C12.6052 13.998 12.7844 14.1365 12.9177 14.3381C13.0094 14.2205 13.0928 14.1365 13.1678 14.0861C13.2428 14.0358 13.3511 14.0106 13.4928 14.0106C13.6095 14.0106 13.7053 14.0441 13.7804 14.1113C13.8554 14.1785 13.8929 14.2793 13.8929 14.4137C13.8929 14.5313 13.847 14.7455 13.7553 15.0563C13.6553 15.409 13.6053 15.6652 13.6053 15.8248C13.6053 16.1272 13.647 16.3707 13.7303 16.5555C13.822 16.7403 13.9637 16.8327 14.1554 16.8327C14.4138 16.8327 14.5971 16.6857 14.7055 16.3917C14.8222 16.0894 14.8805 15.7282 14.8805 15.3082C14.8805 14.8715 14.8388 14.5229 14.7555 14.2625C14.6721 14.0022 14.5305 13.7418 14.3304 13.4814C14.1554 13.2462 13.8637 13.0614 13.4553 12.9271C13.0553 12.7843 12.651 12.7129 12.2426 12.7129C11.8342 12.7129 11.405 12.8179 10.955 13.0278C10.5049 13.2378 10.1715 13.4604 9.95482 13.6956C9.56309 14.1071 9.31306 14.4977 9.20471 14.8673C9.11303 15.1612 9.04219 15.4258 8.99218 15.661C8.94217 15.8962 8.913 16.1398 8.90467 16.3917C8.90467 16.6521 8.94634 16.9293 9.02969 17.2233C9.11303 17.5088 9.22971 17.7608 9.37974 17.9792C9.48808 18.1304 9.61727 18.2732 9.76729 18.4075C9.91731 18.5335 10.0632 18.6175 10.2049 18.6595L10.5424 18.7477C11.0758 18.8905 11.4259 18.9619 11.5925 18.9619C11.9426 18.9619 12.2551 18.9325 12.5302 18.8737C12.8052 18.8149 13.0636 18.7099 13.3053 18.5587C13.347 18.5335 13.4553 18.4663 13.6303 18.3571C13.8054 18.2396 13.9595 18.1808 14.0929 18.1808C14.4179 18.1808 14.5805 18.3361 14.5805 18.6469C14.5805 18.8317 14.4888 18.9955 14.3054 19.1383C14.1221 19.2727 13.8595 19.4196 13.5178 19.5792C13.2011 19.7304 12.9052 19.827 12.6302 19.869C12.3552 19.911 12.0051 19.932 11.58 19.932C11.28 19.932 10.8299 19.8816 10.2299 19.7808C9.65477 19.5372 9.23388 19.2853 8.96718 19.0249C8.62546 18.7141 8.34626 18.3277 8.12956 17.8658C7.9212 17.3954 7.81702 16.9293 7.81702 16.4673C7.81702 16.1817 7.85035 15.9004 7.91703 15.6232C7.98371 15.346 8.07955 15.0143 8.20457 14.6279C8.38793 14.04 8.76298 13.4688 9.32973 12.9145C9.6131 12.6373 10.0632 12.3853 10.6799 12.1585C11.305 11.9317 11.8593 11.8184 12.3427 11.8184C12.9344 11.8184 13.4428 11.9024 13.8679 12.0703C14.3013 12.2383 14.618 12.4063 14.818 12.5743C15.2264 12.9355 15.5139 13.3386 15.6806 13.7838C15.8473 14.2289 15.9307 14.7581 15.9307 15.3712C15.9307 16.144 15.7806 16.6983 15.4806 17.0343C15.2472 17.2946 15.0305 17.4836 14.8305 17.6012C14.6388 17.7188 14.4138 17.7776 14.1554 17.7776ZM11.8676 16.6941C12.3593 16.3077 12.6052 15.8416 12.6052 15.2956C12.6052 15.1612 12.5218 15.0227 12.3552 14.8799C12.1968 14.7287 12.0259 14.6531 11.8426 14.6531C11.6009 14.6531 11.3884 14.7371 11.205 14.9051C11.0216 15.0731 10.8799 15.2872 10.7799 15.5476C10.6883 15.808 10.6424 16.0684 10.6424 16.3287C10.6424 16.4967 10.6799 16.6479 10.7549 16.7823C10.8299 16.9167 10.9049 16.9881 10.98 16.9965C11.255 17.0049 11.5509 16.9041 11.8676 16.6941Z" fill="white"/>
</g>
<defs>
<filter id="filter0_f_1976_9673" x="-5.49866" y="7.50391" width="52.75" height="34" filterUnits="userSpaceOnUse" color-interpolation-filters="sRGB">
<feFlood flood-opacity="0" result="BackgroundImageFix"/>
<feBlend mode="normal" in="SourceGraphic" in2="BackgroundImageFix" result="shape"/>
<feGaussianBlur stdDeviation="4" result="effect1_foregroundBlur_1976_9673"/>
</filter>
</defs>
</svg>
