<svg width="58" height="48" viewBox="0 0 58 48" fill="none" xmlns="http://www.w3.org/2000/svg">
<mask id="mask0_885_83948" style="mask-type:alpha" maskUnits="userSpaceOnUse" x="0" y="0" width="58" height="48">
<rect width="58" height="48" fill="#D9D9D9"/>
</mask>
<g mask="url(#mask0_885_83948)">
<g filter="url(#filter0_f_885_83948)">
<path d="M3 21C3 24.1517 3.6337 27.2726 4.86494 30.1844C6.09618 33.0962 7.90084 35.742 10.1759 37.9706C12.4509 40.1992 15.1518 41.967 18.1243 43.1731C21.0967 44.3792 24.2826 45 27.5 45C30.7174 45 33.9033 44.3792 36.8757 43.1731C39.8482 41.967 42.5491 40.1992 44.8241 37.9706C47.0992 35.742 48.9038 33.0962 50.1351 30.1844C51.3663 27.2726 52 24.1517 52 21L27.5 21L3 21Z" fill="#6039DB" fill-opacity="0.09"/>
</g>
<rect x="31" y="36" width="11" height="11" rx="2" fill="#007EBB"/>
<path fill-rule="evenodd" clip-rule="evenodd" d="M40.0002 44.5H38.6647V42.2253C38.6647 41.6016 38.4277 41.2531 37.9341 41.2531C37.3971 41.2531 37.1165 41.6158 37.1165 42.2253V44.5H35.8294V40.1667H37.1165V40.7504C37.1165 40.7504 37.5035 40.0343 38.4231 40.0343C39.3422 40.0343 40.0002 40.5956 40.0002 41.7564V44.5ZM34.2939 39.5993C33.8555 39.5993 33.5002 39.2412 33.5002 38.7996C33.5002 38.358 33.8555 38 34.2939 38C34.7323 38 35.0874 38.358 35.0874 38.7996C35.0874 39.2412 34.7323 39.5993 34.2939 39.5993ZM33.6293 44.5H34.9714V40.1667H33.6293V44.5Z" fill="white"/>
<path d="M9.395 27.9101L9.388 27.9071L9.366 27.8951C9.23729 27.8243 9.10961 27.7516 8.983 27.6771C7.46081 26.7726 6.03827 25.71 4.739 24.5071C2.438 22.3601 0 19.1741 0 15.2501C0 12.3221 2.464 10.0001 5.438 10.0001C6.26475 9.99602 7.08178 10.1784 7.82832 10.5337C8.57486 10.8889 9.2317 11.4079 9.75 12.0521C10.2684 11.4078 10.9254 10.8887 11.6721 10.5335C12.4189 10.1782 13.2361 9.99587 14.063 10.0001C17.036 10.0001 19.5 12.3221 19.5 15.2501C19.5 19.1751 17.062 22.3611 14.761 24.5061C13.4617 25.709 12.0392 26.7716 10.517 27.6761C10.3904 27.7509 10.2627 27.8239 10.134 27.8951L10.112 27.9071L10.105 27.9111L10.102 27.9121C9.99356 27.9695 9.87271 27.9995 9.75 27.9995C9.62729 27.9995 9.50644 27.9695 9.398 27.9121L9.395 27.9101Z" fill="#DA5744"/>
<path d="M19.6907 26.5483V22.0227H20.8349V26.5483H19.6907ZM18 24.8576V23.7134H22.5256V24.8576H18Z" fill="#111827"/>
<path d="M26.6996 21V27.5455H25.3157V22.3136H25.2773L23.7784 23.2532V22.0259L25.3988 21H26.6996Z" fill="#111827"/>
</g>
<defs>
<filter id="filter0_f_885_83948" x="-5" y="13" width="65" height="40" filterUnits="userSpaceOnUse" color-interpolation-filters="sRGB">
<feFlood flood-opacity="0" result="BackgroundImageFix"/>
<feBlend mode="normal" in="SourceGraphic" in2="BackgroundImageFix" result="shape"/>
<feGaussianBlur stdDeviation="4" result="effect1_foregroundBlur_885_83948"/>
</filter>
</defs>
</svg>
