<svg width="58" height="48" viewBox="0 0 58 48" fill="none" xmlns="http://www.w3.org/2000/svg">
<mask id="mask0_885_83923" style="mask-type:alpha" maskUnits="userSpaceOnUse" x="0" y="0" width="58" height="48">
<rect width="58" height="48" fill="#D9D9D9"/>
</mask>
<g mask="url(#mask0_885_83923)">
<g filter="url(#filter0_f_885_83923)">
<path d="M3 20C3 23.1517 3.6337 26.2726 4.86494 29.1844C6.09618 32.0962 7.90084 34.742 10.1759 36.9706C12.4509 39.1992 15.1518 40.967 18.1243 42.1731C21.0967 43.3792 24.2826 44 27.5 44C30.7174 44 33.9033 43.3792 36.8757 42.1731C39.8482 40.967 42.5491 39.1992 44.8241 36.9706C47.0992 34.742 48.9038 32.0962 50.1351 29.1844C51.3663 26.2726 52 23.1517 52 20L27.5 20L3 20Z" fill="#6039DB" fill-opacity="0.09"/>
</g>
<rect x="31" y="35" width="11" height="11" rx="2" fill="#007EBB"/>
<path fill-rule="evenodd" clip-rule="evenodd" d="M40.0002 43.5H38.6647V41.2253C38.6647 40.6016 38.4277 40.2531 37.9341 40.2531C37.3971 40.2531 37.1165 40.6158 37.1165 41.2253V43.5H35.8294V39.1667H37.1165V39.7504C37.1165 39.7504 37.5035 39.0343 38.4231 39.0343C39.3422 39.0343 40.0002 39.5956 40.0002 40.7564V43.5ZM34.2939 38.5993C33.8555 38.5993 33.5002 38.2412 33.5002 37.7996C33.5002 37.358 33.8555 37 34.2939 37C34.7323 37 35.0874 37.358 35.0874 37.7996C35.0874 38.2412 34.7323 38.5993 34.2939 38.5993ZM33.6293 43.5H34.9714V39.1667H33.6293V43.5Z" fill="white"/>
<path d="M3 13.75C3 12.7554 3.39509 11.8016 4.09835 11.0983C4.80161 10.3951 5.75544 10 6.75 10C7.74456 10 8.69839 10.3951 9.40165 11.0983C10.1049 11.8016 10.5 12.7554 10.5 13.75V22C10.5 22.9946 10.1049 23.9484 9.40165 24.6517C8.69839 25.3549 7.74456 25.75 6.75 25.75C5.75544 25.75 4.80161 25.3549 4.09835 24.6517C3.39509 23.9484 3 22.9946 3 22V13.75Z" fill="#F4991E"/>
<path d="M0.75 19.75C0.948912 19.75 1.13968 19.829 1.28033 19.9697C1.42098 20.1103 1.5 20.3011 1.5 20.5V22C1.5 23.3924 2.05312 24.7277 3.03769 25.7123C4.02225 26.6969 5.35761 27.25 6.75 27.25C8.14239 27.25 9.47775 26.6969 10.4623 25.7123C11.4469 24.7277 12 23.3924 12 22V20.5C12 20.3011 12.079 20.1103 12.2197 19.9697C12.3603 19.829 12.5511 19.75 12.75 19.75C12.9489 19.75 13.1397 19.829 13.2803 19.9697C13.421 20.1103 13.5 20.3011 13.5 20.5V22C13.5 23.6604 12.888 25.2626 11.7812 26.5003C10.6743 27.7379 9.15012 28.5243 7.5 28.709V31H10.5C10.6989 31 10.8897 31.079 11.0303 31.2197C11.171 31.3603 11.25 31.5511 11.25 31.75C11.25 31.9489 11.171 32.1397 11.0303 32.2803C10.8897 32.421 10.6989 32.5 10.5 32.5H3C2.80109 32.5 2.61032 32.421 2.46967 32.2803C2.32902 32.1397 2.25 31.9489 2.25 31.75C2.25 31.5511 2.32902 31.3603 2.46967 31.2197C2.61032 31.079 2.80109 31 3 31H6V28.709C4.34988 28.5243 2.82571 27.7379 1.71884 26.5003C0.611961 25.2626 2.41771e-05 23.6604 0 22V20.5C0 20.3011 0.0790175 20.1103 0.21967 19.9697C0.360322 19.829 0.551088 19.75 0.75 19.75Z" fill="#F4991E"/>
</g>
<defs>
<filter id="filter0_f_885_83923" x="-5" y="12" width="65" height="40" filterUnits="userSpaceOnUse" color-interpolation-filters="sRGB">
<feFlood flood-opacity="0" result="BackgroundImageFix"/>
<feBlend mode="normal" in="SourceGraphic" in2="BackgroundImageFix" result="shape"/>
<feGaussianBlur stdDeviation="4" result="effect1_foregroundBlur_885_83923"/>
</filter>
</defs>
</svg>
