<svg width="58" height="48" viewBox="0 0 58 48" fill="none" xmlns="http://www.w3.org/2000/svg">
<mask id="mask0_885_83892" style="mask-type:alpha" maskUnits="userSpaceOnUse" x="0" y="0" width="58" height="48">
<rect width="58" height="48" fill="#D9D9D9"/>
</mask>
<g mask="url(#mask0_885_83892)">
<g filter="url(#filter0_f_885_83892)">
<path d="M3 20C3 23.1517 3.6337 26.2726 4.86494 29.1844C6.09618 32.0962 7.90084 34.742 10.1759 36.9706C12.4509 39.1992 15.1518 40.967 18.1243 42.1731C21.0967 43.3792 24.2826 44 27.5 44C30.7174 44 33.9033 43.3792 36.8757 42.1731C39.8482 40.967 42.5491 39.1992 44.8241 36.9706C47.0992 34.742 48.9038 32.0962 50.1351 29.1844C51.3663 26.2726 52 23.1517 52 20L27.5 20L3 20Z" fill="#6039DB" fill-opacity="0.09"/>
</g>
<rect x="31" y="35" width="11" height="11" rx="2" fill="#007EBB"/>
<path fill-rule="evenodd" clip-rule="evenodd" d="M40.0002 43.5H38.6647V41.2253C38.6647 40.6016 38.4277 40.2531 37.9341 40.2531C37.3971 40.2531 37.1165 40.6158 37.1165 41.2253V43.5H35.8294V39.1667H37.1165V39.7504C37.1165 39.7504 37.5035 39.0343 38.4231 39.0343C39.3422 39.0343 40.0002 39.5956 40.0002 40.7564V43.5ZM34.2939 38.5993C33.8555 38.5993 33.5002 38.2412 33.5002 37.7996C33.5002 37.358 33.8555 37 34.2939 37C34.7323 37 35.0874 37.358 35.0874 37.7996C35.0874 38.2412 34.7323 38.5993 34.2939 38.5993ZM33.6293 43.5H34.9714V39.1667H33.6293V43.5Z" fill="white"/>
<path d="M35.4469 13.8222C35.4469 12.1089 35.4469 11.2522 34.9563 10.6879C34.8952 10.6176 34.8293 10.5517 34.759 10.4906C34.1947 10 33.338 10 31.6247 10L27.8223 10C26.109 10 25.2523 10 24.688 10.4906C24.6177 10.5517 24.5518 10.6176 24.4907 10.6879C24.0001 11.2522 24.0001 12.1089 24.0001 13.8222L24.0001 16.5238C24.0001 17.1427 24.5018 17.6444 25.1207 17.6444C25.4301 17.6444 25.6809 17.8952 25.6809 18.2047L25.6809 18.4813C25.6809 19.1938 26.5145 19.5804 27.0584 19.1201L28.3492 18.028C28.5207 17.8828 28.6065 17.8103 28.7034 17.7593C28.782 17.718 28.8657 17.6873 28.9525 17.6681C29.0593 17.6444 29.1717 17.6444 29.3963 17.6444L31.6247 17.6444C33.338 17.6444 34.1947 17.6444 34.759 17.1538C34.8293 17.0927 34.8952 17.0268 34.9563 16.9565C35.4469 16.3921 35.4469 15.5355 35.4469 13.8222Z" fill="#111827"/>
<rect width="7" height="1" rx="0.5" transform="matrix(-1 0 0 1 33.0001 12)" fill="white"/>
<rect width="5" height="1" rx="0.5" transform="matrix(-1 0 0 1 31.0001 14)" fill="white"/>
<path d="M0 18C0 15.1716 0 13.7574 0.87868 12.8787C1.75736 12 3.17157 12 6 12H16.6383C19.4667 12 20.8809 12 21.7596 12.8787C22.6383 13.7574 22.6383 15.1716 22.6383 18V24.4309C22.6383 25.603 21.6881 26.5532 20.516 26.5532C20.1252 26.5532 19.8085 26.8699 19.8085 27.2606V27.9621C19.8085 28.7078 19.8085 29.0806 19.7024 29.2921C19.4938 29.7082 19.0257 29.9253 18.5733 29.8158C18.3432 29.7602 18.0586 29.5193 17.4895 29.0377L15.1125 27.0264C14.8358 26.7923 14.6974 26.6752 14.5308 26.6142C14.3643 26.5532 14.183 26.5532 13.8206 26.5532H6C3.17157 26.5532 1.75736 26.5532 0.87868 25.6745C0 24.7958 0 23.3816 0 20.5532V18Z" fill="#F4991E"/>
<rect x="3.23401" y="15.2344" width="15.3617" height="1.61702" rx="0.808511" fill="white"/>
<rect x="3.23401" y="19.2773" width="11.3191" height="1.61702" rx="0.808511" fill="white"/>
</g>
<defs>
<filter id="filter0_f_885_83892" x="-5" y="12" width="65" height="40" filterUnits="userSpaceOnUse" color-interpolation-filters="sRGB">
<feFlood flood-opacity="0" result="BackgroundImageFix"/>
<feBlend mode="normal" in="SourceGraphic" in2="BackgroundImageFix" result="shape"/>
<feGaussianBlur stdDeviation="4" result="effect1_foregroundBlur_885_83892"/>
</filter>
</defs>
</svg>
