<svg width="58" height="48" viewBox="0 0 58 48" fill="none" xmlns="http://www.w3.org/2000/svg">
<mask id="mask0_885_83877" style="mask-type:alpha" maskUnits="userSpaceOnUse" x="0" y="0" width="58" height="48">
<rect width="58" height="48" fill="#D9D9D9"/>
</mask>
<g mask="url(#mask0_885_83877)">
<g filter="url(#filter0_f_885_83877)">
<path d="M-1.71655e-06 20C-1.99208e-06 23.1517 0.633703 26.2726 1.86494 29.1844C3.09618 32.0962 4.90084 34.742 7.17588 36.9706C9.45091 39.1992 12.1518 40.967 15.1243 42.1731C18.0967 43.3792 21.2826 44 24.5 44C27.7174 44 30.9033 43.3792 33.8757 42.1731C36.8482 40.967 39.5491 39.1992 41.8241 36.9706C44.0992 34.742 45.9038 32.0962 47.1351 29.1844C48.3663 26.2726 49 23.1517 49 20L24.5 20L-1.71655e-06 20Z" fill="#6039DB" fill-opacity="0.09"/>
</g>
<path d="M19 14V24" stroke="black" stroke-width="2"/>
<path d="M24 18L15 18" stroke="black" stroke-width="2"/>
<rect x="31" y="35" width="11" height="11" rx="2" fill="#007EBB"/>
<path fill-rule="evenodd" clip-rule="evenodd" d="M40.0002 43.5H38.6647V41.2253C38.6647 40.6016 38.4277 40.2531 37.9341 40.2531C37.3971 40.2531 37.1165 40.6158 37.1165 41.2253V43.5H35.8294V39.1667H37.1165V39.7504C37.1165 39.7504 37.5035 39.0343 38.4231 39.0343C39.3422 39.0343 40.0002 39.5956 40.0002 40.7564V43.5ZM34.2939 38.5993C33.8555 38.5993 33.5002 38.2412 33.5002 37.7996C33.5002 37.358 33.8555 37 34.2939 37C34.7323 37 35.0874 37.358 35.0874 37.7996C35.0874 38.2412 34.7323 38.5993 34.2939 38.5993ZM33.6293 43.5H34.9714V39.1667H33.6293V43.5Z" fill="white"/>
<path fill-rule="evenodd" clip-rule="evenodd" d="M13.4998 18.4068C13.4998 20.8406 11.485 22.8135 8.99977 22.8135C6.51449 22.8135 4.49977 20.8406 4.49977 18.4068C4.49977 15.973 6.51449 14 8.99977 14C11.485 14 13.4998 15.973 13.4998 18.4068ZM0 32.1777C0 26.8051 5.99625 24.0986 9 24.0986C12.0037 24.0986 18 26.8051 18 32.1777V32.6974C18 34.5439 16.3478 35.9521 14.5247 35.6596L10.1091 34.951C9.3744 34.8331 8.6256 34.8331 7.89089 34.951L3.47533 35.6596C1.65217 35.9521 0 34.5439 0 32.6974V32.1777Z" fill="#6039DB"/>
</g>
<defs>
<filter id="filter0_f_885_83877" x="-8" y="12" width="65" height="40" filterUnits="userSpaceOnUse" color-interpolation-filters="sRGB">
<feFlood flood-opacity="0" result="BackgroundImageFix"/>
<feBlend mode="normal" in="SourceGraphic" in2="BackgroundImageFix" result="shape"/>
<feGaussianBlur stdDeviation="4" result="effect1_foregroundBlur_885_83877"/>
</filter>
</defs>
</svg>
