<svg width="45" height="37" viewBox="0 0 45 37" fill="none" xmlns="http://www.w3.org/2000/svg">
<mask id="mask0_1976_9731" style="mask-type:alpha" maskUnits="userSpaceOnUse" x="0" y="0" width="45" height="37">
<rect x="0.75" y="0.5" width="43.5" height="36" fill="#D9D9D9"/>
</mask>
<g mask="url(#mask0_1976_9731)">
<g filter="url(#filter0_f_1976_9731)">
<path d="M3 16.25C3 18.6138 3.47528 20.9544 4.39871 23.1383C5.32214 25.3222 6.67563 27.3065 8.38191 28.9779C10.0882 30.6494 12.1138 31.9752 14.3432 32.8798C16.5725 33.7844 18.962 34.25 21.375 34.25C23.788 34.25 26.1774 33.7844 28.4068 32.8798C30.6362 31.9752 32.6618 30.6494 34.3681 28.9779C36.0744 27.3065 37.4279 25.3222 38.3513 23.1383C39.2747 20.9544 39.75 18.6138 39.75 16.25L21.375 16.25L3 16.25Z" fill="#6039DB" fill-opacity="0.09"/>
</g>
<rect x="24" y="27.5" width="8.25" height="8.25" rx="2" fill="#007EBB"/>
<path fill-rule="evenodd" clip-rule="evenodd" d="M30.75 33.875H29.7483V32.1689C29.7483 31.7012 29.5706 31.4398 29.2004 31.4398C28.7976 31.4398 28.5872 31.7118 28.5872 32.1689V33.875H27.6219V30.625H28.5872V31.0628C28.5872 31.0628 28.8774 30.5257 29.5671 30.5257C30.2565 30.5257 30.75 30.9467 30.75 31.8173V33.875ZM26.4703 30.1994C26.1414 30.1994 25.875 29.9309 25.875 29.5997C25.875 29.2685 26.1414 29 26.4703 29C26.7991 29 27.0653 29.2685 27.0653 29.5997C27.0653 29.9309 26.7991 30.1994 26.4703 30.1994ZM25.9718 33.875H26.9784V30.625H25.9718V33.875Z" fill="white"/>
<path fill-rule="evenodd" clip-rule="evenodd" d="M3.14437 26.2287C3.5144 26.2953 3.88966 26.3286 4.26562 26.3281C5.45388 26.3297 6.61836 25.9953 7.62469 25.3634C8.35031 25.5341 9.10969 25.625 9.89062 25.625C14.88 25.625 19.0312 21.9031 19.0312 17.1875C19.0312 12.4719 14.88 8.75 9.89062 8.75C4.90125 8.75 0.75 12.4719 0.75 17.1875C0.75 19.4459 1.71094 21.4878 3.25687 22.9925C3.47437 23.2044 3.51656 23.3938 3.495 23.5016C3.37914 24.0847 3.11649 24.6288 2.73187 25.0822C2.65203 25.1765 2.59843 25.2901 2.57647 25.4117C2.5545 25.5332 2.56496 25.6584 2.60678 25.7747C2.6486 25.8909 2.72031 25.9941 2.81469 26.0738C2.90906 26.1535 3.02278 26.207 3.14437 26.2287ZM6.375 16.1328C6.09528 16.1328 5.82702 16.2439 5.62922 16.4417C5.43143 16.6395 5.32031 16.9078 5.32031 17.1875C5.32031 17.4672 5.43143 17.7355 5.62922 17.9333C5.82702 18.1311 6.09528 18.2422 6.375 18.2422C6.65472 18.2422 6.92298 18.1311 7.12078 17.9333C7.31857 17.7355 7.42969 17.4672 7.42969 17.1875C7.42969 16.9078 7.31857 16.6395 7.12078 16.4417C6.92298 16.2439 6.65472 16.1328 6.375 16.1328ZM8.83594 17.1875C8.83594 16.9078 8.94706 16.6395 9.14485 16.4417C9.34264 16.2439 9.6109 16.1328 9.89062 16.1328C10.1703 16.1328 10.4386 16.2439 10.6364 16.4417C10.8342 16.6395 10.9453 16.9078 10.9453 17.1875C10.9453 17.4672 10.8342 17.7355 10.6364 17.9333C10.4386 18.1311 10.1703 18.2422 9.89062 18.2422C9.6109 18.2422 9.34264 18.1311 9.14485 17.9333C8.94706 17.7355 8.83594 17.4672 8.83594 17.1875ZM13.4062 16.1328C13.1265 16.1328 12.8583 16.2439 12.6605 16.4417C12.4627 16.6395 12.3516 16.9078 12.3516 17.1875C12.3516 17.4672 12.4627 17.7355 12.6605 17.9333C12.8583 18.1311 13.1265 18.2422 13.4062 18.2422C13.686 18.2422 13.9542 18.1311 14.152 17.9333C14.3498 17.7355 14.4609 17.4672 14.4609 17.1875C14.4609 16.9078 14.3498 16.6395 14.152 16.4417C13.9542 16.2439 13.686 16.1328 13.4062 16.1328Z" fill="#FF8F00"/>
<path fill-rule="evenodd" clip-rule="evenodd" d="M26.0177 14.7118C25.8659 14.7374 25.7119 14.7502 25.5577 14.75C25.0702 14.7506 24.5925 14.6222 24.1796 14.3796C23.8819 14.4451 23.5704 14.48 23.25 14.48C21.2031 14.48 19.5 13.0508 19.5 11.24C19.5 9.4292 21.2031 8 23.25 8C25.2969 8 27 9.4292 27 11.24C27 12.1072 26.6058 12.8913 25.9715 13.4691C25.8823 13.5505 25.865 13.6232 25.8738 13.6646C25.9214 13.8885 26.0291 14.0974 26.1869 14.2716C26.2197 14.3078 26.2417 14.3514 26.2507 14.3981C26.2597 14.4448 26.2554 14.4928 26.2382 14.5375C26.2211 14.5821 26.1917 14.6217 26.1529 14.6523C26.1142 14.6829 26.0676 14.7035 26.0177 14.7118ZM24.6923 10.835C24.8071 10.835 24.9171 10.8777 24.9983 10.9536C25.0794 11.0296 25.125 11.1326 25.125 11.24C25.125 11.3474 25.0794 11.4504 24.9983 11.5264C24.9171 11.6023 24.8071 11.645 24.6923 11.645C24.5776 11.645 24.4675 11.6023 24.3863 11.5264C24.3052 11.4504 24.2596 11.3474 24.2596 11.24C24.2596 11.1326 24.3052 11.0296 24.3863 10.9536C24.4675 10.8777 24.5776 10.835 24.6923 10.835ZM23.6827 11.24C23.6827 11.1326 23.6371 11.0296 23.556 10.9536C23.4748 10.8777 23.3648 10.835 23.25 10.835C23.1352 10.835 23.0252 10.8777 22.944 10.9536C22.8629 11.0296 22.8173 11.1326 22.8173 11.24C22.8173 11.3474 22.8629 11.4504 22.944 11.5264C23.0252 11.6023 23.1352 11.645 23.25 11.645C23.3648 11.645 23.4748 11.6023 23.556 11.5264C23.6371 11.4504 23.6827 11.3474 23.6827 11.24ZM21.8077 10.835C21.9224 10.835 22.0325 10.8777 22.1137 10.9536C22.1948 11.0296 22.2404 11.1326 22.2404 11.24C22.2404 11.3474 22.1948 11.4504 22.1137 11.5264C22.0325 11.6023 21.9224 11.645 21.8077 11.645C21.6929 11.645 21.5829 11.6023 21.5017 11.5264C21.4206 11.4504 21.375 11.3474 21.375 11.24C21.375 11.1326 21.4206 11.0296 21.5017 10.9536C21.5829 10.8777 21.6929 10.835 21.8077 10.835Z" fill="#111827"/>
</g>
<defs>
<filter id="filter0_f_1976_9731" x="-5" y="8.25" width="52.75" height="34" filterUnits="userSpaceOnUse" color-interpolation-filters="sRGB">
<feFlood flood-opacity="0" result="BackgroundImageFix"/>
<feBlend mode="normal" in="SourceGraphic" in2="BackgroundImageFix" result="shape"/>
<feGaussianBlur stdDeviation="4" result="effect1_foregroundBlur_1976_9731"/>
</filter>
</defs>
</svg>
