<svg width="58" height="48" viewBox="0 0 58 48" fill="none" xmlns="http://www.w3.org/2000/svg">
<mask id="mask0_885_83910" style="mask-type:alpha" maskUnits="userSpaceOnUse" x="0" y="0" width="58" height="48">
<rect width="58" height="48" fill="#D9D9D9"/>
</mask>
<g mask="url(#mask0_885_83910)">
<g filter="url(#filter0_f_885_83910)">
<path d="M3 20C3 23.1517 3.6337 26.2726 4.86494 29.1844C6.09618 32.0962 7.90084 34.742 10.1759 36.9706C12.4509 39.1992 15.1518 40.967 18.1243 42.1731C21.0967 43.3792 24.2826 44 27.5 44C30.7174 44 33.9033 43.3792 36.8757 42.1731C39.8482 40.967 42.5491 39.1992 44.8241 36.9706C47.0992 34.742 48.9038 32.0962 50.1351 29.1844C51.3663 26.2726 52 23.1517 52 20L27.5 20L3 20Z" fill="#6039DB" fill-opacity="0.09"/>
</g>
<rect x="30" y="34" width="13" height="13" rx="6.5" fill="#111827"/>
<path d="M38.8263 42.4394C38.5119 42.4394 38.2527 42.3537 38.0488 42.1825C37.8448 42.0112 37.6833 41.7628 37.5644 41.4374C37.3689 41.7799 37.1012 42.0497 36.7613 42.2467C36.4214 42.4436 36.056 42.5421 35.6651 42.5421C35.4781 42.5421 35.3124 42.5079 35.168 42.4394C35.032 42.3709 34.8578 42.2638 34.6453 42.1182C34.5094 42.0326 34.4074 41.8998 34.3394 41.72C34.2799 41.5316 34.2502 41.3303 34.2502 41.1162C34.2502 40.8593 34.2757 40.6324 34.3267 40.4354C34.3777 40.2384 34.4499 40.0243 34.5434 39.7931C34.7983 39.1851 35.117 38.7997 35.4994 38.637C35.7033 38.5428 35.8605 38.4786 35.971 38.4443C36.0815 38.4015 36.2005 38.3801 36.3279 38.3801C36.5574 38.3801 36.7868 38.4229 37.0163 38.5085C37.2457 38.5856 37.4284 38.7269 37.5644 38.9325C37.6579 38.8126 37.7428 38.7269 37.8193 38.6755C37.8958 38.6242 38.0063 38.5985 38.1507 38.5985C38.2697 38.5985 38.3674 38.6327 38.4439 38.7012C38.5204 38.7697 38.5586 38.8725 38.5586 39.0095C38.5586 39.1294 38.5119 39.3478 38.4184 39.6647C38.3164 40.0243 38.2655 40.2855 38.2655 40.4483C38.2655 40.7566 38.3079 41.0049 38.3929 41.1933C38.4864 41.3817 38.6309 41.4759 38.8263 41.4759C39.0898 41.4759 39.2767 41.3261 39.3872 41.0263C39.5062 40.718 39.5656 40.3498 39.5656 39.9216C39.5656 39.4763 39.5231 39.1209 39.4382 38.8554C39.3532 38.5899 39.2087 38.3244 39.0048 38.0589C38.8263 37.8191 38.5289 37.6307 38.1125 37.4937C37.7046 37.3481 37.2924 37.2753 36.876 37.2753C36.4596 37.2753 36.022 37.3824 35.5631 37.5965C35.1042 37.8106 34.7643 38.0375 34.5434 38.2773C34.144 38.6969 33.889 39.0952 33.7786 39.472C33.6851 39.7717 33.6128 40.0415 33.5619 40.2813C33.5109 40.5211 33.4811 40.7694 33.4726 41.0263C33.4726 41.2918 33.5151 41.5744 33.6001 41.8742C33.6851 42.1653 33.804 42.4222 33.957 42.6449C34.0675 42.7991 34.1992 42.9446 34.3522 43.0817C34.5051 43.2101 34.6538 43.2958 34.7983 43.3386L35.1425 43.4285C35.6863 43.5741 36.0432 43.6469 36.2132 43.6469C36.5701 43.6469 36.8888 43.6169 37.1692 43.557C37.4497 43.497 37.7131 43.39 37.9595 43.2358C38.002 43.2101 38.1125 43.1416 38.2909 43.0303C38.4694 42.9104 38.6266 42.8504 38.7626 42.8504C39.094 42.8504 39.2597 43.0089 39.2597 43.3257C39.2597 43.5141 39.1662 43.6811 38.9793 43.8267C38.7923 43.9637 38.5246 44.1136 38.1762 44.2763C37.8533 44.4305 37.5516 44.529 37.2712 44.5718C36.9908 44.6146 36.6339 44.636 36.2005 44.636C35.8945 44.636 35.4356 44.5846 34.8238 44.4819C34.2374 44.2335 33.8083 43.9766 33.5364 43.7111C33.1879 43.3942 32.9033 43.0003 32.6823 42.5293C32.4699 42.0497 32.3636 41.5744 32.3636 41.1034C32.3636 40.8122 32.3976 40.5253 32.4656 40.2427C32.5336 39.9601 32.6313 39.6218 32.7588 39.2279C32.9458 38.6284 33.3282 38.0461 33.906 37.4809C34.1949 37.1983 34.6538 36.9413 35.2827 36.7101C35.92 36.4789 36.4851 36.3633 36.978 36.3633C37.5814 36.3633 38.0997 36.4489 38.5331 36.6202C38.975 36.7915 39.298 36.9628 39.5019 37.134C39.9183 37.5023 40.2115 37.9133 40.3814 38.3672C40.5514 38.8211 40.6364 39.3606 40.6364 39.9858C40.6364 40.7737 40.4834 41.3389 40.1775 41.6815C39.9395 41.9469 39.7186 42.1396 39.5146 42.2595C39.3192 42.3794 39.0898 42.4394 38.8263 42.4394ZM36.4936 41.3346C36.995 40.9407 37.2457 40.4654 37.2457 39.9087C37.2457 39.7717 37.1607 39.6304 36.9908 39.4848C36.8293 39.3307 36.6551 39.2536 36.4681 39.2536C36.2217 39.2536 36.005 39.3392 35.8181 39.5105C35.6311 39.6818 35.4866 39.9002 35.3847 40.1657C35.2912 40.4311 35.2444 40.6966 35.2444 40.9621C35.2444 41.1334 35.2827 41.2875 35.3592 41.4245C35.4356 41.5616 35.5121 41.6344 35.5886 41.6429C35.869 41.6515 36.1707 41.5487 36.4936 41.3346Z" fill="white"/>
<rect y="14" width="23" height="16" rx="2" fill="#52B5F9"/>
<path d="M10.943 22.6275C11.2799 22.8533 11.7199 22.8533 12.0568 22.6275L22.193 15.8314C23.0136 15.2812 22.6241 14.0008 21.6361 14.0008H1.36366C0.375614 14.0008 -0.0138837 15.2812 0.806779 15.8314L10.943 22.6275Z" fill="#111827" fill-opacity="0.21"/>
</g>
<defs>
<filter id="filter0_f_885_83910" x="-5" y="12" width="65" height="40" filterUnits="userSpaceOnUse" color-interpolation-filters="sRGB">
<feFlood flood-opacity="0" result="BackgroundImageFix"/>
<feBlend mode="normal" in="SourceGraphic" in2="BackgroundImageFix" result="shape"/>
<feGaussianBlur stdDeviation="4" result="effect1_foregroundBlur_885_83910"/>
</filter>
</defs>
</svg>
