<svg width="154" height="83" viewBox="0 0 154 83" fill="none" xmlns="http://www.w3.org/2000/svg">
<path d="M122 72C122 66.2218 120.849 60.5003 118.613 55.1619C116.376 49.8236 113.098 44.9731 108.966 40.8873C104.834 36.8015 99.9284 33.5605 94.5294 31.3493C89.1304 29.1381 83.3438 28 77.5 28C71.6562 28 65.8696 29.1381 60.4706 31.3493C55.0716 33.5605 50.166 36.8015 46.0337 40.8873C41.9015 44.9731 38.6237 49.8236 36.3874 55.1619C34.151 60.5003 33 66.2218 33 72L77.5 72H122Z" fill="#6039DB"/>
<path d="M82.2217 11.2559L69.7388 24.4323L73.2062 33.4477L78.7542 38.9957L83.6087 37.6087L87.0761 36.9152L94.0111 35.5282L95.3981 34.8347L90.5436 21.6583L82.2217 11.2559Z" fill="white" stroke="black"/>
<path d="M78.4433 39.4711C77.246 40.0298 76.0609 40.6478 74.8945 41.3212L73.6519 42.0386C71.6745 43.1803 69.3246 43.4896 67.1191 42.8987C64.9137 42.3077 63.0333 40.8649 61.8917 38.8875C60.75 36.9101 60.4406 34.5602 61.0316 32.3548C61.6226 30.1493 63.0654 28.2689 65.0428 27.1273L66.2854 26.4099C67.4518 25.7364 68.5796 25.019 69.6621 24.2615M78.4433 39.4711C79.7827 40.8229 81.2207 42.0472 82.7374 43.1398C83.6727 43.8148 83.9942 45.0872 83.4157 46.0861L82.6906 47.3442C82.0819 48.3981 80.715 48.7433 79.7197 48.0411C77.3583 46.3758 75.185 44.4589 73.2379 42.324M78.4433 39.4711C76.3589 37.3646 74.5547 34.9983 73.0752 32.4307C71.5581 29.803 70.4265 27.0587 69.6621 24.2615M78.4433 39.4711C83.8015 36.961 89.5967 35.5171 95.5062 35.2199L78.4433 39.4711ZM69.6621 24.2615C74.515 20.8763 78.663 16.5794 81.8751 11.6103L69.6621 24.2615ZM81.8751 11.6103C81.3192 11.096 80.7504 10.5957 80.1694 10.1098L81.8751 11.6103ZM81.8751 11.6103C84.4537 13.995 86.7491 16.6688 88.7158 19.5788L81.8751 11.6103ZM95.5062 35.2199C95.6742 35.9624 95.8215 36.7035 95.9527 37.4473L95.5062 35.2199ZM95.5062 35.2199C94.7302 31.7944 93.5623 28.4697 92.0255 25.3114L95.5062 35.2199ZM88.7158 19.5788C89.931 19.7896 91.0495 20.5179 91.7144 21.6693C92.3792 22.8208 92.4506 24.1536 92.0255 25.3114M88.7158 19.5788C89.9536 21.4088 91.0596 23.3245 92.0255 25.3114L88.7158 19.5788Z" fill="white"/>
<path d="M78.4433 39.4711C77.246 40.0298 76.0609 40.6478 74.8945 41.3212L73.6519 42.0386C71.6745 43.1803 69.3246 43.4896 67.1191 42.8987C64.9137 42.3077 63.0333 40.8649 61.8917 38.8875C60.75 36.9101 60.4406 34.5602 61.0316 32.3548C61.6226 30.1493 63.0654 28.2689 65.0428 27.1273L66.2854 26.4099C67.4518 25.7364 68.5796 25.019 69.6621 24.2615M78.4433 39.4711C79.7827 40.8229 81.2207 42.0472 82.7374 43.1398C83.6727 43.8148 83.9942 45.0872 83.4157 46.0861L82.6906 47.3442C82.0819 48.3981 80.715 48.7433 79.7197 48.0411C77.3583 46.3758 75.185 44.4589 73.2379 42.324M78.4433 39.4711C76.3589 37.3646 74.5547 34.9983 73.0752 32.4307C71.5581 29.803 70.4265 27.0587 69.6621 24.2615M78.4433 39.4711C83.8015 36.961 89.5967 35.5171 95.5062 35.2199M69.6621 24.2615C74.515 20.8763 78.663 16.5794 81.8751 11.6103M95.5062 35.2199C95.6742 35.9624 95.8215 36.7035 95.9527 37.4473M95.5062 35.2199C94.7302 31.7944 93.5623 28.4697 92.0255 25.3114M81.8751 11.6103C81.3192 11.096 80.7504 10.5957 80.1694 10.1098M81.8751 11.6103C84.4537 13.995 86.7491 16.6688 88.7158 19.5788M88.7158 19.5788C89.931 19.7896 91.0495 20.5179 91.7144 21.6693C92.3792 22.8208 92.4506 24.1536 92.0255 25.3114M88.7158 19.5788C89.9536 21.4088 91.0596 23.3245 92.0255 25.3114" stroke="#111827" stroke-width="2" stroke-linecap="round" stroke-linejoin="round"/>
<rect x="104.29" y="43" width="12" height="13.5" rx="4" transform="rotate(23.0717 104.29 43)" fill="#52B5F9"/>
<path fill-rule="evenodd" clip-rule="evenodd" d="M109.253 50.5257C108.987 51.1501 108.254 51.4361 107.617 51.1645C106.979 50.8929 106.678 50.1666 106.944 49.5422C107.21 48.9178 107.942 48.6318 108.58 48.9034C109.217 49.175 109.519 49.9013 109.253 50.5257ZM104.284 52.5842C104.871 51.2058 106.705 51.1668 107.476 51.495C108.246 51.8232 109.489 53.1728 108.902 54.5511C108.67 55.0948 108.007 55.3022 107.507 54.9874L106.83 54.561C106.485 54.344 106.108 54.1834 105.713 54.0852L104.936 53.8921C104.362 53.7496 104.053 53.1278 104.284 52.5842Z" fill="#111827"/>
<rect x="38" y="38" width="12" height="13.5" rx="4" transform="rotate(-30 38 38)" fill="#F4991E"/>
<path fill-rule="evenodd" clip-rule="evenodd" d="M46.9971 38.555C47.3364 39.1427 47.125 39.9001 46.5248 40.2466C45.9246 40.5931 45.163 40.3976 44.8237 39.8098C44.4843 39.2221 44.6958 38.4647 45.296 38.1182C45.8961 37.7717 46.6578 37.9673 46.9971 38.555ZM45.6574 43.7636C44.9084 42.4661 45.979 40.9765 46.7044 40.5577C47.4298 40.1389 49.2552 39.9565 50.0043 41.2539C50.2997 41.7657 50.0671 42.4203 49.515 42.631L48.7672 42.9163C48.3866 43.0615 48.0316 43.2665 47.7156 43.5234L47.0946 44.0284C46.6361 44.4012 45.9529 44.2753 45.6574 43.7636Z" fill="#111827"/>
<line x1="12" y1="72" x2="142" y2="72" stroke="#111827" stroke-width="2"/>
<circle cx="111" cy="34" r="1" fill="#6039DB"/>
<circle cx="34.5" cy="51.5" r="1.5" fill="#6039DB"/>
<circle cx="36.5" cy="37.5" r="2.5" fill="#6039DB"/>
<circle cx="96" cy="24" r="1" fill="#6039DB"/>
<circle cx="51" cy="22" r="1" fill="#6039DB"/>
<circle cx="121.5" cy="51.5" r="3.5" fill="#6039DB"/>
</svg>
