<svg width="154" height="83" viewBox="0 0 154 83" fill="none" xmlns="http://www.w3.org/2000/svg">
<g filter="url(#filter0_d_711_3059)">
<path d="M122 72C122 66.2218 120.849 60.5003 118.613 55.1619C116.376 49.8236 113.098 44.9731 108.966 40.8873C104.834 36.8015 99.9284 33.5605 94.5294 31.3493C89.1304 29.1381 83.3438 28 77.5 28C71.6562 28 65.8696 29.1381 60.4706 31.3493C55.0716 33.5605 50.166 36.8015 46.0337 40.8873C41.9015 44.9731 38.6237 49.8236 36.3874 55.1619C34.151 60.5003 33 66.2218 33 72L77.5 72H122Z" fill="#6039DB"/>
<rect x="62" y="14" width="28" height="40" rx="5" fill="white" stroke="#111827" stroke-width="2"/>
<path fill-rule="evenodd" clip-rule="evenodd" d="M78.7129 25.5177C78.7129 26.9081 77.5618 28.0353 76.142 28.0353C74.7221 28.0353 73.571 26.9081 73.571 25.5177C73.571 24.1272 74.7221 23 76.142 23C77.5618 23 78.7129 24.1272 78.7129 25.5177ZM71 33.3855C71 30.316 74.4258 28.7698 76.1419 28.7698C77.858 28.7698 81.2837 30.316 81.2837 33.3855C81.2837 34.5962 80.2004 35.5195 79.005 35.3277L77.251 35.0462C76.5163 34.9283 75.7675 34.9283 75.0328 35.0462L73.2787 35.3277C72.0833 35.5195 71 34.5962 71 33.3855Z" fill="#111827"/>
<rect x="59" y="25" width="6" height="2" fill="#111827"/>
<rect x="59" y="41" width="6" height="2" fill="#111827"/>
<rect x="70" y="39" width="13" height="2" fill="#111827"/>
<rect x="72" y="43" width="9" height="2" fill="#111827"/>
<rect x="89.2904" y="31" width="12" height="13.5" rx="4" transform="rotate(23.0717 89.2904 31)" fill="#52B5F9"/>
<path fill-rule="evenodd" clip-rule="evenodd" d="M94.2527 38.5257C93.9867 39.1501 93.2543 39.4361 92.6167 39.1645C91.9791 38.8929 91.6778 38.1666 91.9438 37.5422C92.2097 36.9178 92.9422 36.6318 93.5798 36.9034C94.2174 37.175 94.5186 37.9013 94.2527 38.5257ZM89.2841 40.5842C89.8712 39.2058 91.7053 39.1668 92.4759 39.495C93.2465 39.8232 94.4891 41.1728 93.902 42.5511C93.6704 43.0948 93.0073 43.3022 92.5072 42.9874L91.8299 42.561C91.4851 42.344 91.108 42.1834 90.7127 42.0852L89.9359 41.8921C89.3624 41.7496 89.0526 41.1278 89.2841 40.5842Z" fill="#111827"/>
<rect x="53" y="43" width="12" height="13.5" rx="4" transform="rotate(-30 53 43)" fill="#F4991E"/>
<path fill-rule="evenodd" clip-rule="evenodd" d="M61.9971 43.555C62.3364 44.1427 62.125 44.9001 61.5248 45.2466C60.9246 45.5931 60.163 45.3976 59.8237 44.8098C59.4843 44.2221 59.6958 43.4647 60.296 43.1182C60.8961 42.7717 61.6578 42.9673 61.9971 43.555ZM60.6574 48.7636C59.9084 47.4661 60.979 45.9765 61.7044 45.5577C62.4298 45.1389 64.2552 44.9565 65.0043 46.2539C65.2997 46.7657 65.0671 47.4203 64.515 47.631L63.7672 47.9163C63.3866 48.0615 63.0316 48.2665 62.7156 48.5234L62.0946 49.0284C61.6361 49.4012 60.9529 49.2753 60.6574 48.7636Z" fill="#111827"/>
<line x1="12" y1="72" x2="142" y2="72" stroke="#111827" stroke-width="2"/>
<circle cx="111" cy="34" r="1" fill="#6039DB"/>
<circle cx="34.5" cy="51.5" r="1.5" fill="#6039DB"/>
<circle cx="36.5" cy="37.5" r="2.5" fill="#6039DB"/>
<circle cx="96" cy="24" r="1" fill="#6039DB"/>
<circle cx="51" cy="22" r="1" fill="#6039DB"/>
<circle cx="121.5" cy="51.5" r="3.5" fill="#6039DB"/>
</g>
<defs>
<filter id="filter0_d_711_3059" x="8" y="13" width="138" height="68" filterUnits="userSpaceOnUse" color-interpolation-filters="sRGB">
<feFlood flood-opacity="0" result="BackgroundImageFix"/>
<feColorMatrix in="SourceAlpha" type="matrix" values="0 0 0 0 0 0 0 0 0 0 0 0 0 0 0 0 0 0 127 0" result="hardAlpha"/>
<feOffset dy="4"/>
<feGaussianBlur stdDeviation="2"/>
<feComposite in2="hardAlpha" operator="out"/>
<feColorMatrix type="matrix" values="0 0 0 0 0 0 0 0 0 0 0 0 0 0 0 0 0 0 0.25 0"/>
<feBlend mode="normal" in2="BackgroundImageFix" result="effect1_dropShadow_711_3059"/>
<feBlend mode="normal" in="SourceGraphic" in2="effect1_dropShadow_711_3059" result="shape"/>
</filter>
</defs>
</svg>
