<svg width="154" height="83" viewBox="0 0 154 83" fill="none" xmlns="http://www.w3.org/2000/svg">
<path d="M122 72C122 66.2218 120.849 60.5002 118.613 55.1619C116.376 49.8236 113.098 44.9731 108.966 40.8873C104.834 36.8015 99.9284 33.5605 94.5294 31.3493C89.1304 29.1381 83.3438 28 77.5 28C71.6562 28 65.8696 29.1381 60.4706 31.3493C55.0716 33.5605 50.166 36.8015 46.0337 40.8873C41.9015 44.9731 38.6237 49.8236 36.3874 55.1619C34.151 60.5003 33 66.2218 33 72L77.5 72H122Z" fill="#6039DB" fill-opacity="0.1"/>
<line x1="12" y1="72" x2="142" y2="72" stroke="#111827" stroke-width="2"/>
<path d="M68.4897 14.5259C69.7192 13.1927 70.1485 12.7562 70.6792 12.5236C71.21 12.2911 71.822 12.2715 73.6355 12.2715H78.625H83.1818C85.0957 12.2715 86.4305 12.2736 87.4376 12.409C88.416 12.5406 88.9341 12.7811 89.3031 13.1502C89.6721 13.5192 89.9127 14.0373 90.0443 15.0156C90.1797 16.0228 90.1818 17.3576 90.1818 19.2715V46.1124C90.1818 48.0263 90.1797 49.3611 90.0443 50.3682C89.9127 51.3466 89.6721 51.8647 89.3031 52.2337C88.9341 52.6027 88.416 52.8433 87.4376 52.9749C86.4305 53.1103 85.0957 53.1124 83.1818 53.1124H69.6363C67.7225 53.1124 66.3876 53.1103 65.3805 52.9749C64.4021 52.8433 63.884 52.6027 63.515 52.2337C63.146 51.8647 62.9054 51.3466 62.7739 50.3682C62.6385 49.3611 62.6364 48.0263 62.6364 46.1124V29.6931V23.608C62.6364 21.9871 62.6523 21.4392 62.8421 20.9534C63.0319 20.4676 63.3916 20.054 64.4905 18.8624L68.4897 14.5259Z" fill="white" stroke="#111827" stroke-width="2"/>
<rect x="47.4546" y="26.6348" width="37.2273" height="19.5" rx="4" fill="#52B5F9"/>
<path d="M61.1324 34.9778H59.4003C59.3509 34.7198 59.2598 34.4912 59.127 34.2921C58.9943 34.0902 58.8291 33.9191 58.6315 33.7789C58.4339 33.6386 58.2085 33.5335 57.9553 33.4634C57.7052 33.3904 57.4351 33.354 57.1448 33.354C56.6292 33.354 56.1722 33.4718 55.7739 33.7073C55.3756 33.9401 55.0638 34.2823 54.8384 34.7338C54.613 35.1825 54.5003 35.7308 54.5003 36.3786C54.5003 37.0377 54.613 37.593 54.8384 38.0445C55.0669 38.4932 55.3787 38.8326 55.7739 39.0625C56.1722 39.2897 56.6277 39.4033 57.1402 39.4033C57.4242 39.4033 57.6898 39.3696 57.9368 39.3023C58.1869 39.2322 58.4107 39.1299 58.6083 38.9952C58.809 38.8606 58.9773 38.6952 59.1131 38.4988C59.2521 38.3025 59.3478 38.0782 59.4003 37.8258L61.1324 37.8342C61.0676 38.2436 60.9271 38.6278 60.711 38.9868C60.4979 39.3458 60.2185 39.6627 59.8727 39.9375C59.5269 40.2096 59.1224 40.4227 58.6593 40.577C58.1961 40.7284 57.6821 40.8041 57.117 40.8041C56.2834 40.8041 55.5393 40.6289 54.8847 40.2783C54.2302 39.9277 53.7145 39.4215 53.3379 38.7597C52.9612 38.0978 52.7728 37.3041 52.7728 36.3786C52.7728 35.4503 52.9627 34.6567 53.3425 33.9976C53.7223 33.3357 54.2394 32.8295 54.894 32.479C55.5486 32.1284 56.2896 31.9531 57.117 31.9531C57.645 31.9531 58.1359 32.0204 58.5898 32.155C59.0437 32.2897 59.4481 32.4874 59.8032 32.7482C60.1583 33.0062 60.4501 33.3231 60.6785 33.6989C60.9101 34.0719 61.0614 34.4982 61.1324 34.9778Z" fill="white"/>
<path d="M67.8606 34.4393C67.8174 34.0719 67.6352 33.7859 67.3141 33.5811C66.9961 33.3764 66.5824 33.274 66.0729 33.274C65.7148 33.274 65.4075 33.3231 65.1513 33.4213C64.895 33.5194 64.6989 33.6527 64.5631 33.8209C64.4272 33.9892 64.3578 34.1813 64.3547 34.3973C64.3547 34.5767 64.3995 34.7324 64.489 34.8642C64.5816 34.996 64.7067 35.1082 64.8641 35.2007C65.0216 35.2905 65.196 35.3662 65.3875 35.4279C65.5789 35.4896 65.7719 35.5415 65.9664 35.5836L66.8556 35.7855C67.2138 35.8612 67.558 35.9636 67.8884 36.0926C68.2219 36.2216 68.5198 36.3842 68.7823 36.5806C69.0478 36.7769 69.2577 37.0139 69.4121 37.2915C69.5665 37.5691 69.6437 37.8945 69.6437 38.2675C69.6437 38.7723 69.5017 39.2168 69.2176 39.601C68.9335 39.9824 68.5229 40.2811 67.9857 40.497C67.4515 40.7102 66.8047 40.8168 66.0451 40.8168C65.3072 40.8168 64.6665 40.713 64.1231 40.5055C63.5828 40.2979 63.1598 39.995 62.8541 39.5968C62.5515 39.1986 62.3879 38.7134 62.3632 38.1413H64.0536C64.0783 38.4413 64.1802 38.6909 64.3593 38.8901C64.5384 39.0892 64.7715 39.2378 65.0586 39.336C65.3489 39.4341 65.6731 39.4832 66.0312 39.4832C66.4048 39.4832 66.7321 39.4327 67.0131 39.3318C67.2971 39.228 67.5194 39.085 67.68 38.9027C67.8405 38.7176 67.9224 38.5016 67.9255 38.2548C67.9224 38.0305 67.8498 37.8454 67.7078 37.6996C67.5658 37.5509 67.3666 37.4275 67.1103 37.3294C66.8572 37.2284 66.5607 37.1387 66.2211 37.0601L65.142 36.8077C64.3609 36.6254 63.7433 36.3492 63.2895 35.979C62.8387 35.606 62.6133 35.111 62.6133 34.494C62.6133 33.9864 62.7646 33.5419 63.0672 33.1605C63.3728 32.7791 63.7881 32.4832 64.313 32.2728C64.8379 32.0597 65.4322 31.9531 66.0961 31.9531C66.7692 31.9531 67.3589 32.0597 67.8652 32.2728C68.3747 32.4832 68.7745 32.7762 69.0648 33.1521C69.355 33.525 69.5047 33.9541 69.514 34.4393H67.8606Z" fill="white"/>
<path d="M72.4445 32.0709L74.913 38.8522H75.0103L77.4741 32.0709H79.3637L76.0199 40.6864H73.8987L70.5595 32.0709H72.4445Z" fill="white"/>
<circle cx="89.7046" cy="51.1578" r="7.38636" fill="white"/>
<path d="M89.7047 53.9284V48.3887M89.7047 48.3887L87.2118 50.8816M89.7047 48.3887L92.1976 50.8816" stroke="#6039DB" stroke-linecap="round" stroke-linejoin="round"/>
<circle cx="112" cy="34" r="1" fill="#6039DB" fill-opacity="0.1"/>
<circle cx="34.5" cy="51.5" r="1.5" fill="#6039DB" fill-opacity="0.1"/>
<circle cx="36.5" cy="37.5" r="2.5" fill="#6039DB" fill-opacity="0.1"/>
<circle cx="97" cy="25" r="1" fill="#6039DB" fill-opacity="0.1"/>
<circle cx="54" cy="23" r="1" fill="#6039DB" fill-opacity="0.1"/>
<circle cx="121.5" cy="50.5" r="3.5" fill="#6039DB" fill-opacity="0.1"/>
</svg>
