<svg width="36" height="36" viewBox="0 0 36 36" fill="none" xmlns="http://www.w3.org/2000/svg">
<rect width="36" height="36" rx="12" fill="#52B5F9" fill-opacity="0.4"/>
<path d="M18 26.25C19.8288 26.2499 21.6057 25.6424 23.0518 24.523C24.4979 23.4036 25.5313 21.8356 25.9897 20.0653M18 26.25C16.1713 26.2499 14.3943 25.6424 12.9482 24.523C11.5021 23.4036 10.4687 21.8356 10.0103 20.0653M18 26.25C20.2779 26.25 22.125 22.5558 22.125 18C22.125 13.4442 20.2779 9.75 18 9.75M18 26.25C15.7221 26.25 13.875 22.5558 13.875 18C13.875 13.4442 15.7221 9.75 18 9.75M25.9897 20.0653C26.1593 19.4053 26.25 18.7132 26.25 18C26.2523 16.5811 25.8869 15.1858 25.1894 13.9502M25.9897 20.0653C23.5451 21.4204 20.7951 22.1294 18 22.125C15.1015 22.125 12.3781 21.3779 10.0103 20.0653M10.0103 20.0653C9.83685 19.3906 9.74938 18.6966 9.75 18C9.75 16.5288 10.135 15.1464 10.8106 13.9502M18 9.75C19.4632 9.74939 20.9003 10.1381 22.1637 10.8762C23.4271 11.6143 24.4714 12.6752 25.1894 13.9502M18 9.75C16.5368 9.74939 15.0997 10.1381 13.8363 10.8762C12.5729 11.6143 11.5286 12.6752 10.8106 13.9502M25.1894 13.9502C23.1935 15.6789 20.6405 16.6288 18 16.625C15.2518 16.625 12.7383 15.6167 10.8106 13.9502" stroke="#111827" stroke-width="1.5" stroke-linecap="round" stroke-linejoin="round"/>
</svg>
