<svg width="16" height="17" viewBox="0 0 16 17" fill="none" xmlns="http://www.w3.org/2000/svg">
<path d="M8 10.5C8.53043 10.5 9.03914 10.2893 9.41421 9.91421C9.78929 9.53914 10 9.03043 10 8.5C10 7.96957 9.78929 7.46086 9.41421 7.08579C9.03914 6.71071 8.53043 6.5 8 6.5C7.46957 6.5 6.96086 6.71071 6.58579 7.08579C6.21071 7.46086 6 7.96957 6 8.5C6 9.03043 6.21071 9.53914 6.58579 9.91421C6.96086 10.2893 7.46957 10.5 8 10.5Z" fill="#495568"/>
<path fill-rule="evenodd" clip-rule="evenodd" d="M0.881725 8.13133C1.87373 5.15067 4.68506 3 8.00039 3C11.3137 3 14.1237 5.14867 15.1171 8.12667C15.1971 8.368 15.1971 8.628 15.1171 8.86867C14.1257 11.8493 11.3137 14 7.99906 14C4.68572 14 1.87506 11.8513 0.882392 8.87333C0.802224 8.6325 0.802224 8.37217 0.882392 8.13133H0.881725ZM11.4997 8.5C11.4997 9.42826 11.131 10.3185 10.4746 10.9749C9.81822 11.6313 8.92798 12 7.99972 12C7.07147 12 6.18123 11.6313 5.52485 10.9749C4.86847 10.3185 4.49973 9.42826 4.49973 8.5C4.49973 7.57174 4.86847 6.6815 5.52485 6.02513C6.18123 5.36875 7.07147 5 7.99972 5C8.92798 5 9.81822 5.36875 10.4746 6.02513C11.131 6.6815 11.4997 7.57174 11.4997 8.5Z" fill="#495568"/>
</svg>
