<svg width="154" height="44" viewBox="0 0 154 44" fill="none" xmlns="http://www.w3.org/2000/svg">
<path d="M3.93641 8.66369C2.95106 9.63128 2.67989 10.7421 3.13105 12.0481L6.57761 22.0733L9.77029 18.9008L7.56642 12.3257L14.1186 14.5808L17.3113 11.4083L7.33889 7.89288C6.92464 7.74733 6.52621 7.66861 6.1513 7.67156C5.34139 7.67048 4.60294 7.9888 3.93641 8.66369Z" fill="url(#paint0_linear_119_3059)" style=""/>
<path d="M3.93641 8.66369C2.95106 9.63128 2.67989 10.7421 3.13105 12.0481L6.57761 22.0733L9.77029 18.9008L7.56642 12.3257L14.1186 14.5808L17.3113 11.4083L7.33889 7.89288C6.92464 7.74733 6.52621 7.66861 6.1513 7.67156C5.34139 7.67048 4.60294 7.9888 3.93641 8.66369Z" fill="url(#paint1_linear_119_3059)" style=""/>
<path d="M30.2934 7.61836L20.1758 11.0466L23.4153 14.2164L30.0382 12.0568L27.7444 18.5543L30.9501 21.727L34.5157 11.8055C34.9714 10.5097 34.6946 9.39636 33.7071 8.42153C33.0528 7.75442 32.3176 7.42312 31.4754 7.4215C31.1011 7.42078 30.7081 7.49755 30.2934 7.61836Z" fill="url(#paint2_linear_119_3059)" style=""/>
<path d="M30.2934 7.61836L20.1758 11.0466L23.4153 14.2164L30.0382 12.0568L27.7444 18.5543L30.9501 21.727L34.5157 11.8055C34.9714 10.5097 34.6946 9.39636 33.7071 8.42153C33.0528 7.75442 32.3176 7.42312 31.4754 7.4215C31.1011 7.42078 30.7081 7.49755 30.2934 7.61836Z" fill="url(#paint3_linear_119_3059)" style=""/>
<path d="M28.1427 27.7226L30.315 34.2778L23.7736 32.0614L20.5651 35.2417L30.5209 38.7084C31.8228 39.168 32.9496 38.8847 33.9314 37.9388C34.932 36.964 35.2016 35.8513 34.7539 34.5481L31.3511 24.5423L28.1427 27.7226Z" fill="url(#paint4_linear_119_3059)" style=""/>
<path d="M28.1427 27.7226L30.315 34.2778L23.7736 32.0614L20.5651 35.2417L30.5209 38.7084C31.8228 39.168 32.9496 38.8847 33.9314 37.9388C34.932 36.964 35.2016 35.8513 34.7539 34.5481L31.3511 24.5423L28.1427 27.7226Z" fill="url(#paint5_linear_119_3059)" style=""/>
<path d="M3.3805 34.8062C2.91599 36.103 3.19341 37.2164 4.1802 38.1585C5.13534 39.1347 6.27119 39.4154 7.60796 38.9562L17.7187 35.5685L14.4684 32.3938L7.85664 34.5668L10.1457 28.073L6.93942 24.8965L3.3805 34.8062Z" fill="url(#paint6_linear_119_3059)" style=""/>
<path d="M3.3805 34.8062C2.91599 36.103 3.19341 37.2164 4.1802 38.1585C5.13534 39.1347 6.27119 39.4154 7.60796 38.9562L17.7187 35.5685L14.4684 32.3938L7.85664 34.5668L10.1457 28.073L6.93942 24.8965L3.3805 34.8062Z" fill="url(#paint7_linear_119_3059)" style=""/>
<path d="M55.4684 36.65C54.1791 36.65 53.0736 36.4725 52.1517 36.1175C51.2362 35.7687 50.5074 35.2922 49.9656 34.6881C49.4237 34.0839 49.0718 33.405 48.9099 32.6514L52.5909 32.1562C52.703 32.4427 52.8805 32.7106 53.1234 32.9597C53.3663 33.2088 53.6871 33.4082 54.0857 33.5576C54.4905 33.7133 54.9826 33.7912 55.5618 33.7912C56.4276 33.7912 57.1407 33.5794 57.7013 33.1559C58.2681 32.7386 58.5514 32.0379 58.5514 31.0538V28.4285H58.3833C58.2089 28.8272 57.9473 29.204 57.5985 29.559C57.2497 29.914 56.8013 30.2036 56.2532 30.4279C55.7051 30.6521 55.0511 30.7642 54.2912 30.7642C53.2137 30.7642 52.2327 30.5151 51.3483 30.0168C50.4701 29.5123 49.7694 28.7431 49.2462 27.7092C48.7292 26.669 48.4708 25.3548 48.4708 23.7666C48.4708 22.1409 48.7355 20.7832 49.2649 19.6932C49.7943 18.6032 50.4981 17.7873 51.3763 17.2454C52.2607 16.7035 53.2293 16.4326 54.2819 16.4326C55.0853 16.4326 55.758 16.5696 56.2999 16.8437C56.8417 17.1115 57.2777 17.4478 57.6078 17.8527C57.9442 18.2513 58.2027 18.6437 58.3833 19.0299H58.5328V16.6195H62.4847V31.1099C62.4847 32.3306 62.1857 33.3521 61.5878 34.1742C60.9899 34.9964 60.1615 35.613 59.1027 36.0241C58.0501 36.4414 56.8386 36.65 55.4684 36.65ZM55.5525 27.7745C56.194 27.7745 56.7359 27.6157 57.1781 27.2981C57.6265 26.9742 57.9691 26.5133 58.2058 25.9154C58.4487 25.3112 58.5701 24.5887 58.5701 23.7479C58.5701 22.907 58.4518 22.1783 58.2151 21.5617C57.9784 20.9389 57.6359 20.4562 57.1874 20.1136C56.739 19.771 56.194 19.5998 55.5525 19.5998C54.8985 19.5998 54.3473 19.7773 53.8988 20.1323C53.4504 20.4811 53.1109 20.9669 52.8805 21.5897C52.65 22.2126 52.5348 22.932 52.5348 23.7479C52.5348 24.5763 52.65 25.2925 52.8805 25.8967C53.1172 26.4946 53.4566 26.9586 53.8988 27.2887C54.3473 27.6126 54.8985 27.7745 55.5525 27.7745ZM70.8762 31.25C69.4001 31.25 68.1295 30.951 67.0644 30.3531C66.0056 29.749 65.1897 28.8957 64.6167 27.7932C64.0437 26.6846 63.7572 25.3735 63.7572 23.86C63.7572 22.3839 64.0437 21.0883 64.6167 19.9735C65.1897 18.8586 65.9963 17.9897 67.0364 17.3669C68.0828 16.744 69.3098 16.4326 70.7174 16.4326C71.6641 16.4326 72.5455 16.5852 73.3614 16.8904C74.1835 17.1894 74.8998 17.6409 75.5102 18.2451C76.1268 18.8492 76.6064 19.6091 76.9489 20.5247C77.2915 21.434 77.4628 22.4991 77.4628 23.7198V24.8129H65.3454V22.3465H73.7164C73.7164 21.7735 73.5918 21.2659 73.3427 20.8236C73.0936 20.3814 72.7479 20.0357 72.3057 19.7866C71.8697 19.5312 71.3621 19.4036 70.7828 19.4036C70.1787 19.4036 69.643 19.5437 69.1759 19.824C68.715 20.098 68.3537 20.4686 68.0921 20.9357C67.8305 21.3967 67.6966 21.9105 67.6904 22.4773V24.8223C67.6904 25.5323 67.8212 26.1458 68.0828 26.6628C68.3506 27.1797 68.7274 27.5784 69.2132 27.8586C69.6991 28.1389 70.2752 28.2791 70.9416 28.2791C71.3839 28.2791 71.7887 28.2168 72.1562 28.0922C72.5237 27.9676 72.8382 27.7808 73.0998 27.5316C73.3614 27.2825 73.5607 26.9773 73.6977 26.6161L77.3787 26.859C77.1919 27.7434 76.8088 28.5157 76.2296 29.1759C75.6565 29.8299 74.9154 30.3407 74.006 30.7081C73.1029 31.0694 72.0596 31.25 70.8762 31.25ZM82.7246 22.6735V30.9697H78.7446V16.6195H82.5377V19.1513H82.7059C83.0235 18.3167 83.556 17.6565 84.3035 17.1707C85.0509 16.6786 85.9571 16.4326 87.0222 16.4326C88.0187 16.4326 88.8876 16.6506 89.6288 17.0866C90.3699 17.5226 90.9461 18.1454 91.3571 18.9551C91.7682 19.7586 91.9738 20.7178 91.9738 21.8326V30.9697H87.9938V22.5427C88 21.6645 87.7758 20.9793 87.3211 20.4873C86.8665 19.989 86.2405 19.7399 85.4433 19.7399C84.9076 19.7399 84.4343 19.8551 84.0232 20.0856C83.6183 20.316 83.3007 20.6524 83.0702 21.0946C82.846 21.5306 82.7308 22.0569 82.7246 22.6735ZM93.7951 30.9697V16.6195H97.7751V30.9697H93.7951ZM95.7944 14.7696C95.2027 14.7696 94.6951 14.5734 94.2716 14.181C93.8543 13.7824 93.6456 13.3059 93.6456 12.7516C93.6456 12.2035 93.8543 11.7333 94.2716 11.3409C94.6951 10.9423 95.2027 10.7429 95.7944 10.7429C96.3861 10.7429 96.8906 10.9423 97.3079 11.3409C97.7315 11.7333 97.9432 12.2035 97.9432 12.7516C97.9432 13.3059 97.7315 13.7824 97.3079 14.181C96.8906 14.5734 96.3861 14.7696 95.7944 14.7696ZM106.188 31.25C104.711 31.25 103.441 30.951 102.376 30.3531C101.317 29.749 100.501 28.8957 99.9281 27.7932C99.355 26.6846 99.0685 25.3735 99.0685 23.86C99.0685 22.3839 99.355 21.0883 99.9281 19.9735C100.501 18.8586 101.308 17.9897 102.348 17.3669C103.394 16.744 104.621 16.4326 106.029 16.4326C106.976 16.4326 107.857 16.5852 108.673 16.8904C109.495 17.1894 110.211 17.6409 110.822 18.2451C111.438 18.8492 111.918 19.6091 112.26 20.5247C112.603 21.434 112.774 22.4991 112.774 23.7198V24.8129H100.657V22.3465H109.028C109.028 21.7735 108.903 21.2659 108.654 20.8236C108.405 20.3814 108.059 20.0357 107.617 19.7866C107.181 19.5312 106.673 19.4036 106.094 19.4036C105.49 19.4036 104.954 19.5437 104.487 19.824C104.026 20.098 103.665 20.4686 103.404 20.9357C103.142 21.3967 103.008 21.9105 103.002 22.4773V24.8223C103.002 25.5323 103.133 26.1458 103.394 26.6628C103.662 27.1797 104.039 27.5784 104.525 27.8586C105.01 28.1389 105.587 28.2791 106.253 28.2791C106.695 28.2791 107.1 28.2168 107.468 28.0922C107.835 27.9676 108.15 27.7808 108.411 27.5316C108.673 27.2825 108.872 26.9773 109.009 26.6161L112.69 26.859C112.503 27.7434 112.12 28.5157 111.541 29.1759C110.968 29.8299 110.227 30.3407 109.317 30.7081C108.414 31.0694 107.371 31.25 106.188 31.25ZM114.131 30.9697V11.836H118.111V19.0299H118.232C118.407 18.6437 118.659 18.2513 118.989 17.8527C119.325 17.4478 119.761 17.1115 120.297 16.8437C120.839 16.5696 121.511 16.4326 122.315 16.4326C123.361 16.4326 124.327 16.7067 125.211 17.2548C126.096 17.7966 126.802 18.6157 127.332 19.7119C127.861 20.8018 128.126 22.169 128.126 23.8133C128.126 25.414 127.867 26.7655 127.351 27.868C126.84 28.9642 126.142 29.7957 125.258 30.3625C124.38 30.923 123.395 31.2033 122.306 31.2033C121.533 31.2033 120.876 31.0756 120.334 30.8202C119.799 30.5649 119.359 30.2441 119.017 29.858C118.674 29.4656 118.413 29.0701 118.232 28.6714H118.055V30.9697H114.131ZM118.027 23.7946C118.027 24.6479 118.145 25.3922 118.382 26.0275C118.618 26.6628 118.961 27.1579 119.409 27.513C119.858 27.8617 120.403 28.0361 121.044 28.0361C121.692 28.0361 122.24 27.8586 122.689 27.5036C123.137 27.1424 123.476 26.6441 123.707 26.0088C123.944 25.3673 124.062 24.6292 124.062 23.7946C124.062 22.9662 123.947 22.2375 123.716 21.6084C123.486 20.9793 123.146 20.4873 122.698 20.1323C122.249 19.7773 121.698 19.5998 121.044 19.5998C120.397 19.5998 119.848 19.771 119.4 20.1136C118.958 20.4562 118.618 20.942 118.382 21.571C118.145 22.2001 118.027 22.9413 118.027 23.7946ZM135.95 31.25C134.499 31.25 133.244 30.9417 132.185 30.3251C131.132 29.7022 130.319 28.8365 129.746 27.7278C129.173 26.6129 128.887 25.3206 128.887 23.8506C128.887 22.3683 129.173 21.0728 129.746 19.9641C130.319 18.8492 131.132 17.9835 132.185 17.3669C133.244 16.744 134.499 16.4326 135.95 16.4326C137.401 16.4326 138.653 16.744 139.706 17.3669C140.765 17.9835 141.58 18.8492 142.153 19.9641C142.726 21.0728 143.013 22.3683 143.013 23.8506C143.013 25.3206 142.726 26.6129 142.153 27.7278C141.58 28.8365 140.765 29.7022 139.706 30.3251C138.653 30.9417 137.401 31.25 135.95 31.25ZM135.969 28.1669C136.629 28.1669 137.18 27.9801 137.622 27.6064C138.064 27.2264 138.398 26.7095 138.622 26.0555C138.852 25.4015 138.968 24.6572 138.968 23.8226C138.968 22.988 138.852 22.2437 138.622 21.5897C138.398 20.9357 138.064 20.4188 137.622 20.0389C137.18 19.6589 136.629 19.469 135.969 19.469C135.302 19.469 134.742 19.6589 134.287 20.0389C133.839 20.4188 133.499 20.9357 133.269 21.5897C133.044 22.2437 132.932 22.988 132.932 23.8226C132.932 24.6572 133.044 25.4015 133.269 26.0555C133.499 26.7095 133.839 27.2264 134.287 27.6064C134.742 27.9801 135.302 28.1669 135.969 28.1669ZM151.918 16.6195V19.6091H143.276V16.6195H151.918ZM145.238 13.1814H149.218V26.56C149.218 26.9275 149.274 27.214 149.387 27.4195C149.499 27.6188 149.654 27.759 149.854 27.8399C150.059 27.9209 150.296 27.9614 150.564 27.9614C150.751 27.9614 150.937 27.9458 151.124 27.9147C151.311 27.8773 151.454 27.8493 151.554 27.8306L152.18 30.7922C151.981 30.8545 151.7 30.9261 151.339 31.0071C150.978 31.0943 150.539 31.1472 150.022 31.1659C149.063 31.2033 148.222 31.0756 147.499 30.7829C146.783 30.4901 146.226 30.0355 145.827 29.4189C145.428 28.8022 145.232 28.0237 145.238 27.0832V13.1814Z" fill="white" style="fill:white;fill:white;fill-opacity:1;"/>
<defs>
<linearGradient id="paint0_linear_119_3059" x1="16.3062" y1="9.6562" x2="3.58815" y2="16.2492" gradientUnits="userSpaceOnUse">
<stop stop-color="#00A2FF" style="stop-color:#00A2FF;stop-color:color(display-p3 0.0000 0.6353 1.0000);stop-opacity:1;"/>
<stop offset="1" stop-color="#00FFE1" style="stop-color:#00FFE1;stop-color:color(display-p3 0.0000 1.0000 0.8824);stop-opacity:1;"/>
</linearGradient>
<linearGradient id="paint1_linear_119_3059" x1="15.4413" y1="16.2758" x2="1.50164" y2="20.5637" gradientUnits="userSpaceOnUse">
<stop stop-color="#DBCCF6" style="stop-color:#DBCCF6;stop-color:color(display-p3 0.8588 0.8000 0.9647);stop-opacity:1;"/>
<stop offset="1" stop-color="#624CAB" style="stop-color:#624CAB;stop-color:color(display-p3 0.3843 0.2980 0.6706);stop-opacity:1;"/>
</linearGradient>
<linearGradient id="paint2_linear_119_3059" x1="25.1774" y1="16.8418" x2="32.7956" y2="7.66489" gradientUnits="userSpaceOnUse">
<stop stop-color="#00A2FF" style="stop-color:#00A2FF;stop-color:color(display-p3 0.0000 0.6353 1.0000);stop-opacity:1;"/>
<stop offset="1" stop-color="#00FFE1" style="stop-color:#00FFE1;stop-color:color(display-p3 0.0000 1.0000 0.8824);stop-opacity:1;"/>
</linearGradient>
<linearGradient id="paint3_linear_119_3059" x1="22.4232" y1="10.428" x2="31.4106" y2="2.13606" gradientUnits="userSpaceOnUse">
<stop stop-color="#DBCCF6" style="stop-color:#DBCCF6;stop-color:color(display-p3 0.8588 0.8000 0.9647);stop-opacity:1;"/>
<stop offset="1" stop-color="#624CAB" style="stop-color:#624CAB;stop-color:color(display-p3 0.3843 0.2980 0.6706);stop-opacity:1;"/>
</linearGradient>
<linearGradient id="paint4_linear_119_3059" x1="33.9705" y1="26.3094" x2="26.0932" y2="38.7187" gradientUnits="userSpaceOnUse">
<stop stop-color="#00A2FF" style="stop-color:#00A2FF;stop-color:color(display-p3 0.0000 0.6353 1.0000);stop-opacity:1;"/>
<stop offset="1" stop-color="#00FFE1" style="stop-color:#00FFE1;stop-color:color(display-p3 0.0000 1.0000 0.8824);stop-opacity:1;"/>
</linearGradient>
<linearGradient id="paint5_linear_119_3059" x1="36.3014" y1="32.4247" x2="26.0372" y2="43.2685" gradientUnits="userSpaceOnUse">
<stop stop-color="#DBCCF6" style="stop-color:#DBCCF6;stop-color:color(display-p3 0.8588 0.8000 0.9647);stop-opacity:1;"/>
<stop offset="1" stop-color="#624CAB" style="stop-color:#624CAB;stop-color:color(display-p3 0.3843 0.2980 0.6706);stop-opacity:1;"/>
</linearGradient>
<linearGradient id="paint6_linear_119_3059" x1="12.4932" y1="30.0566" x2="4.69337" y2="38.6073" gradientUnits="userSpaceOnUse">
<stop stop-color="#00A2FF" style="stop-color:#00A2FF;stop-color:color(display-p3 0.0000 0.6353 1.0000);stop-opacity:1;"/>
<stop offset="1" stop-color="#00FFE1" style="stop-color:#00FFE1;stop-color:color(display-p3 0.0000 1.0000 0.8824);stop-opacity:1;"/>
</linearGradient>
<linearGradient id="paint7_linear_119_3059" x1="15.0207" y1="36.5333" x2="5.96119" y2="44.2063" gradientUnits="userSpaceOnUse">
<stop stop-color="#DBCCF6" style="stop-color:#DBCCF6;stop-color:color(display-p3 0.8588 0.8000 0.9647);stop-opacity:1;"/>
<stop offset="1" stop-color="#624CAB" style="stop-color:#624CAB;stop-color:color(display-p3 0.3843 0.2980 0.6706);stop-opacity:1;"/>
</linearGradient>
</defs>
</svg>
