<svg width="154" height="83" viewBox="0 0 154 83" fill="none" xmlns="http://www.w3.org/2000/svg">
<path d="M122 72C122 66.2218 120.849 60.5003 118.613 55.1619C116.376 49.8236 113.098 44.9731 108.966 40.8873C104.834 36.8015 99.9284 33.5605 94.5294 31.3493C89.1304 29.1381 83.3438 28 77.5 28C71.6562 28 65.8696 29.1381 60.4706 31.3493C55.0716 33.5605 50.166 36.8015 46.0337 40.8873C41.9015 44.9731 38.6237 49.8236 36.3874 55.1619C34.151 60.5003 33 66.2218 33 72L77.5 72H122Z" fill="#6039DB" fill-opacity="0.1"/>
<rect x="60" y="19" width="33.6471" height="33.6471" rx="2" fill="#007EBB"/>
<path fill-rule="evenodd" clip-rule="evenodd" d="M87.5291 44.9995H83.4439V38.0415C83.4439 36.1338 82.719 35.0677 81.2091 35.0677C79.5664 35.0677 78.7082 36.1772 78.7082 38.0415V44.9995H74.7712V31.7446H78.7082V33.5301C78.7082 33.5301 79.892 31.3397 82.7048 31.3397C85.5163 31.3397 87.5291 33.0565 87.5291 36.6074V44.9995ZM70.0744 30.009C68.7334 30.009 67.6467 28.9138 67.6467 27.5631C67.6467 26.2124 68.7334 25.1172 70.0744 25.1172C71.4154 25.1172 72.5015 26.2124 72.5015 27.5631C72.5015 28.9138 71.4154 30.009 70.0744 30.009ZM68.0415 44.9995H72.1468V31.7446H68.0415V44.9995Z" fill="white"/>
<g clip-path="url(#clip0_607_55860)">
<path d="M95.9917 49.24C96.5332 49.4986 97.0048 49.8833 97.3668 50.3619C97.7288 50.8405 97.9706 51.399 98.072 51.9904C98.1735 52.5818 98.1314 53.189 97.9495 53.7608C97.7676 54.3327 97.4512 54.8525 97.0267 55.2767L93.2767 59.0267C92.5734 59.73 91.6196 60.125 90.625 60.125C89.6305 60.125 88.6766 59.73 87.9734 59.0267C87.2701 58.3234 86.875 57.3696 86.875 56.375C86.875 55.3805 87.2701 54.4266 87.9734 53.7234L89.4375 52.2592M100.563 51.7409L102.027 50.2767C102.73 49.5734 103.125 48.6196 103.125 47.625C103.125 46.6305 102.73 45.6766 102.027 44.9734C101.323 44.2701 100.37 43.875 99.375 43.875C98.3805 43.875 97.4266 44.2701 96.7234 44.9734L92.9734 48.7234C92.5489 49.1475 92.2324 49.6674 92.0505 50.2392C91.8686 50.8111 91.8266 51.4182 91.928 52.0096C92.0294 52.6011 92.2713 53.1596 92.6333 53.6382C92.9953 54.1167 93.4668 54.5015 94.0084 54.76" stroke="#111827" stroke-width="2" stroke-linecap="round" stroke-linejoin="round"/>
</g>
<line x1="12" y1="72" x2="142" y2="72" stroke="#111827" stroke-width="2"/>
<circle cx="111" cy="34" r="1" fill="#6039DB" fill-opacity="0.1"/>
<circle cx="34.5" cy="51.5" r="1.5" fill="#6039DB" fill-opacity="0.1"/>
<circle cx="36.5" cy="37.5" r="2.5" fill="#6039DB" fill-opacity="0.1"/>
<circle cx="96" cy="24" r="1" fill="#6039DB" fill-opacity="0.1"/>
<circle cx="51" cy="22" r="1" fill="#6039DB" fill-opacity="0.1"/>
<circle cx="121.5" cy="51.5" r="3.5" fill="#EFEBFB"/>
<defs>
<clipPath id="clip0_607_55860">
<rect width="20" height="20" fill="white" transform="translate(85 42)"/>
</clipPath>
</defs>
</svg>
