<svg width="154" height="83" viewBox="0 0 154 83" fill="none" xmlns="http://www.w3.org/2000/svg">
<path d="M122 72C122 66.2218 120.849 60.5003 118.613 55.1619C116.376 49.8236 113.098 44.9731 108.966 40.8873C104.834 36.8015 99.9284 33.5605 94.5294 31.3493C89.1304 29.1381 83.3438 28 77.5 28C71.6562 28 65.8696 29.1381 60.4706 31.3493C55.0716 33.5605 50.166 36.8015 46.0337 40.8873C41.9015 44.9731 38.6237 49.8236 36.3874 55.1619C34.151 60.5003 33 66.2218 33 72L77.5 72H122Z" fill="#6039DB"/>
<rect x="54" y="11.9082" width="43" height="28.8824" rx="3" fill="white" stroke="#111827" stroke-width="2"/>
<rect x="60" y="5.73242" width="30.6471" height="43" rx="3" fill="white" stroke="#111827" stroke-width="2"/>
<rect x="67" y="27" width="17" height="17" rx="2" fill="#007EBB"/>
<path fill-rule="evenodd" clip-rule="evenodd" d="M80.9092 40.1353H78.8452V36.6198C78.8452 35.6559 78.479 35.1173 77.7161 35.1173C76.8861 35.1173 76.4525 35.6778 76.4525 36.6198V40.1353H74.4634V33.4383H76.4525V34.3404C76.4525 34.3404 77.0506 33.2337 78.4718 33.2337C79.8923 33.2337 80.9092 34.1012 80.9092 35.8952V40.1353ZM72.0903 32.5614C71.4128 32.5614 70.8638 32.0081 70.8638 31.3256C70.8638 30.6432 71.4128 30.0898 72.0903 30.0898C72.7679 30.0898 73.3166 30.6432 73.3166 31.3256C73.3166 32.0081 72.7679 32.5614 72.0903 32.5614ZM71.0632 40.1353H73.1374V33.4383H71.0632V40.1353Z" fill="white"/>
<path fill-rule="evenodd" clip-rule="evenodd" d="M77.7129 11.7188C77.7129 13.1093 76.5618 14.2365 75.142 14.2365C73.7221 14.2365 72.571 13.1093 72.571 11.7188C72.571 10.3284 73.7221 9.20117 75.142 9.20117C76.5618 9.20117 77.7129 10.3284 77.7129 11.7188ZM70 19.5867C70 16.5172 73.4258 14.9709 75.1419 14.9709C76.858 14.9709 80.2837 16.5172 80.2837 19.5867C80.2837 20.7974 79.2004 21.7207 78.005 21.5289L76.251 21.2474C75.5163 21.1295 74.7675 21.1295 74.0328 21.2474L72.2787 21.5289C71.0833 21.7207 70 20.7974 70 19.5867Z" fill="#111827"/>
<line x1="12" y1="72" x2="142" y2="72" stroke="#111827" stroke-width="2"/>
<circle cx="92.3865" cy="52.3871" r="8.61364" fill="#111827"/>
<path d="M92.3676 49.6035L92.3676 53.2365" stroke="white" stroke-linecap="round"/>
<path d="M93.73 52.3271L92.3676 53.6895L91.0052 52.3271" stroke="white" stroke-linecap="round" stroke-linejoin="round"/>
<path d="M88.2804 52.3281L88.2804 54.1446C88.2804 54.8971 88.8904 55.507 89.6428 55.507V55.507L92.3675 55.507L95.0923 55.507V55.507C95.8447 55.507 96.4547 54.8971 96.4547 54.1446L96.4547 52.3281" stroke="white" stroke-linecap="round"/>
<circle cx="111" cy="34" r="1" fill="#6039DB"/>
<circle cx="34.5" cy="51.5" r="1.5" fill="#6039DB"/>
<circle cx="36.5" cy="37.5" r="2.5" fill="#6039DB"/>
<circle cx="96" cy="24" r="1" fill="#6039DB" fill-opacity="0.1"/>
<circle cx="51" cy="22" r="1" fill="#6039DB"/>
<circle cx="121.5" cy="51.5" r="3.5" fill="#6039DB"/>
</svg>
