<svg width="23" height="22" viewBox="0 0 23 22" fill="none" xmlns="http://www.w3.org/2000/svg">
<g clip-path="url(#clip0_92_16229)">
<path fill-rule="evenodd" clip-rule="evenodd" d="M3.24376 22H20.3549C21.7049 22 22.7993 20.9056 22.7993 19.5556V2.44444C22.7993 1.09441 21.7049 0 20.3549 0H3.24376C1.89373 0 0.799316 1.09441 0.799316 2.44444V19.5556C0.799316 20.9056 1.89373 22 3.24376 22Z" fill="#007EBB"/>
<path fill-rule="evenodd" clip-rule="evenodd" d="M19.7439 18.9446H16.4792V13.3841C16.4792 11.8596 15.8999 11.0076 14.6933 11.0076C13.3806 11.0076 12.6947 11.8942 12.6947 13.3841V18.9446H9.5485V8.35196H12.6947V9.77878C12.6947 9.77878 13.6407 8.02834 15.8885 8.02834C18.1353 8.02834 19.7439 9.40036 19.7439 12.238V18.9446ZM5.79506 6.96495C4.72339 6.96495 3.85498 6.08973 3.85498 5.01031C3.85498 3.93088 4.72339 3.05566 5.79506 3.05566C6.86673 3.05566 7.73462 3.93088 7.73462 5.01031C7.73462 6.08973 6.86673 6.96495 5.79506 6.96495ZM4.17048 18.9446H7.45119V8.35196H4.17048V18.9446Z" fill="white"/>
</g>
<defs>
<clipPath id="clip0_92_16229">
<rect width="22" height="22" fill="white" transform="translate(0.799316)"/>
</clipPath>
</defs>
</svg>
