<svg xmlns="http://www.w3.org/2000/svg" xmlns:xlink="http://www.w3.org/1999/xlink" version="1.1" width="1000" height="1000" viewBox="0 0 1000 1000" xml:space="preserve">
<desc>Created with Fabric.js 3.5.0</desc>
<defs>
</defs>
<rect x="0" y="0" width="100%" height="100%" fill="#ffffff"/>
<g transform="matrix(45.4545 0 0 45.4545 499.9995 499.9995)" id="953474">
<g style="" vector-effect="non-scaling-stroke">
		<g transform="matrix(1 0 0 1 -7 -5.75)">
<path style="stroke: none; stroke-width: 1; stroke-dasharray: none; stroke-linecap: butt; stroke-dashoffset: 0; stroke-linejoin: miter; stroke-miterlimit: 4; is-custom-font: none; font-file-url: none; fill: rgb(0,0,0); fill-rule: evenodd; opacity: 1;" transform=" translate(-3, -4.25)" d="M 3 4.25 A 2.25 2.25 0 15.25 2 h 5.5 A 2.25 2.25 0 113 4.25 v 2 a 0.75 0.75 0 1 -1.5 0 v -2 a 0.75 0.75 0 0 -0.75 -0.75 h -5.5 a 0.75 0.75 0 0 -0.75 0.75 v 11.5 c 0 0.414 0.336 0.75 0.75 0.75 h 5.5 a 0.75 0.75 0 0.75 -0.75 v -2 a 0.75 0.75 0 11.5 0 v 2 A 2.25 2.25 0 110.75 18 h -5.5 A 2.25 2.25 0 13 15.75 V 4.25 z" stroke-linecap="round"/>
</g>
		<g transform="matrix(1 0 0 1 2.569 0)">
<path style="stroke: none; stroke-width: 1; stroke-dasharray: none; stroke-linecap: butt; stroke-dashoffset: 0; stroke-linejoin: miter; stroke-miterlimit: 4; is-custom-font: none; font-file-url: none; fill: rgb(0,0,0); fill-rule: evenodd; opacity: 1;" transform=" translate(-12.569, -10)" d="M 19 10 a 0.75 0.75 0 0 -0.75 -0.75 H 8.704 l 1.048 -0.943 a 0.75 0.75 0 10 -1.004 -1.114 l -2.5 2.25 a 0.75 0.75 0 0 1.114 l 2.5 2.25 a 0.75 0.75 0 101.004 -1.114 l -1.048 -0.943 h 9.546 A 0.75 0.75 0 19 10 z" stroke-linecap="round"/>
</g>
</g>
</g>
<g transform="matrix(1.0969 0 0 1.0969 506.2016 493.8027)" id="95679">
<g style="" vector-effect="non-scaling-stroke">
		<g transform="matrix(1 0 0 1 -16.45 0)" id="Layer_1">
<path style="stroke: none; stroke-width: 1; stroke-dasharray: none; stroke-linecap: butt; stroke-dashoffset: 0; stroke-linejoin: miter; stroke-miterlimit: 4; is-custom-font: none; font-file-url: none; fill: rgb(44,62,80); fill-rule: nonzero; opacity: 1;" transform=" translate(-47.55, -64)" d="M 28.2 46.3 L 11.9 62.7 c -0.4 0.4 -0.6 0.9 -0.6 1.4 c 0 0.6 0.2 1.1 0.6 1.4 l 16.2 16.2 c 0.8 0.8 2 0.8 2.8 0 c 0.4 -0.4 0.6 -0.9 0.6 -1.4 s -0.2 -1.1 -0.6 -1.4 L 18.1 66 h 63.7 c 1.1 0 2 -0.9 2 -2 s -0.9 -2 -2 -2 H 18.1 l 12.9 -12.9 c 0.4 -0.4 0.6 -0.9 0.6 -1.4 s -0.2 -1 -0.6 -1.4 C 30.3 45.5 29 45.5 28.2 46.3 z" stroke-linecap="round"/>
</g>
		<g transform="matrix(1 0 0 1 9 0.5)" id="Layer_1">
<path style="stroke: none; stroke-width: 1; stroke-dasharray: none; stroke-linecap: butt; stroke-dashoffset: 0; stroke-linejoin: miter; stroke-miterlimit: 4; is-custom-font: none; font-file-url: none; fill: rgb(59,151,211); fill-rule: nonzero; opacity: 1;" transform=" translate(-73, -64.5)" d="M 95 16 H 51 c -5.5 0 -10 4.5 -10 10 v 16.3 h 4 V 26 c 0 -3.3 2.7 -6 6 -6 h 44 c 3.3 0 6 2.7 6 6 v 77 c 0 3.3 -2.7 6 -6 6 H 51 c -3.3 0 -6 -2.7 -6 -6 V 85.7 h -4 V 103 c 0 5.5 4.5 10 10 10 h 44 c 5.5 0 10 -4.5 10 -10 V 26 C 105 20.5 100.5 16 95 16 z" stroke-linecap="round"/>
</g>
</g>
</g>
</svg>