<svg width="19" height="22" viewBox="0 0 19 22" fill="none" xmlns="http://www.w3.org/2000/svg">
<g clip-path="url(#clip0_92_20100)">
<path d="M9.5 21.9956C8.94421 21.995 8.39829 21.8413 7.9169 21.5497L1.5831 17.7154C1.10235 17.4232 0.703103 17.0037 0.425288 16.4987C0.147473 15.9938 0.000822727 15.4212 0 14.8381L0 7.16197C0.000574898 6.57865 0.147108 6.00572 0.424935 5.50051C0.702763 4.99531 1.10214 4.57554 1.5831 4.28323L7.9169 0.445903C8.39808 0.153802 8.94413 0 9.5 0C10.0559 0 10.6019 0.153802 11.0831 0.445903L17.4169 4.28323C17.8979 4.57554 18.2972 4.99531 18.5751 5.50051C18.8529 6.00572 18.9994 6.57865 19 7.16197V14.8381C18.9992 15.4212 18.8525 15.9938 18.5747 16.4987C18.2969 17.0037 17.8977 17.4232 17.4169 17.7154L11.0831 21.5497C10.6018 21.8415 10.0558 21.9953 9.5 21.9956Z" fill="url(#paint0_linear_92_20100)"/>
<path d="M17.2045 17.3305L10.8707 21.1678C10.454 21.4205 9.98125 21.5535 9.5 21.5535C9.01876 21.5535 8.546 21.4205 8.12931 21.1678L1.7955 17.3305C1.37868 17.0779 1.03256 16.7146 0.791949 16.2771C0.551337 15.8396 0.424712 15.3433 0.424805 14.8381V7.162C0.424712 6.65684 0.551337 6.16056 0.791949 5.72306C1.03256 5.28555 1.37868 4.92225 1.7955 4.66967L8.12931 0.830851C8.54624 0.578899 9.0189 0.446289 9.5 0.446289C9.9811 0.446289 10.4538 0.578899 10.8707 0.830851L17.2045 4.66967C17.6213 4.92225 17.9674 5.28555 18.2081 5.72306C18.4487 6.16056 18.5753 6.65684 18.5752 7.162V14.8381C18.5753 15.3433 18.4487 15.8396 18.2081 16.2771C17.9674 16.7146 17.6213 17.0779 17.2045 17.3305Z" fill="url(#paint1_linear_92_20100)"/>
<path d="M16.417 16.6825L10.7303 20.1289C10.3561 20.3554 9.93171 20.4745 9.49976 20.4745C9.06782 20.4745 8.64347 20.3554 8.26925 20.1289L2.58256 16.6825C2.2096 16.4563 1.8997 16.1314 1.68377 15.7402C1.46785 15.3491 1.35347 14.9053 1.35205 14.4532V7.55433C1.35227 7.1008 1.46607 6.65529 1.68203 6.26247C1.898 5.86964 2.20855 5.54329 2.58256 5.31614L8.26925 1.87116C8.64323 1.64402 9.06768 1.52441 9.49976 1.52441C9.93185 1.52441 10.3563 1.64402 10.7303 1.87116L16.417 5.31614C16.7912 5.54306 17.1019 5.86936 17.3179 6.26224C17.5339 6.65512 17.6475 7.10074 17.6475 7.55433V14.4458C17.6476 14.8992 17.5339 15.3446 17.3179 15.7373C17.1019 16.1299 16.7912 16.4559 16.417 16.6825Z" fill="url(#paint2_linear_92_20100)"/>
<path d="M16.0334 16.3672L10.6625 19.6175C10.3092 19.8321 9.90819 19.9451 9.49996 19.9451C9.09174 19.9451 8.69074 19.8321 8.33742 19.6175L2.97358 16.3672C2.62003 16.1531 2.32644 15.8451 2.12235 15.4741C1.91827 15.1031 1.8109 14.6822 1.81104 14.2539V7.74437C1.81133 7.31606 1.91888 6.89537 2.12292 6.52445C2.32696 6.15353 2.62032 5.84542 2.97358 5.63101L8.33742 2.37775C8.69097 2.16386 9.09188 2.05127 9.49996 2.05127C9.90804 2.05127 10.309 2.16386 10.6625 2.37775L16.0334 5.6325C16.3867 5.84691 16.68 6.15502 16.8841 6.52593C17.0881 6.89685 17.1957 7.31755 17.196 7.74585V14.2553C17.1959 14.6835 17.0884 15.104 16.8843 15.4748C16.6802 15.8455 16.3868 16.1533 16.0334 16.3672Z" fill="url(#paint3_linear_92_20100)"/>
<path d="M10.6627 19.6178L16.0337 16.363C16.3872 16.149 16.6808 15.8409 16.8849 15.4699C17.089 15.0989 17.1964 14.6781 17.1962 14.2497V7.74464C17.1958 7.27374 17.066 6.81295 16.8224 6.41748C13.5132 8.21874 7.61125 11.2818 1.8042 13.5631V14.2541C1.80477 14.6833 1.91322 15.1046 2.11858 15.4757C2.32394 15.8467 2.61895 16.1544 2.97382 16.3675L8.33766 19.6178C8.69098 19.8324 9.09198 19.9454 9.5002 19.9454C9.90843 19.9454 10.3094 19.8324 10.6627 19.6178Z" fill="url(#paint4_linear_92_20100)"/>
<path d="M13.9845 11.7786C13.9845 11.7786 11.9621 13.8124 11.0392 14.7326C10.1015 15.6703 8.68699 15.6695 7.74663 14.7317C6.79053 13.7783 4.81885 11.7786 4.81885 11.7786C4.81885 11.7786 5.55276 12.1643 5.94465 12.195C6.28487 12.2288 6.62834 12.1858 6.94975 12.0693C7.27116 11.9527 7.56231 11.7655 7.80174 11.5214C8.3091 11.0228 8.93105 10.4061 9.40166 9.85938C9.94281 10.4853 10.5221 11.0772 11.1363 11.6316C11.8667 12.195 12.6234 12.3524 13.485 12.0401C13.6162 11.992 13.8559 11.8346 13.9845 11.7786Z" fill="#D04C00"/>
<path d="M6.15717 12.215C4.88529 12.215 3.80322 11.1259 3.80322 9.86103C3.80322 8.59614 4.88529 7.56743 6.15717 7.56743C7.54365 7.46859 9.40162 9.86103 9.40162 9.86103C9.40162 9.86103 7.96353 12.215 6.15717 12.215Z" fill="#FF9A0B"/>
<path d="M12.6463 12.215C13.9182 12.215 15.0003 11.1259 15.0003 9.86103C15.0003 8.59614 13.9182 7.56743 12.6463 7.56743C11.2598 7.46859 9.40186 9.86103 9.40186 9.86103C9.40186 9.86103 10.8399 12.215 12.6463 12.215Z" fill="#FFEF59"/>
<path d="M6.55267 8.88987C6.79111 9.17718 6.87462 9.4929 6.73182 9.60221C6.58901 9.71153 6.28436 9.57511 6.04337 9.29205C5.80238 9.00899 5.71967 8.68941 5.86423 8.57971C6.00879 8.47 6.31168 8.60681 6.55267 8.88987Z" fill="#FFF8E1"/>
<path d="M7.12212 9.8056C7.16198 9.82921 7.19427 9.86357 7.2149 9.90431C7.23553 9.94506 7.24357 9.99037 7.238 10.0345C7.23243 10.0786 7.2135 10.1196 7.18361 10.1522C7.15372 10.1847 7.11421 10.2075 7.0701 10.2176C7.02599 10.2276 6.97926 10.2245 6.93583 10.2086C6.89241 10.1927 6.85423 10.1648 6.82616 10.1283C6.79808 10.0919 6.78136 10.0485 6.77813 10.0038C6.77489 9.95911 6.78527 9.91503 6.80796 9.87718C6.82284 9.85203 6.84278 9.83022 6.86664 9.813C6.89051 9.79579 6.91782 9.7835 6.94701 9.77685C6.97621 9.77019 7.00671 9.76931 7.03676 9.77425C7.06681 9.77918 7.09582 9.78984 7.12212 9.8056Z" fill="#FFF8E1"/>
<path d="M13.4555 10.2594C13.161 10.4586 12.836 10.4965 12.7291 10.3473C12.6221 10.198 12.7765 9.90683 13.071 9.7077C13.3656 9.50856 13.6905 9.47059 13.7975 9.61985C13.9044 9.76911 13.7502 10.0585 13.4555 10.2594Z" fill="#FFF8E1"/>
<path d="M11.953 11.52C11.9248 11.528 11.8954 11.5301 11.8665 11.5262C11.8376 11.5222 11.8097 11.5122 11.7845 11.4969C11.7593 11.4815 11.7372 11.4611 11.7196 11.4367C11.7019 11.4123 11.6891 11.3845 11.6818 11.3549C11.6705 11.3105 11.672 11.2635 11.6862 11.2199C11.7004 11.1764 11.7266 11.1382 11.7614 11.1103C11.7962 11.0824 11.8382 11.0659 11.8819 11.063C11.9257 11.06 11.9693 11.0708 12.0072 11.0939C12.0451 11.117 12.0757 11.1513 12.095 11.1927C12.1143 11.234 12.1215 11.2803 12.1157 11.326C12.1099 11.3716 12.0913 11.4143 12.0624 11.4489C12.0334 11.4834 11.9953 11.5082 11.953 11.52Z" fill="#FFF8E1"/>
</g>
<defs>
<linearGradient id="paint0_linear_92_20100" x1="9.5" y1="-2.86383" x2="9.5" y2="24.0554" gradientUnits="userSpaceOnUse">
<stop stop-color="#FF8F00"/>
<stop offset="1" stop-color="#B13827"/>
</linearGradient>
<linearGradient id="paint1_linear_92_20100" x1="9.5" y1="-2.30203" x2="9.5" y2="23.5264" gradientUnits="userSpaceOnUse">
<stop stop-color="#FF8F00"/>
<stop offset="0.09" stop-color="#FF9506"/>
<stop offset="0.21" stop-color="#FFA615"/>
<stop offset="0.35" stop-color="#FFC22F"/>
<stop offset="0.5" stop-color="#FFE953"/>
<stop offset="0.52" stop-color="#FFEE58"/>
<stop offset="0.82" stop-color="#F4991E"/>
<stop offset="1" stop-color="#EF6C00"/>
</linearGradient>
<linearGradient id="paint2_linear_92_20100" x1="9.49976" y1="18.8895" x2="9.49976" y2="1.84887" gradientUnits="userSpaceOnUse">
<stop stop-color="#FFEE58"/>
<stop offset="0.63" stop-color="#F4991E"/>
<stop offset="1" stop-color="#EF6C00"/>
</linearGradient>
<linearGradient id="paint3_linear_92_20100" x1="9.49996" y1="-0.281035" x2="9.49996" y2="21.6224" gradientUnits="userSpaceOnUse">
<stop stop-color="#FF8F00"/>
<stop offset="1" stop-color="#B13827"/>
</linearGradient>
<linearGradient id="paint4_linear_92_20100" x1="8.68742" y1="6.92278" x2="12.5705" y2="24.6074" gradientUnits="userSpaceOnUse">
<stop stop-color="#FF8F00"/>
<stop offset="1" stop-color="#B13827"/>
</linearGradient>
<clipPath id="clip0_92_20100">
<rect width="19" height="22" fill="white"/>
</clipPath>
</defs>
</svg>
