<svg width="193" height="146" viewBox="0 0 193 146" fill="none" xmlns="http://www.w3.org/2000/svg">
<path fill-rule="evenodd" clip-rule="evenodd" d="M65.4477 25.6523C60.3793 25.6523 56.0467 29.3209 55.2112 34.323L54.7077 37.3607C54.5681 38.1232 54.2303 38.8356 53.7281 39.4261C53.2259 40.0167 52.5772 40.4646 51.847 40.7249C50.9529 41.0594 50.0708 41.4248 49.2021 41.8205C48.5015 42.1536 47.7256 42.2962 46.9524 42.234C46.1792 42.1719 45.436 41.9071 44.7976 41.4664L42.2911 39.6736C40.2924 38.2457 37.8519 37.5732 35.404 37.7759C32.956 37.9785 30.6593 39.0431 28.9227 40.7803L27.5781 42.1249C25.841 43.8615 24.7764 46.1582 24.5737 48.6061C24.3711 51.0541 25.0435 53.4945 26.4715 55.4932L28.2642 57.9998C28.7049 58.6381 28.9697 59.3813 29.0319 60.1545C29.094 60.9277 28.9514 61.7037 28.6184 62.4042C28.2227 63.2729 27.8572 64.1551 27.5228 65.0491C27.2625 65.7793 26.8145 66.4281 26.224 66.9303C25.6334 67.4324 24.9211 67.7703 24.1586 67.9098L21.1153 68.4189C18.694 68.8234 16.4947 70.0734 14.9081 71.9467C13.3216 73.8199 12.4507 76.1951 12.4502 78.6499V80.5533C12.4502 85.6218 16.1187 89.9543 21.1208 90.7898L24.1586 91.2934C25.7134 91.5534 26.9695 92.6767 27.5228 94.1541C27.8548 95.0505 28.2255 95.9302 28.6184 96.799C28.9514 97.4995 29.094 98.2755 29.0319 99.0487C28.9697 99.8219 28.7049 100.565 28.2642 101.203L26.4715 103.71C25.0435 105.709 24.3711 108.149 24.5737 110.597C24.7764 113.045 25.841 115.342 27.5781 117.078L28.9227 118.423C32.5083 122.008 38.1632 122.479 42.2911 119.53L44.7976 117.737C45.436 117.296 46.1792 117.031 46.9524 116.969C47.7256 116.907 48.5015 117.05 49.2021 117.383C50.0708 117.776 50.9506 118.141 51.847 118.478C53.3244 119.032 54.4476 120.288 54.7077 121.842L55.2167 124.886C56.0467 129.882 60.3737 133.551 65.4477 133.551H67.3512C72.4196 133.551 76.7522 129.882 77.5877 124.88L78.0912 121.842C78.2308 121.08 78.5686 120.368 79.0708 119.777C79.573 119.187 80.2217 118.739 80.9519 118.478C81.8459 118.144 82.728 117.778 83.5968 117.383C84.2974 117.05 85.0733 116.907 85.8465 116.969C86.6197 117.031 87.3629 117.296 88.0013 117.737L90.5079 119.53C92.5065 120.958 94.947 121.63 97.3949 121.427C99.8429 121.225 102.14 120.16 103.876 118.423L105.221 117.078C108.806 113.493 109.277 107.838 106.327 103.71L104.535 101.203C104.094 100.565 103.829 99.8219 103.767 99.0487C103.705 98.2755 103.847 97.4995 104.181 96.799C104.573 95.9302 104.939 95.0505 105.276 94.1541C105.829 92.6767 107.085 91.5534 108.64 91.2934L111.684 90.7898C114.106 90.3851 116.306 89.1343 117.893 87.2599C119.479 85.3855 120.35 83.0091 120.349 80.5533V78.6499C120.349 73.5814 116.68 69.2489 111.678 68.4134L108.64 67.9098C107.878 67.7703 107.165 67.4324 106.575 66.9303C105.984 66.4281 105.536 65.7793 105.276 65.0491C104.941 64.1552 104.576 63.273 104.181 62.4042C103.847 61.7037 103.705 60.9277 103.767 60.1545C103.829 59.3813 104.094 58.6381 104.535 57.9998L106.327 55.4932C107.755 53.4945 108.428 51.0541 108.225 48.6061C108.023 46.1582 106.958 43.8615 105.221 42.1249L103.876 40.7803C102.14 39.0431 99.8429 37.9785 97.3949 37.7759C94.947 37.5732 92.5065 38.2457 90.5079 39.6736L88.0013 41.4664C87.3629 41.9071 86.6197 42.1719 85.8465 42.234C85.0733 42.2962 84.2974 42.1536 83.5968 41.8205C82.7281 41.4249 81.8459 41.0594 80.9519 40.7249C80.2217 40.4646 79.573 40.0167 79.0708 39.4261C78.5686 38.8356 78.2308 38.1232 78.0912 37.3607L77.5877 34.3174C77.183 31.8952 75.9322 29.6951 74.0578 28.1085C72.1834 26.5218 69.8069 25.6515 67.3512 25.6523H65.4477ZM66.3995 100.351C71.9026 100.351 77.1804 98.1652 81.0717 94.2739C84.963 90.3825 87.1492 85.1048 87.1492 79.6016C87.1492 74.0984 84.963 68.8207 81.0717 64.9293C77.1804 61.038 71.9026 58.8519 66.3995 58.8519C60.8963 58.8519 55.6185 61.038 51.7272 64.9293C47.8359 68.8207 45.6497 74.0984 45.6497 79.6016C45.6497 85.1048 47.8359 90.3825 51.7272 94.2739C55.6185 98.1652 60.8963 100.351 66.3995 100.351Z" fill="white" fill-opacity="0.1"/>
<path fill-rule="evenodd" clip-rule="evenodd" d="M150.099 8.27734C147.055 8.27734 144.459 10.4785 143.958 13.4797L143.367 17.0387C143.3 17.4371 142.985 17.9019 142.381 18.194C141.243 18.7409 140.149 19.3735 139.107 20.0864C138.556 20.4682 137.998 20.5047 137.613 20.362L134.237 19.0938C132.856 18.5766 131.337 18.5661 129.95 19.064C128.563 19.5619 127.397 20.536 126.661 21.8128L123.6 27.1148C122.863 28.3908 122.603 29.8868 122.865 31.3367C123.128 32.7866 123.896 34.0963 125.034 35.0329L127.823 37.3303C128.138 37.5892 128.387 38.0905 128.334 38.7578C128.239 40.0165 128.239 41.2806 128.334 42.5393C128.384 43.2033 128.138 43.7079 127.826 43.9669L125.034 46.2643C123.896 47.2008 123.128 48.5105 122.865 49.9604C122.603 51.4103 122.863 52.9063 123.6 54.1824L126.661 59.4843C127.398 60.7605 128.563 61.7339 129.951 62.2312C131.338 62.7285 132.857 62.7174 134.237 62.2L137.62 60.9318C138.002 60.7891 138.559 60.8289 139.114 61.2041C140.15 61.9145 141.242 62.5486 142.384 63.0964C142.988 63.3886 143.304 63.8534 143.37 64.2584L143.961 67.8141C144.462 70.8153 147.058 73.0164 150.103 73.0164H156.225C159.266 73.0164 161.865 70.8153 162.367 67.8141L162.958 64.2551C163.024 63.8567 163.336 63.3919 163.944 63.0964C165.086 62.5486 166.178 61.9145 167.214 61.2041C167.768 60.8256 168.326 60.7891 168.708 60.9318L172.094 62.2C173.474 62.7154 174.991 62.725 176.377 62.2272C177.763 61.7293 178.927 60.7563 179.664 59.481L182.728 54.179C183.465 52.903 183.725 51.407 183.462 49.9571C183.2 48.5072 182.431 47.1975 181.294 46.2609L178.505 43.9635C178.19 43.7046 177.941 43.2033 177.994 42.5359C178.088 41.2772 178.088 40.0132 177.994 38.7545C177.941 38.0905 178.19 37.5859 178.502 37.3269L181.29 35.0295C183.641 33.0973 184.249 29.7508 182.728 27.1114L179.667 21.8095C178.93 20.5332 177.764 19.5599 176.377 19.0626C174.99 18.5653 173.471 18.5763 172.091 19.0938L168.705 20.362C168.326 20.5047 167.768 20.4649 167.214 20.0864C166.173 19.3736 165.08 18.741 163.944 18.194C163.336 17.9052 163.024 17.4404 162.958 17.0387L162.363 13.4797C162.121 12.0258 161.371 10.7049 160.246 9.75229C159.122 8.79963 157.695 8.27697 156.221 8.27734H150.103H150.099ZM153.16 53.0967C156.462 53.0967 159.629 51.785 161.964 49.4503C164.299 47.1155 165.61 43.9488 165.61 40.6469C165.61 37.345 164.299 34.1783 161.964 31.8435C159.629 29.5087 156.462 28.1971 153.16 28.1971C149.859 28.1971 146.692 29.5087 144.357 31.8435C142.022 34.1783 140.711 37.345 140.711 40.6469C140.711 43.9488 142.022 47.1155 144.357 49.4503C146.692 51.785 149.859 53.0967 153.16 53.0967Z" fill="white" fill-opacity="0.1"/>
</svg>
