<svg width="1694" height="35" viewBox="0 0 1694 13" fill="none" xmlns="http://www.w3.org/2000/svg">
<line x1="0.707107" y1="1.21086" x2="11.6867" y2="12.1904" stroke="#0A0808" stroke-opacity="0.64" stroke-width="2"/>
<line x1="17.6876" y1="1.21086" x2="28.6671" y2="12.1904" stroke="#0A0808" stroke-opacity="0.64" stroke-width="2"/>
<line x1="34.6661" y1="1.21086" x2="45.6456" y2="12.1904" stroke="#0A0808" stroke-opacity="0.64" stroke-width="2"/>
<line x1="51.6466" y1="1.21086" x2="62.6261" y2="12.1904" stroke="#0A0808" stroke-opacity="0.64" stroke-width="2"/>
<line x1="68.6251" y1="1.21086" x2="79.6046" y2="12.1904" stroke="#0A0808" stroke-opacity="0.64" stroke-width="2"/>
<line x1="85.6055" y1="1.21086" x2="96.5851" y2="12.1904" stroke="#0A0808" stroke-opacity="0.64" stroke-width="2"/>
<line x1="102.584" y1="1.21086" x2="113.564" y2="12.1904" stroke="#0A0808" stroke-opacity="0.64" stroke-width="2"/>
<line x1="119.565" y1="1.21086" x2="130.544" y2="12.1904" stroke="#0A0808" stroke-opacity="0.64" stroke-width="2"/>
<line x1="136.543" y1="1.21086" x2="147.523" y2="12.1904" stroke="#0A0808" stroke-opacity="0.64" stroke-width="2"/>
<line x1="153.524" y1="1.21086" x2="164.503" y2="12.1904" stroke="#0A0808" stroke-opacity="0.64" stroke-width="2"/>
<line x1="170.502" y1="1.21086" x2="181.482" y2="12.1904" stroke="#0A0808" stroke-opacity="0.64" stroke-width="2"/>
<line x1="187.482" y1="1.21086" x2="198.462" y2="12.1904" stroke="#0A0808" stroke-opacity="0.64" stroke-width="2"/>
<line x1="204.461" y1="1.21086" x2="215.441" y2="12.1904" stroke="#0A0808" stroke-opacity="0.64" stroke-width="2"/>
<line x1="221.441" y1="1.21086" x2="232.421" y2="12.1904" stroke="#0A0808" stroke-opacity="0.64" stroke-width="2"/>
<line x1="238.42" y1="1.21086" x2="249.4" y2="12.1904" stroke="#0A0808" stroke-opacity="0.64" stroke-width="2"/>
<line x1="255.4" y1="1.21086" x2="266.38" y2="12.1904" stroke="#0A0808" stroke-opacity="0.64" stroke-width="2"/>
<line x1="272.379" y1="1.21086" x2="283.359" y2="12.1904" stroke="#0A0808" stroke-opacity="0.64" stroke-width="2"/>
<line x1="289.359" y1="1.21086" x2="300.339" y2="12.1904" stroke="#0A0808" stroke-opacity="0.64" stroke-width="2"/>
<line x1="306.34" y1="1.21086" x2="317.319" y2="12.1904" stroke="#0A0808" stroke-opacity="0.64" stroke-width="2"/>
<line x1="323.318" y1="1.21086" x2="334.298" y2="12.1904" stroke="#0A0808" stroke-opacity="0.64" stroke-width="2"/>
<line x1="340.299" y1="1.21086" x2="351.278" y2="12.1904" stroke="#0A0808" stroke-opacity="0.64" stroke-width="2"/>
<line x1="357.277" y1="1.21086" x2="368.257" y2="12.1904" stroke="#0A0808" stroke-opacity="0.64" stroke-width="2"/>
<line x1="374.258" y1="1.21086" x2="385.237" y2="12.1904" stroke="#0A0808" stroke-opacity="0.64" stroke-width="2"/>
<line x1="391.236" y1="1.21086" x2="402.216" y2="12.1904" stroke="#0A0808" stroke-opacity="0.64" stroke-width="2"/>
<line x1="408.217" y1="1.21086" x2="419.196" y2="12.1904" stroke="#0A0808" stroke-opacity="0.64" stroke-width="2"/>
<line x1="425.195" y1="1.21086" x2="436.175" y2="12.1904" stroke="#0A0808" stroke-opacity="0.64" stroke-width="2"/>
<line x1="442.176" y1="1.21086" x2="453.155" y2="12.1904" stroke="#0A0808" stroke-opacity="0.64" stroke-width="2"/>
<line x1="459.154" y1="1.21086" x2="470.134" y2="12.1904" stroke="#0A0808" stroke-opacity="0.64" stroke-width="2"/>
<line x1="476.135" y1="1.21086" x2="487.114" y2="12.1904" stroke="#0A0808" stroke-opacity="0.64" stroke-width="2"/>
<line x1="493.113" y1="1.21086" x2="504.093" y2="12.1904" stroke="#0A0808" stroke-opacity="0.64" stroke-width="2"/>
<line x1="510.094" y1="1.21086" x2="521.073" y2="12.1904" stroke="#0A0808" stroke-opacity="0.64" stroke-width="2"/>
<line x1="527.072" y1="1.21086" x2="538.052" y2="12.1904" stroke="#0A0808" stroke-opacity="0.64" stroke-width="2"/>
<line x1="544.053" y1="1.21086" x2="555.032" y2="12.1904" stroke="#0A0808" stroke-opacity="0.64" stroke-width="2"/>
<line x1="561.033" y1="1.21086" x2="572.013" y2="12.1904" stroke="#0A0808" stroke-opacity="0.64" stroke-width="2"/>
<line x1="578.012" y1="1.21086" x2="588.991" y2="12.1904" stroke="#0A0808" stroke-opacity="0.64" stroke-width="2"/>
<line x1="594.992" y1="1.21086" x2="605.972" y2="12.1904" stroke="#0A0808" stroke-opacity="0.64" stroke-width="2"/>
<line x1="611.971" y1="1.21086" x2="622.95" y2="12.1904" stroke="#0A0808" stroke-opacity="0.64" stroke-width="2"/>
<line x1="628.951" y1="1.21086" x2="639.931" y2="12.1904" stroke="#0A0808" stroke-opacity="0.64" stroke-width="2"/>
<line x1="645.93" y1="1.21086" x2="656.909" y2="12.1904" stroke="#0A0808" stroke-opacity="0.64" stroke-width="2"/>
<line x1="662.91" y1="1.21086" x2="673.89" y2="12.1904" stroke="#0A0808" stroke-opacity="0.64" stroke-width="2"/>
<line x1="679.889" y1="1.21086" x2="690.868" y2="12.1904" stroke="#0A0808" stroke-opacity="0.64" stroke-width="2"/>
<line x1="696.869" y1="1.21086" x2="707.849" y2="12.1904" stroke="#0A0808" stroke-opacity="0.64" stroke-width="2"/>
<line x1="713.848" y1="1.21086" x2="724.827" y2="12.1904" stroke="#0A0808" stroke-opacity="0.64" stroke-width="2"/>
<line x1="730.828" y1="1.21086" x2="741.808" y2="12.1904" stroke="#0A0808" stroke-opacity="0.64" stroke-width="2"/>
<line x1="747.807" y1="1.21086" x2="758.786" y2="12.1904" stroke="#0A0808" stroke-opacity="0.64" stroke-width="2"/>
<line x1="764.787" y1="1.21086" x2="775.767" y2="12.1904" stroke="#0A0808" stroke-opacity="0.64" stroke-width="2"/>
<line x1="781.766" y1="1.21086" x2="792.745" y2="12.1904" stroke="#0A0808" stroke-opacity="0.64" stroke-width="2"/>
<line x1="798.746" y1="1.21086" x2="809.726" y2="12.1904" stroke="#0A0808" stroke-opacity="0.64" stroke-width="2"/>
<line x1="815.727" y1="1.21086" x2="826.706" y2="12.1904" stroke="#0A0808" stroke-opacity="0.64" stroke-width="2"/>
<line x1="832.705" y1="1.21086" x2="843.685" y2="12.1904" stroke="#0A0808" stroke-opacity="0.64" stroke-width="2"/>
<line x1="849.686" y1="1.21086" x2="860.665" y2="12.1904" stroke="#0A0808" stroke-opacity="0.64" stroke-width="2"/>
<line x1="866.664" y1="1.21086" x2="877.644" y2="12.1904" stroke="#0A0808" stroke-opacity="0.64" stroke-width="2"/>
<line x1="883.645" y1="1.21086" x2="894.624" y2="12.1904" stroke="#0A0808" stroke-opacity="0.64" stroke-width="2"/>
<line x1="900.623" y1="1.21086" x2="911.603" y2="12.1904" stroke="#0A0808" stroke-opacity="0.64" stroke-width="2"/>
<line x1="917.604" y1="1.21086" x2="928.583" y2="12.1904" stroke="#0A0808" stroke-opacity="0.64" stroke-width="2"/>
<line x1="934.582" y1="1.21086" x2="945.562" y2="12.1904" stroke="#0A0808" stroke-opacity="0.64" stroke-width="2"/>
<line x1="951.563" y1="1.21086" x2="962.542" y2="12.1904" stroke="#0A0808" stroke-opacity="0.64" stroke-width="2"/>
<line x1="968.541" y1="1.21086" x2="979.521" y2="12.1904" stroke="#0A0808" stroke-opacity="0.64" stroke-width="2"/>
<line x1="985.522" y1="1.21086" x2="996.501" y2="12.1904" stroke="#0A0808" stroke-opacity="0.64" stroke-width="2"/>
<line x1="1002.5" y1="1.21086" x2="1013.48" y2="12.1904" stroke="#0A0808" stroke-opacity="0.64" stroke-width="2"/>
<line x1="1019.48" y1="1.21086" x2="1030.46" y2="12.1904" stroke="#0A0808" stroke-opacity="0.64" stroke-width="2"/>
<line x1="1036.46" y1="1.21086" x2="1047.44" y2="12.1904" stroke="#0A0808" stroke-opacity="0.64" stroke-width="2"/>
<line x1="1053.44" y1="1.21086" x2="1064.42" y2="12.1904" stroke="#0A0808" stroke-opacity="0.64" stroke-width="2"/>
<line x1="1070.42" y1="1.21086" x2="1081.4" y2="12.1904" stroke="#0A0808" stroke-opacity="0.64" stroke-width="2"/>
<line x1="1087.4" y1="1.21086" x2="1098.38" y2="12.1904" stroke="#0A0808" stroke-opacity="0.64" stroke-width="2"/>
<line x1="1104.38" y1="1.21086" x2="1115.36" y2="12.1904" stroke="#0A0808" stroke-opacity="0.64" stroke-width="2"/>
<line x1="1121.36" y1="1.21086" x2="1132.34" y2="12.1904" stroke="#0A0808" stroke-opacity="0.64" stroke-width="2"/>
<line x1="1138.34" y1="1.21086" x2="1149.32" y2="12.1904" stroke="#0A0808" stroke-opacity="0.64" stroke-width="2"/>
<line x1="1155.32" y1="1.21086" x2="1166.3" y2="12.1904" stroke="#0A0808" stroke-opacity="0.64" stroke-width="2"/>
<line x1="1172.29" y1="1.21086" x2="1183.27" y2="12.1904" stroke="#0A0808" stroke-opacity="0.64" stroke-width="2"/>
<line x1="1189.28" y1="1.21086" x2="1200.26" y2="12.1904" stroke="#0A0808" stroke-opacity="0.64" stroke-width="2"/>
<line x1="1206.25" y1="1.21086" x2="1217.23" y2="12.1904" stroke="#0A0808" stroke-opacity="0.64" stroke-width="2"/>
<line x1="1223.23" y1="1.21086" x2="1234.21" y2="12.1904" stroke="#0A0808" stroke-opacity="0.64" stroke-width="2"/>
<line x1="1240.21" y1="1.21086" x2="1251.19" y2="12.1904" stroke="#0A0808" stroke-opacity="0.64" stroke-width="2"/>
<line x1="1257.19" y1="1.21086" x2="1268.17" y2="12.1904" stroke="#0A0808" stroke-opacity="0.64" stroke-width="2"/>
<line x1="1274.17" y1="1.21086" x2="1285.15" y2="12.1904" stroke="#0A0808" stroke-opacity="0.64" stroke-width="2"/>
<line x1="1291.15" y1="1.21086" x2="1302.13" y2="12.1904" stroke="#0A0808" stroke-opacity="0.64" stroke-width="2"/>
<line x1="1308.13" y1="1.21086" x2="1319.11" y2="12.1904" stroke="#0A0808" stroke-opacity="0.64" stroke-width="2"/>
<line x1="1325.11" y1="1.21086" x2="1336.09" y2="12.1904" stroke="#0A0808" stroke-opacity="0.64" stroke-width="2"/>
<line x1="1342.09" y1="1.21086" x2="1353.07" y2="12.1904" stroke="#0A0808" stroke-opacity="0.64" stroke-width="2"/>
<line x1="1359.07" y1="1.21086" x2="1370.05" y2="12.1904" stroke="#0A0808" stroke-opacity="0.64" stroke-width="2"/>
<line x1="1376.05" y1="1.21086" x2="1387.03" y2="12.1904" stroke="#0A0808" stroke-opacity="0.64" stroke-width="2"/>
<line x1="1393.03" y1="1.21086" x2="1404.01" y2="12.1904" stroke="#0A0808" stroke-opacity="0.64" stroke-width="2"/>
<line x1="1410.01" y1="1.21086" x2="1420.99" y2="12.1904" stroke="#0A0808" stroke-opacity="0.64" stroke-width="2"/>
<line x1="1426.99" y1="1.21086" x2="1437.97" y2="12.1904" stroke="#0A0808" stroke-opacity="0.64" stroke-width="2"/>
<line x1="1443.97" y1="1.21086" x2="1454.95" y2="12.1904" stroke="#0A0808" stroke-opacity="0.64" stroke-width="2"/>
<line x1="1460.95" y1="1.21086" x2="1471.93" y2="12.1904" stroke="#0A0808" stroke-opacity="0.64" stroke-width="2"/>
<line x1="1477.93" y1="1.21086" x2="1488.91" y2="12.1904" stroke="#0A0808" stroke-opacity="0.64" stroke-width="2"/>
<line x1="1494.91" y1="1.21086" x2="1505.89" y2="12.1904" stroke="#0A0808" stroke-opacity="0.64" stroke-width="2"/>
<line x1="1511.88" y1="1.21086" x2="1522.86" y2="12.1904" stroke="#0A0808" stroke-opacity="0.64" stroke-width="2"/>
<line x1="1528.87" y1="1.21086" x2="1539.84" y2="12.1904" stroke="#0A0808" stroke-opacity="0.64" stroke-width="2"/>
<line x1="1545.84" y1="1.21086" x2="1556.82" y2="12.1904" stroke="#0A0808" stroke-opacity="0.64" stroke-width="2"/>
<line x1="1562.82" y1="1.21086" x2="1573.8" y2="12.1904" stroke="#0A0808" stroke-opacity="0.64" stroke-width="2"/>
<line x1="1579.8" y1="1.21086" x2="1590.78" y2="12.1904" stroke="#0A0808" stroke-opacity="0.64" stroke-width="2"/>
<line x1="1596.78" y1="1.21086" x2="1607.76" y2="12.1904" stroke="#0A0808" stroke-opacity="0.64" stroke-width="2"/>
<line x1="1613.76" y1="1.21086" x2="1624.74" y2="12.1904" stroke="#0A0808" stroke-opacity="0.64" stroke-width="2"/>
<line x1="1630.74" y1="1.21086" x2="1641.72" y2="12.1904" stroke="#0A0808" stroke-opacity="0.64" stroke-width="2"/>
<line x1="1647.72" y1="1.21086" x2="1658.7" y2="12.1904" stroke="#0A0808" stroke-opacity="0.64" stroke-width="2"/>
<line x1="1664.7" y1="1.21086" x2="1675.68" y2="12.1904" stroke="#0A0808" stroke-opacity="0.64" stroke-width="2"/>
<line x1="1681.68" y1="1.21086" x2="1692.66" y2="12.1904" stroke="#0A0808" stroke-opacity="0.64" stroke-width="2"/>
</svg>
