<svg width="30" height="30" viewBox="0 0 30 30" fill="none" xmlns="http://www.w3.org/2000/svg">
<path d="M14.9996 25.636C17.3574 25.6359 19.6483 24.8527 21.5127 23.4095C23.3771 21.9663 24.7094 19.9447 25.3004 17.6623M14.9996 25.636C12.6419 25.6359 10.351 24.8527 8.48662 23.4095C6.62222 21.9663 5.28992 19.9447 4.69892 17.6623M14.9996 25.636C17.9365 25.636 20.3178 20.8733 20.3178 14.9996C20.3178 9.12601 17.9365 4.36328 14.9996 4.36328M14.9996 25.636C12.0628 25.636 9.68147 20.8733 9.68147 14.9996C9.68147 9.12601 12.0628 4.36328 14.9996 4.36328M25.3004 17.6623C25.519 16.8114 25.636 15.9191 25.636 14.9996C25.6389 13.1703 25.1678 11.3714 24.2686 9.77837M25.3004 17.6623C22.1487 19.4095 18.6032 20.3235 14.9996 20.3178C11.2627 20.3178 7.75156 19.3546 4.69892 17.6623M4.69892 17.6623C4.47526 16.7924 4.36249 15.8978 4.36329 14.9996C4.36329 13.1028 4.85965 11.3206 5.73065 9.77837M14.9996 4.36328C16.8861 4.3625 18.7388 4.86361 20.3677 5.81522C21.9966 6.76683 23.3429 8.13466 24.2686 9.77837M14.9996 4.36328C13.1132 4.3625 11.2605 4.86361 9.6316 5.81522C8.00274 6.76683 6.65637 8.13466 5.73065 9.77837M24.2686 9.77837C21.6954 12.0072 18.4039 13.2318 14.9996 13.2269C11.4566 13.2269 8.21601 11.9269 5.73065 9.77837" stroke="#111827" stroke-width="2" stroke-linecap="round" stroke-linejoin="round"/>
<rect x="2.28467" y="10.5977" width="25.9185" height="8.80251" rx="1" fill="#111827"/>
<path d="M9.52301 17.9301L9.00459 14.7563H8.97497L8.44174 17.9301H7.4049L6.68652 12.5508H7.67892L7.88629 14.1338L8.04181 15.9167H8.07884L8.35287 14.1415L8.58245 12.5508H9.41932L9.6415 14.1415L9.92293 15.9167H9.95996L10.1081 14.1338L10.3154 12.5508H11.3078L10.5895 17.9301H9.52301Z" fill="white"/>
<path d="M15.7703 17.9301L15.2519 14.7563H15.2223L14.6891 17.9301H13.6522L12.9339 12.5508H13.9263L14.1336 14.1338L14.2891 15.9167H14.3262L14.6002 14.1415L14.8298 12.5508H15.6667L15.8888 14.1415L16.1703 15.9167H16.2073L16.3554 14.1338L16.5628 12.5508H17.5552L16.8368 17.9301H15.7703Z" fill="white"/>
<path d="M22.0177 17.9301L21.4993 14.7563H21.4696L20.9364 17.9301H19.8996L19.1812 12.5508H20.1736L20.381 14.1338L20.5365 15.9167H20.5735L20.8475 14.1415L21.0771 12.5508H21.914L22.1362 14.1415L22.4176 15.9167H22.4546L22.6027 14.1338L22.8101 12.5508H23.8025L23.0841 17.9301H22.0177Z" fill="white"/>
</svg>
