<svg width="32" height="32" viewBox="0 0 32 32" fill="none" xmlns="http://www.w3.org/2000/svg">
<mask id="mask0_1583_736" style="mask-type:alpha" maskUnits="userSpaceOnUse" x="0" y="0" width="32" height="32">
<rect width="32" height="32" fill="#D9D9D9"/>
</mask>
<g mask="url(#mask0_1583_736)">
<path d="M23.3335 6V14.3333" stroke="black" stroke-width="2"/>
<path d="M27.5 9.33203L20 9.33203" stroke="black" stroke-width="2"/>
<mask id="path-4-outside-1_1583_736" maskUnits="userSpaceOnUse" x="5" y="7" width="18" height="21" fill="black">
<rect fill="white" x="5" y="7" width="18" height="21"/>
<path fill-rule="evenodd" clip-rule="evenodd" d="M16.99 12.261C16.99 14.062 15.4992 15.522 13.6601 15.522C11.821 15.522 10.3301 14.062 10.3301 12.261C10.3301 10.46 11.821 9 13.6601 9C15.4992 9 16.99 10.46 16.99 12.261ZM7 22.4517C7 18.476 11.4372 16.4732 13.66 16.4732C15.8827 16.4732 20.3199 18.476 20.3199 22.4517C20.3199 24.0199 18.9168 25.2158 17.3685 24.9673L14.7691 24.5502C14.0344 24.4323 13.2856 24.4323 12.5509 24.5502L9.95149 24.9673C8.40313 25.2158 7 24.0199 7 22.4517Z"/>
</mask>
<path d="M17.3685 24.9673L17.6853 22.9926H17.6853L17.3685 24.9673ZM14.7691 24.5502L15.086 22.5755V22.5755L14.7691 24.5502ZM12.5509 24.5502L12.234 22.5755L12.234 22.5755L12.5509 24.5502ZM9.95149 24.9673L9.6346 22.9926H9.6346L9.95149 24.9673ZM13.6601 17.522C16.5641 17.522 18.99 15.2058 18.99 12.261H14.99C14.99 12.9182 14.4343 13.522 13.6601 13.522V17.522ZM8.33008 12.261C8.33008 15.2058 10.7561 17.522 13.6601 17.522V13.522C12.8859 13.522 12.3301 12.9182 12.3301 12.261H8.33008ZM13.6601 7C10.7561 7 8.33008 9.31616 8.33008 12.261H12.3301C12.3301 11.6038 12.8859 11 13.6601 11V7ZM18.99 12.261C18.99 9.31616 16.5641 7 13.6601 7V11C14.4343 11 14.99 11.6038 14.99 12.261H18.99ZM13.66 14.4732C12.0788 14.4732 10.0124 15.1369 8.32868 16.3479C6.59899 17.5919 5 19.6267 5 22.4517H9C9 21.301 9.61961 20.3465 10.6642 19.5952C11.7548 18.8109 13.0184 18.4732 13.66 18.4732V14.4732ZM22.3199 22.4517C22.3199 19.6267 20.721 17.5919 18.9913 16.3479C17.3076 15.1369 15.2412 14.4732 13.66 14.4732V18.4732C14.3015 18.4732 15.5651 18.8109 16.6557 19.5952C17.7003 20.3465 18.3199 21.301 18.3199 22.4517H22.3199ZM17.0516 26.9421C19.8154 27.3856 22.3199 25.2509 22.3199 22.4517H18.3199C18.3199 22.7889 18.0183 23.046 17.6853 22.9926L17.0516 26.9421ZM14.4522 26.5249L17.0516 26.9421L17.6853 22.9926L15.086 22.5755L14.4522 26.5249ZM12.8677 26.5249C13.3925 26.4407 13.9274 26.4407 14.4522 26.5249L15.086 22.5755C14.1413 22.4239 13.1786 22.4239 12.234 22.5755L12.8677 26.5249ZM10.2684 26.9421L12.8677 26.5249L12.234 22.5755L9.6346 22.9926L10.2684 26.9421ZM5 22.4517C5 25.2509 7.50457 27.3856 10.2684 26.9421L9.6346 22.9926C9.30169 23.046 9 22.7889 9 22.4517H5Z" fill="#111827" mask="url(#path-4-outside-1_1583_736)"/>
</g>
</svg>
