<svg width="32" height="32" viewBox="0 0 32 32" fill="none" xmlns="http://www.w3.org/2000/svg">
<path d="M26 12.7154V13.6593C26 14.0826 25.8872 14.498 25.6736 14.8614C25.46 15.2248 25.1535 15.5227 24.7867 15.7234L18.1426 19.3577M6 12.7154V13.6593C5.99998 14.0826 6.11277 14.498 6.3264 14.8614C6.54002 15.2248 6.84651 15.5227 7.21333 15.7234L13.8574 19.3577M13.8574 19.3577L14.9056 18.7846C15.242 18.6006 15.618 18.5042 16 18.5042C16.382 18.5042 16.758 18.6006 17.0944 18.7846L18.1436 19.3577L22.9231 21.9729M13.8574 19.3577L9.07692 21.9729M26 23.6557C26 24.2774 25.7569 24.8737 25.3241 25.3134C24.8913 25.753 24.3043 26 23.6923 26H8.30769C7.69565 26 7.10868 25.753 6.67591 25.3134C6.24313 24.8737 6 24.2774 6 23.6557V12.5528C6.00017 12.1297 6.11304 11.7145 6.32666 11.3513C6.54027 10.9881 6.84666 10.6904 7.21333 10.4898L14.9056 6.28037C15.242 6.09634 15.618 6 16 6C16.382 6 16.758 6.09634 17.0944 6.28037L24.7867 10.4898C25.1533 10.6904 25.4597 10.9881 25.6733 11.3513C25.887 11.7145 25.9998 12.1297 26 12.5528V23.6557Z" stroke="black" stroke-width="2" stroke-linecap="round" stroke-linejoin="round"/>
</svg>
