<svg width="36" height="36" viewBox="0 0 36 36" fill="none" xmlns="http://www.w3.org/2000/svg">
<rect width="36" height="36" rx="12" fill="#52B5F9" fill-opacity="0.4"/>
<g clip-path="url(#clip0_1666_1688)">
<path fill-rule="evenodd" clip-rule="evenodd" d="M23.834 12.166C22.6802 11.0123 21.2102 10.2267 19.6098 9.90845C18.0095 9.5902 16.3508 9.75364 14.8434 10.3781C13.3359 11.0025 12.0475 12.06 11.141 13.4167C10.2346 14.7733 9.75074 16.3683 9.75074 18C9.75074 19.6317 10.2346 21.2267 11.141 22.5833C12.0475 23.94 13.3359 24.9975 14.8434 25.6219C16.3508 26.2464 18.0095 26.4098 19.6098 26.0916C21.2102 25.7733 22.6802 24.9877 23.834 23.834C23.9762 23.7015 24.1642 23.6294 24.3585 23.6328C24.5528 23.6363 24.7382 23.715 24.8756 23.8524C25.013 23.9898 25.0917 24.1752 25.0952 24.3695C25.0986 24.5638 25.0265 24.7518 24.894 24.894C21.087 28.702 14.914 28.702 11.106 24.894C7.298 21.087 7.298 14.914 11.106 11.106C14.913 7.298 21.086 7.298 24.894 11.106C25.8006 12.0104 26.5197 13.085 27.0098 14.2681C27.4999 15.4512 27.7515 16.7194 27.75 18C27.75 18.975 27.454 19.887 26.941 20.571C26.427 21.256 25.661 21.75 24.75 21.75C23.846 21.75 23.084 21.263 22.57 20.586C22.0278 21.5444 21.1979 22.3081 20.1978 22.7689C19.1978 23.2298 18.0781 23.3645 16.9972 23.1541C15.9163 22.9436 14.929 22.3986 14.1749 21.5962C13.4208 20.7938 12.9381 19.7746 12.7951 18.6827C12.652 17.5909 12.856 16.4817 13.378 15.5121C13.8999 14.5426 14.7136 13.7617 15.7038 13.2799C16.694 12.7982 17.8106 12.64 18.8956 12.8277C19.9807 13.0154 20.9792 13.5396 21.75 14.326V14.25C21.75 14.0511 21.829 13.8603 21.9697 13.7197C22.1103 13.579 22.3011 13.5 22.5 13.5C22.6989 13.5 22.8897 13.579 23.0303 13.7197C23.171 13.8603 23.25 14.0511 23.25 14.25V18C23.25 18.682 23.458 19.27 23.759 19.671C24.059 20.072 24.418 20.25 24.75 20.25C25.082 20.25 25.44 20.072 25.741 19.671C26.041 19.271 26.25 18.681 26.25 18C26.2516 16.9163 26.039 15.843 25.6244 14.8418C25.2098 13.8406 24.6013 12.9312 23.834 12.166ZM21.75 18C21.75 17.0054 21.3549 16.0516 20.6517 15.3483C19.9484 14.6451 18.9946 14.25 18 14.25C17.0054 14.25 16.0516 14.6451 15.3483 15.3483C14.6451 16.0516 14.25 17.0054 14.25 18C14.25 18.9946 14.6451 19.9484 15.3483 20.6517C16.0516 21.3549 17.0054 21.75 18 21.75C18.9946 21.75 19.9484 21.3549 20.6517 20.6517C21.3549 19.9484 21.75 18.9946 21.75 18Z" fill="#111827"/>
</g>
<defs>
<clipPath id="clip0_1666_1688">
<rect width="22" height="22" fill="white" transform="translate(7 7)"/>
</clipPath>
</defs>
</svg>
