<svg width="33" height="33" viewBox="0 0 33 33" fill="none" xmlns="http://www.w3.org/2000/svg">
<path d="M26.125 11.6875V21.3125C26.125 21.8595 25.891 22.3841 25.4744 22.7709C25.0579 23.1577 24.4929 23.375 23.9038 23.375H9.09615C8.50707 23.375 7.94211 23.1577 7.52556 22.7709C7.10901 22.3841 6.875 21.8595 6.875 21.3125V11.6875M26.125 11.6875C26.125 11.1405 25.891 10.6159 25.4744 10.2291C25.0579 9.8423 24.4929 9.625 23.9038 9.625H9.09615C8.50707 9.625 7.94211 9.8423 7.52556 10.2291C7.10901 10.6159 6.875 11.1405 6.875 11.6875M26.125 11.6875V11.9103C26.125 12.2624 26.028 12.6087 25.8431 12.9161C25.6582 13.2235 25.3916 13.4819 25.0687 13.6666L17.6649 17.897C17.3146 18.0973 16.9114 18.2034 16.5 18.2034C16.0886 18.2034 15.6854 18.0973 15.3351 17.897L7.93128 13.6675C7.6084 13.4828 7.34181 13.2245 7.15691 12.917C6.97201 12.6096 6.87496 12.2633 6.875 11.9112V11.6875" stroke="#111827" stroke-width="2" stroke-linecap="round" stroke-linejoin="round"/>
<circle cx="23" cy="11" r="6" fill="#FFF4E5" stroke="#111827" stroke-width="2"/>
<path d="M20.5 10.9987L22.1288 12.6654L25.9167 9.33203" stroke="#111827" stroke-width="2"/>
</svg>
