<svg width="22" height="22" viewBox="0 0 22 22" fill="none" xmlns="http://www.w3.org/2000/svg">
<g clip-path="url(#clip0_1666_1479)">
<path d="M11 17.1349C12.4466 17.1349 13.834 16.5603 14.8569 15.5373C15.8798 14.5144 16.4545 13.127 16.4545 11.6804V10.3168M11 17.1349C9.55332 17.1349 8.16594 16.5603 7.14301 15.5373C6.12008 14.5144 5.54541 13.127 5.54541 11.6804V10.3168M11 17.1349V20.544M7.59086 20.544H14.409M11 14.4077C10.2766 14.4077 9.58295 14.1203 9.07148 13.6089C8.56002 13.0974 8.27268 12.4037 8.27268 11.6804V4.1804C8.27268 3.45708 8.56002 2.76339 9.07148 2.25192C9.58295 1.74046 10.2766 1.45313 11 1.45312C11.7233 1.45313 12.417 1.74046 12.9284 2.25192C13.4399 2.76339 13.7272 3.45708 13.7272 4.1804V11.6804C13.7272 12.4037 13.4399 13.0974 12.9284 13.6089C12.417 14.1203 11.7233 14.4077 11 14.4077Z" stroke="black" stroke-width="2" stroke-linecap="round" stroke-linejoin="round"/>
</g>
<defs>
<clipPath id="clip0_1666_1479">
<rect width="21.8182" height="21.8182" fill="white" transform="translate(0.0908203 0.0898438)"/>
</clipPath>
</defs>
</svg>
