<svg width="48" height="48" viewBox="0 0 48 48" fill="none" xmlns="http://www.w3.org/2000/svg">
<circle cx="24" cy="24" r="24" fill="#FF8F00" fill-opacity="0.2"/>
<g clip-path="url(#clip0_1666_1477)">
<path d="M24 30.1349C25.4466 30.1349 26.834 29.5603 27.8569 28.5373C28.8798 27.5144 29.4545 26.127 29.4545 24.6804V23.3168M24 30.1349C22.5533 30.1349 21.1659 29.5603 20.143 28.5373C19.1201 27.5144 18.5454 26.127 18.5454 24.6804V23.3168M24 30.1349V33.544M20.5909 33.544H27.409M24 27.4077C23.2766 27.4077 22.5829 27.1203 22.0715 26.6089C21.56 26.0974 21.2727 25.4037 21.2727 24.6804V17.1804C21.2727 16.4571 21.56 15.7634 22.0715 15.2519C22.5829 14.7405 23.2766 14.4531 24 14.4531C24.7233 14.4531 25.417 14.7405 25.9284 15.2519C26.4399 15.7634 26.7272 16.4571 26.7272 17.1804V24.6804C26.7272 25.4037 26.4399 26.0974 25.9284 26.6089C25.417 27.1203 24.7233 27.4077 24 27.4077Z" stroke="black" stroke-width="2" stroke-linecap="round" stroke-linejoin="round"/>
</g>
<rect x="27.8179" y="12.543" width="9.81818" height="7.63636" rx="3.81818" fill="#FF8F00"/>
<circle cx="32.9994" cy="10.6332" r="1.36364" fill="#FF8F00"/>
<circle cx="37.6358" cy="16.3604" r="1.09091" fill="#FF8F00"/>
<line x1="33.2271" y1="11.4531" x2="33.2271" y2="13.0895" stroke="#FF8F00"/>
<circle cx="27.8175" cy="16.3604" r="1.09091" fill="#FF8F00"/>
<ellipse cx="30.8177" cy="14.9979" rx="0.818182" ry="0.818182" fill="white"/>
<ellipse cx="34.6361" cy="14.9979" rx="0.818182" ry="0.818182" fill="white"/>
<defs>
<clipPath id="clip0_1666_1477">
<rect width="21.8182" height="21.8182" fill="white" transform="translate(13.0908 13.0898)"/>
</clipPath>
</defs>
</svg>
