<svg width="16" height="16" viewBox="0 0 16 16" fill="none" xmlns="http://www.w3.org/2000/svg">
<path d="M15.9754 8.61867C16.0866 7.20195 15.819 5.78111 15.2001 4.50267C14.1757 5.47873 12.9648 6.23659 11.6403 6.73056C11.7468 8.04141 11.6878 9.36049 11.4647 10.6565C13.0764 10.2495 14.6036 9.55955 15.9754 8.61867ZM10.1611 10.9206C10.4231 9.66435 10.5147 8.37835 10.4335 7.09749C9.65242 7.28424 8.83774 7.38297 8.00008 7.38297C7.16243 7.38297 6.34775 7.28424 5.56671 7.09749C5.48733 8.37834 5.57893 9.66408 5.83909 10.9206C7.27139 11.1408 8.72878 11.1408 10.1611 10.9206ZM6.17218 12.2114C7.38655 12.3555 8.61362 12.3555 9.82799 12.2114C9.41063 13.5587 8.7945 14.8357 8.00008 16C7.20565 14.8357 6.58952 13.5587 6.17218 12.2114ZM4.53544 10.6573C4.31116 9.36089 4.25217 8.04111 4.35987 6.72974C3.03511 6.23589 1.82387 5.47801 0.799227 4.50185C0.180476 5.78061 -0.0868762 7.20175 0.0247468 8.61867C1.39661 9.55955 2.92373 10.2503 4.53544 10.6573ZM15.676 10.2641C15.2617 11.6717 14.4709 12.9386 13.3893 13.9273C12.3078 14.916 10.9768 15.5888 9.54084 15.8725C10.26 14.66 10.8088 13.3539 11.1718 11.9909C12.7548 11.6582 14.2751 11.0756 15.676 10.2649V10.2641ZM0.324201 10.2641C1.70415 11.0629 3.2203 11.6528 4.82833 11.9909C5.19137 13.3539 5.74021 14.66 6.45933 15.8725C5.0235 15.5888 3.69257 14.9162 2.611 13.9277C1.52944 12.9391 0.738557 11.6724 0.324201 10.2649V10.2641ZM9.54084 0.126697C11.5736 0.527362 13.3723 1.70286 14.5586 3.40601C13.6829 4.2932 12.6376 4.99389 11.4852 5.46606C11.1748 3.58027 10.5153 1.76934 9.54084 0.126697ZM8.00008 0C9.19742 1.75409 9.9841 3.75678 10.3014 5.85849C9.56545 6.04772 8.79426 6.14891 8.00008 6.14891C7.20591 6.14891 6.43472 6.04854 5.6988 5.85849C6.01604 3.75677 6.80272 1.75408 8.00008 0ZM6.45933 0.126697C5.48485 1.76934 4.82538 3.58026 4.51493 5.46606C3.36261 4.99391 2.31727 4.29321 1.44162 3.40601C2.62798 1.70311 4.42664 0.527076 6.45933 0.126697Z" fill="#6039DB"/>
</svg>
