<svg width="16" height="17" viewBox="0 0 16 17" fill="none" xmlns="http://www.w3.org/2000/svg">
<path fill-rule="evenodd" clip-rule="evenodd" d="M1.5 8.5C1.5 4.91 4.41 2 8 2C11.59 2 14.5 4.91 14.5 8.5C14.5 12.09 11.59 15 8 15C4.41 15 1.5 12.09 1.5 8.5ZM7.304 7.53867C8.068 7.15667 8.92867 7.84733 8.72133 8.676L8.24867 10.5667L8.27667 10.5533C8.39414 10.5017 8.52698 10.4972 8.64768 10.5408C8.76839 10.5843 8.86771 10.6727 8.9251 10.7874C8.98249 10.9022 8.99355 11.0347 8.956 11.1574C8.91844 11.2801 8.83514 11.3837 8.72333 11.4467L8.69667 11.4613C7.932 11.8433 7.07133 11.1527 7.27867 10.324L7.752 8.43333L7.724 8.44667C7.66503 8.47944 7.60003 8.49994 7.53292 8.50693C7.46581 8.51393 7.39798 8.50726 7.33352 8.48734C7.26905 8.46743 7.20929 8.43467 7.15782 8.39105C7.10635 8.34742 7.06424 8.29383 7.03403 8.2335C7.00382 8.17317 6.98613 8.10735 6.98204 8.04C6.97794 7.97266 6.98751 7.90518 7.01018 7.84163C7.03285 7.77808 7.06815 7.71978 7.11394 7.67023C7.15974 7.62069 7.21509 7.58092 7.27667 7.55333L7.304 7.53867ZM8 6.5C8.13261 6.5 8.25979 6.44732 8.35355 6.35355C8.44732 6.25979 8.5 6.13261 8.5 6C8.5 5.86739 8.44732 5.74021 8.35355 5.64645C8.25979 5.55268 8.13261 5.5 8 5.5C7.86739 5.5 7.74022 5.55268 7.64645 5.64645C7.55268 5.74021 7.5 5.86739 7.5 6C7.5 6.13261 7.55268 6.25979 7.64645 6.35355C7.74022 6.44732 7.86739 6.5 8 6.5Z" fill="#111827" fill-opacity="0.3"/>
</svg>
