<svg width="14" height="14" viewBox="0 0 14 14" fill="none" xmlns="http://www.w3.org/2000/svg">
<g clip-path="url(#clip0_1502_732)">
<path d="M7.69418 5.06802C8.07325 5.249 8.40335 5.51831 8.65675 5.85332C8.91015 6.18834 9.07945 6.57927 9.15044 6.99328C9.22142 7.4073 9.19201 7.8323 9.06468 8.23259C8.93735 8.63288 8.71581 8.99677 8.41869 9.29369L5.79368 11.9187C5.3014 12.411 4.63371 12.6875 3.93752 12.6875C3.24132 12.6875 2.57364 12.411 2.08135 11.9187C1.58906 11.4264 1.3125 10.7587 1.3125 10.0625C1.3125 9.36632 1.58906 8.69864 2.08135 8.20635L3.10627 7.18143M10.8938 6.8186L11.9187 5.79368C12.411 5.3014 12.6875 4.63371 12.6875 3.93752C12.6875 3.24132 12.411 2.57364 11.9187 2.08135C11.4264 1.58906 10.7587 1.3125 10.0625 1.3125C9.36632 1.3125 8.69864 1.58906 8.20635 2.08135L5.58135 4.70635C5.28422 5.00327 5.06269 5.36716 4.93536 5.76745C4.80803 6.16774 4.77862 6.59274 4.8496 7.00675C4.92058 7.42077 5.08989 7.8117 5.34329 8.14671C5.59669 8.48173 5.92679 8.75104 6.30585 8.93202" stroke="black" stroke-width="1.5" stroke-linecap="round" stroke-linejoin="round"/>
</g>
<defs>
<clipPath id="clip0_1502_732">
<rect width="14" height="14" fill="white"/>
</clipPath>
</defs>
</svg>
