<svg width="22" height="22" viewBox="0 0 22 22" fill="none" xmlns="http://www.w3.org/2000/svg">
<path d="M16.7281 5.27221L16.7279 5.27207C15.5951 4.13937 14.1518 3.36802 12.5806 3.05556C11.0094 2.74311 9.38079 2.90357 7.90077 3.51667C6.42074 4.12977 5.15576 5.16797 4.26576 6.49999C3.37577 7.832 2.90074 9.39802 2.90074 11C2.90074 12.602 3.37577 14.168 4.26576 15.5C5.15576 16.832 6.42074 17.8702 7.90077 18.4833C9.38079 19.0964 11.0094 19.2569 12.5806 18.9444C14.1518 18.632 15.5951 17.8606 16.7279 16.7279L16.7317 16.7242L16.7317 16.7243C16.9024 16.5653 17.128 16.4787 17.3612 16.4828C17.5943 16.487 17.8168 16.5814 17.9817 16.7463C18.1466 16.9112 18.241 17.1337 18.2452 17.3668C18.2493 17.6 18.1627 17.8256 18.0037 17.9963L18.0001 18.0001L18.0001 18.0001C14.1345 21.8667 7.86651 21.8666 3.99993 18.0001C0.133347 14.1345 0.133367 7.86652 3.99992 3.99995C7.86551 0.133343 14.1335 0.133363 18.0001 3.99993C18.9206 4.91825 19.6507 6.00938 20.1484 7.21066C20.646 8.412 20.9015 9.69983 20.9 11.0002M16.7281 5.27221L20.75 11M16.7281 5.27221C17.4814 6.02349 18.0787 6.91627 18.4858 7.89921C18.8929 8.88216 19.1016 9.93588 19.1 10.9998V11C19.1 11.6516 18.8998 12.2093 18.621 12.581M16.7281 5.27221L19.25 11M20.9 11.0002L20.75 11M20.9 11.0002C20.9 11.0001 20.9 11.0001 20.9 11H20.75M20.9 11.0002C20.9 12.0044 20.5952 12.9487 20.061 13.661L20.061 13.661C19.5259 14.3741 18.7191 14.9 17.75 14.9C16.8681 14.9 16.1199 14.464 15.5891 13.8479M20.75 11C20.75 11.975 20.454 12.887 19.941 13.571C19.427 14.256 18.661 14.75 17.75 14.75C16.9032 14.75 16.181 14.3227 15.6706 13.7122C15.644 13.7579 15.6169 13.8031 15.5891 13.8479M15.5891 13.8479C15.0321 14.7456 14.223 15.4617 13.2606 15.9052C12.232 16.3792 11.0803 16.5178 9.96854 16.3013C8.85679 16.0848 7.84126 15.5243 7.0656 14.6989C6.28994 13.8736 5.79344 12.8252 5.64634 11.7022C5.49923 10.5792 5.70897 9.43831 6.24588 8.44103C6.78278 7.44375 7.61968 6.64054 8.63817 6.14503C9.65665 5.64952 10.8052 5.4868 11.9212 5.67989C12.9351 5.85532 13.8756 6.31636 14.6338 7.00583M15.5891 13.8479C15.5545 13.8079 15.5209 13.767 15.4882 13.7255C14.946 14.6185 14.1489 15.3307 13.1978 15.7689C12.1978 16.2298 11.0781 16.3645 9.99721 16.1541C8.91634 15.9436 7.92901 15.3986 7.1749 14.5962C6.42079 13.7938 5.93809 12.7746 5.79506 11.6827C5.65204 10.5909 5.85596 9.48171 6.37795 8.51214C6.89995 7.54256 7.7136 6.76166 8.70379 6.27991C9.69398 5.79817 10.8106 5.63997 11.8956 5.8277C12.9128 6.00368 13.8539 6.47528 14.6026 7.18142C14.6072 7.12169 14.6177 7.06288 14.6338 7.00583M18.741 12.671C19.041 12.271 19.25 11.681 19.25 11M18.741 12.671L18.621 12.581C18.621 12.581 18.621 12.581 18.621 12.581M18.741 12.671C18.44 13.072 18.082 13.25 17.75 13.25C17.418 13.25 17.059 13.072 16.759 12.671C16.458 12.27 16.25 11.682 16.25 11V7.25C16.25 7.05109 16.171 6.86032 16.0303 6.71967C15.8897 6.57902 15.6989 6.5 15.5 6.5C15.3011 6.5 15.1103 6.57902 14.9697 6.71967C14.8589 6.83048 14.7863 6.97239 14.7605 7.12488M18.741 12.671L14.7605 7.12488M19.25 11C19.2516 9.91633 19.039 8.84303 18.6244 7.84182M19.25 11L18.6244 7.84182M18.621 12.581C18.3416 12.9532 18.0246 13.1 17.75 13.1C17.4753 13.1 17.1574 12.9531 16.8791 12.5811L16.879 12.581C16.5993 12.2083 16.4 11.6527 16.4 11V7.25C16.4 7.01131 16.3052 6.78239 16.1364 6.6136C15.9676 6.44482 15.7387 6.35 15.5 6.35C15.2613 6.35 15.0324 6.44482 14.8636 6.6136C14.7537 6.72349 14.6752 6.85886 14.6338 7.00583M18.621 12.581L14.7605 7.12488M14.6338 7.00583C14.6766 7.04479 14.7189 7.08447 14.7605 7.12488M18.6244 7.84182C18.2098 6.84061 17.6013 5.93124 16.834 5.166L18.6244 7.84182ZM13.5456 8.45442C14.2207 9.12955 14.6 10.0452 14.6 11C14.6 11.9548 14.2207 12.8705 13.5456 13.5456C12.8705 14.2207 11.9548 14.6 11 14.6C10.0452 14.6 9.12955 14.2207 8.45442 13.5456C7.77928 12.8705 7.4 11.9548 7.4 11C7.4 10.0452 7.77928 9.12955 8.45442 8.45442C9.12955 7.77928 10.0452 7.4 11 7.4C11.9548 7.4 12.8705 7.77928 13.5456 8.45442Z" fill="white" stroke="white" stroke-width="0.3"/>
</svg>
