<svg width="24" height="24" viewBox="0 0 24 24" fill="none" xmlns="http://www.w3.org/2000/svg">
<path d="M17.7281 6.27221L17.7279 6.27207C16.5951 5.13937 15.1518 4.36802 13.5806 4.05556C12.0094 3.74311 10.3808 3.90357 8.90077 4.51667C7.42074 5.12977 6.15576 6.16797 5.26576 7.49999C4.37577 8.832 3.90074 10.398 3.90074 12C3.90074 13.602 4.37577 15.168 5.26576 16.5C6.15576 17.832 7.42074 18.8702 8.90077 19.4833C10.3808 20.0964 12.0094 20.2569 13.5806 19.9444C15.1518 19.632 16.5951 18.8606 17.7279 17.7279L17.7317 17.7242L17.7317 17.7243C17.9024 17.5653 18.128 17.4787 18.3612 17.4828C18.5943 17.487 18.8168 17.5814 18.9817 17.7463C19.1466 17.9112 19.241 18.1337 19.2452 18.3668C19.2493 18.6 19.1627 18.8256 19.0037 18.9963L19.0001 19.0001L19.0001 19.0001C15.1345 22.8667 8.86651 22.8666 4.99993 19.0001C1.13335 15.1345 1.13337 8.86652 4.99992 4.99995C8.86551 1.13334 15.1335 1.13336 19.0001 4.99993C19.9206 5.91825 20.6507 7.00938 21.1484 8.21066C21.646 9.412 21.9015 10.6998 21.9 12.0002M17.7281 6.27221L21.75 12M17.7281 6.27221C18.4814 7.02349 19.0787 7.91627 19.4858 8.89921C19.8929 9.88216 20.1016 10.9359 20.1 11.9998V12C20.1 12.6516 19.8998 13.2093 19.621 13.581M17.7281 6.27221L20.25 12M21.9 12.0002L21.75 12M21.9 12.0002C21.9 12.0001 21.9 12.0001 21.9 12H21.75M21.9 12.0002C21.9 13.0044 21.5952 13.9487 21.061 14.661L21.061 14.661C20.5259 15.3741 19.7191 15.9 18.75 15.9C17.8681 15.9 17.1199 15.464 16.5891 14.8479M21.75 12C21.75 12.975 21.454 13.887 20.941 14.571C20.427 15.256 19.661 15.75 18.75 15.75C17.9032 15.75 17.181 15.3227 16.6706 14.7122C16.644 14.7579 16.6169 14.8031 16.5891 14.8479M16.5891 14.8479C16.0321 15.7456 15.223 16.4617 14.2606 16.9052C13.232 17.3792 12.0803 17.5178 10.9685 17.3013C9.85679 17.0848 8.84126 16.5243 8.0656 15.6989C7.28994 14.8736 6.79344 13.8252 6.64634 12.7022C6.49923 11.5792 6.70897 10.4383 7.24588 9.44103C7.78278 8.44375 8.61968 7.64054 9.63817 7.14503C10.6567 6.64952 11.8052 6.4868 12.9212 6.67989C13.9351 6.85532 14.8756 7.31636 15.6338 8.00583M16.5891 14.8479C16.5545 14.8079 16.5209 14.767 16.4882 14.7255C15.946 15.6185 15.1489 16.3307 14.1978 16.7689C13.1978 17.2298 12.0781 17.3645 10.9972 17.1541C9.91634 16.9436 8.92901 16.3986 8.1749 15.5962C7.42079 14.7938 6.93809 13.7746 6.79506 12.6827C6.65204 11.5909 6.85596 10.4817 7.37795 9.51214C7.89995 8.54256 8.7136 7.76166 9.70379 7.27991C10.694 6.79817 11.8106 6.63997 12.8956 6.8277C13.9128 7.00368 14.8539 7.47528 15.6026 8.18142C15.6072 8.12169 15.6177 8.06288 15.6338 8.00583M19.741 13.671C20.041 13.271 20.25 12.681 20.25 12M19.741 13.671L19.621 13.581C19.621 13.581 19.621 13.581 19.621 13.581M19.741 13.671C19.44 14.072 19.082 14.25 18.75 14.25C18.418 14.25 18.059 14.072 17.759 13.671C17.458 13.27 17.25 12.682 17.25 12V8.25C17.25 8.05109 17.171 7.86032 17.0303 7.71967C16.8897 7.57902 16.6989 7.5 16.5 7.5C16.3011 7.5 16.1103 7.57902 15.9697 7.71967C15.8589 7.83048 15.7863 7.97239 15.7605 8.12488M19.741 13.671L15.7605 8.12488M20.25 12C20.2516 10.9163 20.039 9.84303 19.6244 8.84182M20.25 12L19.6244 8.84182M19.621 13.581C19.3416 13.9532 19.0246 14.1 18.75 14.1C18.4753 14.1 18.1574 13.9531 17.8791 13.5811L17.879 13.581C17.5993 13.2083 17.4 12.6527 17.4 12V8.25C17.4 8.01131 17.3052 7.78239 17.1364 7.6136C16.9676 7.44482 16.7387 7.35 16.5 7.35C16.2613 7.35 16.0324 7.44482 15.8636 7.6136C15.7537 7.72349 15.6752 7.85886 15.6338 8.00583M19.621 13.581L15.7605 8.12488M15.6338 8.00583C15.6766 8.04479 15.7189 8.08447 15.7605 8.12488M19.6244 8.84182C19.2098 7.84061 18.6013 6.93124 17.834 6.166L19.6244 8.84182ZM14.5456 9.45442C15.2207 10.1295 15.6 11.0452 15.6 12C15.6 12.9548 15.2207 13.8705 14.5456 14.5456C13.8705 15.2207 12.9548 15.6 12 15.6C11.0452 15.6 10.1295 15.2207 9.45442 14.5456C8.77928 13.8705 8.4 12.9548 8.4 12C8.4 11.0452 8.77928 10.1295 9.45442 9.45442C10.1295 8.77928 11.0452 8.4 12 8.4C12.9548 8.4 13.8705 8.77928 14.5456 9.45442Z" fill="#6039DB" stroke="#6039DB" stroke-width="0.3"/>
</svg>
