<svg width="19" height="16" viewBox="0 0 19 16" fill="none" xmlns="http://www.w3.org/2000/svg">
<path d="M13.7495 1.94116C11.2169 2.82719 8.51333 3.28017 5.7855 3.27553H5.09346C3.878 3.274 2.70629 3.67201 1.81082 4.3906C0.915357 5.1092 0.361575 6.09585 0.259358 7.15479C0.15714 8.21373 0.513958 9.26758 1.25901 10.1072C2.00406 10.9469 3.0829 11.511 4.28147 11.6875C4.58691 12.7805 5.01273 13.845 5.55297 14.8662C5.98111 15.6761 7.0976 15.9311 7.93543 15.5083L8.54166 15.2026C9.35365 14.7927 9.61662 13.9182 9.25399 13.2115C9.03603 12.7881 8.84263 12.3554 8.67453 11.9151C10.4443 12.1232 12.1439 12.5201 13.7495 13.0816C14.4355 11.2857 14.7842 9.40443 14.782 7.51099C14.782 5.56429 14.4194 3.69101 13.7495 1.94116ZM15.0219 1.45227C15.7819 3.40307 16.1685 5.45014 16.1661 7.51099C16.1685 9.57184 15.7819 11.6189 15.0219 13.5697C14.9712 13.6996 14.9195 13.8295 14.865 13.9586C14.8019 14.1093 14.8098 14.2758 14.8871 14.4214C14.9644 14.567 15.1046 14.6799 15.277 14.7351C15.4494 14.7903 15.6399 14.7833 15.8064 14.7158C15.973 14.6482 16.102 14.5256 16.1651 14.3748C16.8647 12.7048 17.3039 10.96 17.4708 9.18742C17.9665 8.73701 18.243 8.13604 18.2422 7.51099C18.2422 6.86074 17.9478 6.26859 17.4708 5.83455C17.3028 4.06215 16.8637 2.31745 16.1651 0.64713C16.1339 0.572492 16.0861 0.503968 16.0246 0.445472C15.963 0.386976 15.8889 0.339652 15.8064 0.306203C15.6399 0.23865 15.4494 0.231711 15.277 0.286914C15.1046 0.342117 14.9644 0.454939 14.8871 0.600561C14.8098 0.746183 14.8019 0.912676 14.865 1.06341C14.9195 1.19249 14.9721 1.32158 15.0219 1.45227Z" fill="#6039DB"/>
</svg>
