<svg width="19" height="16" viewBox="0 0 19 16" fill="none" xmlns="http://www.w3.org/2000/svg">
<path d="M13.1267 3.19655C13.5543 4.5721 13.782 6.01842 13.782 7.51099L13.782 7.51215C13.7837 8.96892 13.5632 10.4195 13.1262 11.8262C11.7374 11.4037 10.2879 11.0979 8.79133 10.9219L7.15143 10.729L7.74028 12.2717C7.9216 12.7467 8.12999 13.2129 8.36454 13.6685M13.1267 3.19655L8.09133 14.3097C8.27408 14.2174 8.35781 14.0956 8.39164 13.9962C8.42637 13.8941 8.4216 13.78 8.36454 13.6685M13.1267 3.19655C10.7663 3.9147 8.28442 4.2797 5.78465 4.27553H5.09346H5.0922C4.09037 4.27427 3.14341 4.6034 2.4367 5.17053C1.73309 5.73516 1.32884 6.48308 1.25473 7.25087C1.18083 8.01647 1.43496 8.79885 2.00699 9.44351C2.58304 10.0927 3.4416 10.553 4.42723 10.6982L5.06976 10.7929L5.24457 11.4184C5.53043 12.4413 5.92945 13.4394 6.43689 14.3985L6.43706 14.3988C6.56176 14.6347 7.03471 14.8427 7.48496 14.6155L7.4851 14.6155L8.09107 14.3098L13.1267 3.19655ZM8.36454 13.6685C8.36446 13.6684 8.36437 13.6682 8.36428 13.668L9.25399 13.2115L8.3649 13.6692C8.36478 13.669 8.36466 13.6688 8.36454 13.6685ZM17.1661 7.51099C17.1662 7.37035 17.1647 7.22977 17.1614 7.0893C17.2151 7.22612 17.2422 7.36828 17.2422 7.51099L17.2422 7.51231C17.2424 7.65137 17.216 7.79372 17.1614 7.93285C17.1647 7.79231 17.1662 7.65168 17.1661 7.51099ZM17.1661 7.51099C17.1661 7.5106 17.1661 7.51022 17.1661 7.50983L16.1661 7.51099L17.1661 7.51214C17.1661 7.51176 17.1661 7.51137 17.1661 7.51099Z" stroke="#111827" stroke-width="2"/>
</svg>
