<svg width="22" height="20" viewBox="0 0 22 20" fill="none" xmlns="http://www.w3.org/2000/svg">
<mask id="path-1-outside-1_1882_14956" maskUnits="userSpaceOnUse" x="0" y="0" width="22" height="20" fill="black">
<rect fill="white" width="22" height="20"/>
<path fill-rule="evenodd" clip-rule="evenodd" d="M7.82757 8.31911C9.43679 8.31911 10.7413 6.90453 10.7413 5.15955C10.7413 3.41458 9.43679 2 7.82757 2C6.21836 2 4.91383 3.41458 4.91383 5.15955C4.91383 6.90453 6.21836 8.31911 7.82757 8.31911ZM7.82749 9.23991C5.88257 9.23991 2 11.1804 2 15.0324C2 16.5427 3.36461 17.6862 4.85159 17.422L6.60284 17.1108C7.41293 16.9669 8.24206 16.9669 9.05215 17.1108L10.8034 17.422C12.2904 17.6862 13.655 16.5427 13.655 15.0324C13.655 14.8825 13.6491 14.7355 13.6377 14.5914C13.6264 14.4487 13.7324 14.3223 13.8728 14.2946V14.2946L14.6468 14.1419C15.408 13.9918 16.1912 13.9918 16.9524 14.1419L17.7264 14.2946C18.9036 14.5268 19.9996 13.6258 19.9996 12.4259C19.9996 9.34432 17.2014 7.79193 15.7996 7.79193C14.9196 7.79193 13.4891 8.40382 12.5462 9.62187C12.1004 10.1977 11.1957 10.4388 10.5632 10.0781C9.58436 9.51982 8.56618 9.23991 7.82749 9.23991ZM15.8 7.05527C16.9598 7.05527 17.9 5.92361 17.9 4.52764C17.9 3.13166 16.9598 2 15.8 2C14.6402 2 13.7 3.13166 13.7 4.52764C13.7 5.92361 14.6402 7.05527 15.8 7.05527Z"/>
</mask>
<path fill-rule="evenodd" clip-rule="evenodd" d="M7.82757 8.31911C9.43679 8.31911 10.7413 6.90453 10.7413 5.15955C10.7413 3.41458 9.43679 2 7.82757 2C6.21836 2 4.91383 3.41458 4.91383 5.15955C4.91383 6.90453 6.21836 8.31911 7.82757 8.31911ZM7.82749 9.23991C5.88257 9.23991 2 11.1804 2 15.0324C2 16.5427 3.36461 17.6862 4.85159 17.422L6.60284 17.1108C7.41293 16.9669 8.24206 16.9669 9.05215 17.1108L10.8034 17.422C12.2904 17.6862 13.655 16.5427 13.655 15.0324C13.655 14.8825 13.6491 14.7355 13.6377 14.5914C13.6264 14.4487 13.7324 14.3223 13.8728 14.2946V14.2946L14.6468 14.1419C15.408 13.9918 16.1912 13.9918 16.9524 14.1419L17.7264 14.2946C18.9036 14.5268 19.9996 13.6258 19.9996 12.4259C19.9996 9.34432 17.2014 7.79193 15.7996 7.79193C14.9196 7.79193 13.4891 8.40382 12.5462 9.62187C12.1004 10.1977 11.1957 10.4388 10.5632 10.0781C9.58436 9.51982 8.56618 9.23991 7.82749 9.23991ZM15.8 7.05527C16.9598 7.05527 17.9 5.92361 17.9 4.52764C17.9 3.13166 16.9598 2 15.8 2C14.6402 2 13.7 3.13166 13.7 4.52764C13.7 5.92361 14.6402 7.05527 15.8 7.05527Z" fill="white"/>
<path d="M4.85159 17.422L5.20149 19.3911L5.20149 19.3911L4.85159 17.422ZM6.60284 17.1108L6.25294 15.1416L6.25294 15.1416L6.60284 17.1108ZM9.05215 17.1108L9.40205 15.1416L9.40204 15.1416L9.05215 17.1108ZM10.8034 17.422L10.4535 19.3911L10.4535 19.3911L10.8034 17.422ZM14.6468 14.1419L15.0338 16.1041L15.0338 16.1041L14.6468 14.1419ZM16.9524 14.1419L16.5654 16.1041L16.5654 16.1041L16.9524 14.1419ZM17.7264 14.2946L18.1134 12.3324L18.1134 12.3324L17.7264 14.2946ZM12.5462 9.62187L10.9647 8.39761L12.5462 9.62187ZM13.8728 14.2946L13.4858 12.3324L13.4858 12.3324L13.8728 14.2946ZM8.74132 5.15955C8.74132 5.95555 8.1828 6.31911 7.82757 6.31911V10.3191C10.6908 10.3191 12.7413 7.8535 12.7413 5.15955H8.74132ZM7.82757 4C8.1828 4 8.74132 4.36355 8.74132 5.15955H12.7413C12.7413 2.4656 10.6908 0 7.82757 0V4ZM6.91383 5.15955C6.91383 4.36356 7.47235 4 7.82757 4V0C4.96436 0 2.91383 2.4656 2.91383 5.15955H6.91383ZM7.82757 6.31911C7.47235 6.31911 6.91383 5.95555 6.91383 5.15955H2.91383C2.91383 7.8535 4.96436 10.3191 7.82757 10.3191V6.31911ZM4 15.0324C4 13.8555 4.57163 12.94 5.43034 12.2561C6.35125 11.5227 7.38016 11.2399 7.82749 11.2399V7.23991C6.3299 7.23991 4.44506 7.92732 2.93846 9.12717C1.36965 10.3766 0 12.3573 0 15.0324H4ZM4.50169 15.4528C4.24008 15.4993 4 15.2981 4 15.0324H0C0 17.7872 2.48915 19.8731 5.20149 19.3911L4.50169 15.4528ZM6.25294 15.1416L4.50169 15.4528L5.20149 19.3911L6.95274 19.08L6.25294 15.1416ZM9.40204 15.1416C8.3605 14.9566 7.29449 14.9566 6.25294 15.1416L6.95274 19.08C7.53138 18.9771 8.12361 18.9771 8.70225 19.08L9.40204 15.1416ZM11.1533 15.4528L9.40205 15.1416L8.70224 19.08L10.4535 19.3911L11.1533 15.4528ZM11.655 15.0324C11.655 15.2981 11.4149 15.4993 11.1533 15.4528L10.4535 19.3911C13.1658 19.8731 15.655 17.7872 15.655 15.0324H11.655ZM11.6439 14.7493C11.6512 14.8405 11.655 14.9349 11.655 15.0324H15.655C15.655 14.8302 15.6471 14.6304 15.6314 14.4334L11.6439 14.7493ZM14.2598 12.1797L13.4858 12.3324L14.2598 16.2568L15.0338 16.1041L14.2598 12.1797ZM17.3394 12.1797C16.3227 11.9792 15.2765 11.9792 14.2598 12.1797L15.0338 16.1041C15.5395 16.0044 16.0597 16.0044 16.5654 16.1041L17.3394 12.1797ZM18.1134 12.3324L17.3394 12.1797L16.5654 16.1041L17.3394 16.2568L18.1134 12.3324ZM17.9996 12.4259C17.9996 12.4175 18.0023 12.4007 18.0107 12.3834C18.018 12.3683 18.0267 12.3586 18.0344 12.3523C18.0421 12.346 18.0533 12.3393 18.0695 12.3351C18.0882 12.3301 18.1052 12.3307 18.1134 12.3324L17.3394 16.2568C19.7527 16.7328 21.9996 14.8857 21.9996 12.4259H17.9996ZM15.7996 9.79193C15.7967 9.79193 15.8414 9.7924 15.9341 9.81373C16.0236 9.83431 16.1381 9.86984 16.2703 9.92558C16.5378 10.0383 16.8323 10.2146 17.1006 10.4518C17.6209 10.9117 17.9996 11.5512 17.9996 12.4259H21.9996C21.9996 10.219 20.9792 8.54158 19.7499 7.45487C18.5924 6.43167 17.0887 5.79193 15.7996 5.79193V9.79193ZM14.1277 10.8461C14.4024 10.4913 14.761 10.2113 15.121 10.0236C15.2986 9.93102 15.4608 9.86922 15.5923 9.83237C15.7298 9.79382 15.7999 9.79193 15.7996 9.79193V5.79193C14.2297 5.79193 12.2406 6.74931 10.9647 8.39761L14.1277 10.8461ZM7.82749 11.2399C8.13984 11.2399 8.81858 11.3855 9.57237 11.8154L11.554 8.34074C10.3501 7.65416 8.99252 7.23991 7.82749 7.23991V11.2399ZM15.9 4.52764C15.9 4.78373 15.8127 4.95728 15.7465 5.03686C15.684 5.11219 15.6939 5.05527 15.8 5.05527V9.05527C18.3953 9.05527 19.9 6.66516 19.9 4.52764H15.9ZM15.8 4C15.6939 4 15.684 3.94308 15.7465 4.01841C15.8127 4.09799 15.9 4.27154 15.9 4.52764H19.9C19.9 2.39011 18.3953 0 15.8 0V4ZM15.7 4.52764C15.7 4.27154 15.7873 4.09799 15.8534 4.01841C15.916 3.94308 15.906 4 15.8 4V0C13.2046 0 11.7 2.39011 11.7 4.52764H15.7ZM15.8 5.05527C15.906 5.05527 15.916 5.11219 15.8534 5.03686C15.7873 4.95728 15.7 4.78373 15.7 4.52764H11.7C11.7 6.66516 13.2046 9.05527 15.8 9.05527V5.05527ZM10.9647 8.39761C11.05 8.28741 11.1247 8.26444 11.1553 8.25706C11.187 8.24939 11.3437 8.22083 11.554 8.34074L9.57237 11.8154C10.4152 12.296 11.3405 12.3273 12.0942 12.1453C12.8467 11.9636 13.5966 11.5321 14.1277 10.8461L10.9647 8.39761ZM15.6314 14.4334C15.7086 15.4074 15.009 16.109 14.2598 16.2568L13.4858 12.3324C12.4558 12.5355 11.5442 13.4899 11.6439 14.7493L15.6314 14.4334Z" fill="#111827" mask="url(#path-1-outside-1_1882_14956)"/>
</svg>
