<svg width="18" height="16" viewBox="0 0 18 16" fill="none" xmlns="http://www.w3.org/2000/svg">
<path fill-rule="evenodd" clip-rule="evenodd" d="M5.82757 6.31891C7.43679 6.31891 8.74132 4.90437 8.74132 3.15945C8.74132 1.41454 7.43679 0 5.82757 0C4.21836 0 2.91383 1.41454 2.91383 3.15945C2.91383 4.90437 4.21836 6.31891 5.82757 6.31891ZM5.82749 7.24042C3.88257 7.24042 0 9.18085 0 13.0328C0 14.543 1.36457 15.6865 2.8515 15.4222L4.60288 15.1111C5.41295 14.9671 6.24204 14.9671 7.05211 15.1111L8.80349 15.4222C10.2904 15.6865 11.655 14.543 11.655 13.0328C11.655 12.7904 11.6396 12.5556 11.6103 12.3283C11.6971 12.3233 11.7848 12.3123 11.873 12.2949L12.647 12.1422C13.4082 11.9921 14.1914 11.9921 14.9526 12.1422L15.7267 12.2949C16.9038 12.5271 17.9998 11.6261 17.9998 10.4263C17.9998 7.34478 15.2016 5.79244 13.7998 5.79244C12.6357 5.79244 10.5085 6.86305 9.82066 8.99101C8.54782 7.82555 6.89551 7.24042 5.82749 7.24042ZM13.8 5.05511C14.9598 5.05511 15.9 3.92349 15.9 2.52756C15.9 1.13163 14.9598 0 13.8 0C12.6402 0 11.7 1.13163 11.7 2.52756C11.7 3.92349 12.6402 5.05511 13.8 5.05511Z" fill="#6039DB"/>
</svg>
