<svg width="18" height="16" viewBox="0 0 18 16" fill="none" xmlns="http://www.w3.org/2000/svg">
<path fill-rule="evenodd" clip-rule="evenodd" d="M8.46763 0.153846C8.79331 -0.0512822 9.20782 -0.0512819 9.53351 0.153846L17.5323 5.19177C18.3809 5.72625 18.0022 7.03793 16.9993 7.03793H15.017V13.461C15.017 14.5655 14.1216 15.461 13.017 15.461H4.98411C3.87955 15.461 2.98411 14.5655 2.98411 13.461V7.03793H1.00178C-0.00109388 7.03793 -0.379741 5.72624 0.468847 5.19177L8.46763 0.153846ZM7.51702 10.8667C6.96473 10.8667 6.51702 11.3144 6.51702 11.8667V12.2732C6.51702 12.8255 6.96473 13.2732 7.51702 13.2732H10.3302C10.8825 13.2732 11.3302 12.8255 11.3302 12.2732V11.8667C11.3302 11.3144 10.8825 10.8667 10.3302 10.8667H7.51702Z" fill="#6039DB"/>
</svg>
