<svg width="24" height="20" viewBox="0 0 24 20" fill="none" xmlns="http://www.w3.org/2000/svg">
<mask id="path-1-outside-1_2073_2688" maskUnits="userSpaceOnUse" x="0" y="0" width="24" height="20" fill="black">
<rect fill="white" width="24" height="20"/>
<path fill-rule="evenodd" clip-rule="evenodd" d="M11.4676 2.15385C11.7933 1.94872 12.2078 1.94872 12.5335 2.15385L20.5323 7.19177C21.3809 7.72625 21.0022 9.03793 19.9993 9.03793H18.017V15.461C18.017 16.5655 17.1216 17.461 16.017 17.461H7.98411C6.87955 17.461 5.98411 16.5655 5.98411 15.461V9.03793H4.00178C2.99891 9.03793 2.62026 7.72624 3.46885 7.19177L11.4676 2.15385ZM10.517 12.8667C9.96473 12.8667 9.51702 13.3144 9.51702 13.8667V14.2732C9.51702 14.8255 9.96473 15.2732 10.517 15.2732H13.3302C13.8825 15.2732 14.3302 14.8255 14.3302 14.2732V13.8667C14.3302 13.3144 13.8825 12.8667 13.3302 12.8667H10.517Z"/>
</mask>
<path d="M12.5335 2.15385L11.4676 3.84615V3.84615L12.5335 2.15385ZM11.4676 2.15385L12.5335 3.84615L12.5335 3.84615L11.4676 2.15385ZM20.5323 7.19177L19.4664 8.88408L19.4664 8.88408L20.5323 7.19177ZM18.017 9.03793V7.03793H16.017V9.03793H18.017ZM5.98411 9.03793H7.98411V7.03793H5.98411V9.03793ZM3.46885 7.19177L2.40297 5.49946L2.40297 5.49946L3.46885 7.19177ZM13.5994 0.461539C12.6223 -0.153846 11.3788 -0.153847 10.4018 0.461539L12.5335 3.84615C12.2078 4.05128 11.7933 4.05128 11.4676 3.84615L13.5994 0.461539ZM21.5982 5.49947L13.5994 0.461539L11.4676 3.84615L19.4664 8.88408L21.5982 5.49947ZM19.9993 11.0379C23.008 11.0379 24.1439 7.10289 21.5982 5.49947L19.4664 8.88408C18.6178 8.3496 18.9965 7.03793 19.9993 7.03793V11.0379ZM18.017 11.0379H19.9993V7.03793H18.017V11.0379ZM20.017 15.461V9.03793H16.017V15.461H20.017ZM16.017 19.461C18.2262 19.461 20.017 17.6701 20.017 15.461H16.017L16.017 15.461V19.461ZM7.98411 19.461H16.017V15.461H7.98411V19.461ZM3.98411 15.461C3.98411 17.6701 5.77498 19.461 7.98411 19.461V15.461L7.98411 15.461H3.98411ZM3.98411 9.03793V15.461H7.98411V9.03793H3.98411ZM4.00178 11.0379H5.98411V7.03793H4.00178V11.0379ZM2.40297 5.49946C-0.142783 7.10287 0.993137 11.0379 4.00178 11.0379V7.03793C5.00468 7.03793 5.3833 8.34962 4.53472 8.88408L2.40297 5.49946ZM10.4018 0.461538L2.40297 5.49946L4.53472 8.88408L12.5335 3.84615L10.4018 0.461538ZM11.517 13.8667C11.517 14.4189 11.0693 14.8667 10.517 14.8667V10.8667C8.86016 10.8667 7.51702 12.2098 7.51702 13.8667H11.517ZM11.517 14.2732V13.8667H7.51702V14.2732H11.517ZM10.517 13.2732C11.0693 13.2732 11.517 13.721 11.517 14.2732H7.51702C7.51702 15.9301 8.86017 17.2732 10.517 17.2732V13.2732ZM13.3302 13.2732H10.517V17.2732H13.3302V13.2732ZM12.3302 14.2732C12.3302 13.721 12.7779 13.2732 13.3302 13.2732V17.2732C14.987 17.2732 16.3302 15.9301 16.3302 14.2732H12.3302ZM12.3302 13.8667V14.2732H16.3302V13.8667H12.3302ZM13.3302 14.8667C12.7779 14.8667 12.3302 14.4189 12.3302 13.8667H16.3302C16.3302 12.2098 14.987 10.8667 13.3302 10.8667V14.8667ZM10.517 14.8667H13.3302V10.8667H10.517V14.8667Z" fill="#111827" mask="url(#path-1-outside-1_2073_2688)"/>
</svg>
