<svg width="18" height="18" viewBox="0 0 18 18" fill="none" xmlns="http://www.w3.org/2000/svg">
<path d="M17.9724 9.69601C18.0975 8.10219 17.7964 6.50375 17.1001 5.06551C15.9477 6.16357 14.5854 7.01617 13.0953 7.57188C13.2151 9.04659 13.1488 10.5306 12.8978 11.9886C14.711 11.5307 16.429 10.7545 17.9724 9.69601ZM11.4312 12.2857C11.726 10.8724 11.8291 9.42564 11.7376 7.98468C10.859 8.19478 9.94245 8.30584 9.0001 8.30584C8.05774 8.30584 7.14122 8.19478 6.26255 7.98468C6.17324 9.42563 6.2763 10.8721 6.56898 12.2857C8.18031 12.5334 9.81988 12.5334 11.4312 12.2857ZM6.9437 13.7379C8.30987 13.8999 9.69032 13.8999 11.0565 13.7379C10.587 15.2535 9.89381 16.6901 9.0001 18C8.10636 16.6902 7.41321 15.2535 6.9437 13.7379ZM5.10237 11.9895C4.85006 10.531 4.78369 9.04625 4.90485 7.57096C3.4145 7.01538 2.05185 6.16277 0.89913 5.06458C0.203036 6.50319 -0.0977357 8.10197 0.0278401 9.69601C1.57119 10.7545 3.2892 11.5316 5.10237 11.9895ZM17.6355 11.5471C17.1695 13.1306 16.2798 14.5559 15.063 15.6682C13.8462 16.7805 12.3489 17.5374 10.7334 17.8565C11.5425 16.4925 12.1599 15.0231 12.5683 13.4898C14.3492 13.1155 16.0595 12.4601 17.6355 11.548V11.5471ZM0.364727 11.5471C1.91717 12.4458 3.62283 13.1094 5.43187 13.4898C5.84029 15.0231 6.45774 16.4925 7.26675 17.8565C5.65143 17.5374 4.15414 16.7808 2.93738 15.6686C1.72062 14.5565 0.830876 13.1314 0.364727 11.548V11.5471ZM10.7334 0.142534C13.0203 0.593282 15.0438 1.91572 16.3784 3.83176C15.3933 4.82984 14.2172 5.61813 12.9209 6.14932C12.5716 4.0278 11.8297 1.99051 10.7334 0.142534ZM9.0001 0C10.3471 1.97335 11.2321 4.22637 11.589 6.59081C10.7611 6.80368 9.89354 6.91752 9.0001 6.91752C8.10665 6.91752 7.23906 6.80461 6.41115 6.59081C6.76805 4.22636 7.65306 1.97334 9.0001 0ZM7.26675 0.142534C6.17046 1.9905 5.42855 4.0278 5.07929 6.14932C3.78293 5.61815 2.60692 4.82986 1.62182 3.83176C2.95648 1.916 4.97997 0.59296 7.26675 0.142534Z" fill="black"/>
</svg>
