<svg width="22" height="18" viewBox="0 0 22 18" fill="none" xmlns="http://www.w3.org/2000/svg">
<path d="M3.00047 1H8.04395C9.14852 1 10.0439 1.89543 10.0439 3V7.08737C10.0439 8.19195 9.14851 9.08737 8.04394 9.08737H6.05372L5.70784 9.59982C4.89503 10.8041 3.10589 10.3815 2.80476 9.08586C1.80153 9.04591 1.00047 8.21997 1.00047 7.20694V3C1.00047 1.89543 1.8959 1 3.00047 1Z" stroke="#111827" stroke-width="2"/>
<path d="M19.0005 3.89844H10.0439C8.93938 3.89844 8.04395 4.79387 8.04395 5.89844V12.6913C8.04395 13.7959 8.93938 14.6913 10.0439 14.6913H14.0128L14.7803 15.7472C15.8613 17.2344 18.1966 16.5004 18.26 14.6913H19.0005C20.105 14.6913 21.0005 13.7959 21.0005 12.6913V5.89844C21.0005 4.79387 20.105 3.89844 19.0005 3.89844Z" fill="white" stroke="#111827" stroke-width="2"/>
</svg>
