<svg width="27" height="19" viewBox="0 0 27 19" fill="none" xmlns="http://www.w3.org/2000/svg">
<path d="M3 1H10C11.1046 1 12 1.89543 12 3V7.3C12 8.40457 11.1046 9.3 10 9.3H6.96838L6.28726 10.1173C5.32113 11.2767 3.49 10.7052 3.27149 9.3H3C1.89543 9.3 1 8.40457 1 7.3V3C1 1.89543 1.89543 1 3 1Z" fill="#6039DB" stroke="#111827" stroke-width="2"/>
<path d="M24 4H12C10.8954 4 10 4.89543 10 6V13.1C10 14.2046 10.8954 15.1 12 15.1H17.5538L19.0115 16.7243C20.2367 18.0895 22.5 17.2229 22.5 15.3885V15.1H24C25.1046 15.1 26 14.2046 26 13.1V6C26 4.89543 25.1046 4 24 4Z" fill="#6039DB" stroke="#111827" stroke-width="2"/>
</svg>
